<?xml version="1.0" encoding="utf-8" standalone="no"?>
<!DOCTYPE svg PUBLIC "-//W3C//DTD SVG 1.1//EN"
  "http://www.w3.org/Graphics/SVG/1.1/DTD/svg11.dtd">
<svg xmlns:xlink="http://www.w3.org/1999/xlink" width="692.39952pt" height="232.03976pt" viewBox="0 0 692.39952 232.03976" xmlns="http://www.w3.org/2000/svg" version="1.1">
 <metadata>
  <rdf:RDF xmlns:dc="http://purl.org/dc/elements/1.1/" xmlns:cc="http://creativecommons.org/ns#" xmlns:rdf="http://www.w3.org/1999/02/22-rdf-syntax-ns#">
   <cc:Work>
    <dc:type rdf:resource="http://purl.org/dc/dcmitype/StillImage"/>
    <dc:date>2026-05-25T06:05:54.790278</dc:date>
    <dc:format>image/svg+xml</dc:format>
    <dc:creator>
     <cc:Agent>
      <dc:title>Matplotlib v3.10.9, https://matplotlib.org/</dc:title>
     </cc:Agent>
    </dc:creator>
   </cc:Work>
  </rdf:RDF>
 </metadata>
 <defs>
  <style type="text/css">*{stroke-linejoin: round; stroke-linecap: butt}</style>
 </defs>
 <g id="figure_1">
  <g id="patch_1">
   <path d="M 0 232.03976 
L 692.39952 232.03976 
L 692.39952 0 
L 0 0 
z
" style="fill: #ffffff"/>
  </g>
  <g id="axes_1">
   <g id="patch_2">
    <path d="M 44.225313 198.85476 
L 685.19952 198.85476 
L 685.19952 28.438677 
L 44.225313 28.438677 
z
" style="fill: #ffffff"/>
   </g>
   <g id="patch_3">
    <path d="M 66.796633 198.85476 
L 162.981238 198.85476 
L 162.981238 174.01162 
L 66.796633 174.01162 
L 66.796633 198.85476 
z
" clip-path="url(#p0cb4709f1a)" style="fill: none; stroke: #595959; stroke-width: 0.5; stroke-linejoin: miter"/>
   </g>
   <g id="matplotlib.axis_1">
    <g id="xtick_1">
     <g id="line2d_1">
      <defs>
       <path id="mb4337b4526" d="M 0 0 
L 0 3 
" style="stroke: #000000; stroke-width: 0.6"/>
      </defs>
      <g>
       <use xlink:href="#mb4337b4526" x="44.225313" y="198.85476" style="stroke: #000000; stroke-width: 0.6"/>
      </g>
     </g>
     <g id="text_1">
      <text style="font-size: 7px; font-family: 'Helvetica', 'Arial', 'DejaVu Sans', sans-serif; text-anchor: middle" x="44.225313" y="210.673666" transform="rotate(-0 44.225313 210.673666)">0</text>
     </g>
    </g>
    <g id="xtick_2">
     <g id="line2d_2">
      <g>
       <use xlink:href="#mb4337b4526" x="172.471452" y="198.85476" style="stroke: #000000; stroke-width: 0.6"/>
      </g>
     </g>
     <g id="text_2">
      <text style="font-size: 7px; font-family: 'Helvetica', 'Arial', 'DejaVu Sans', sans-serif; text-anchor: middle" x="172.471452" y="210.673666" transform="rotate(-0 172.471452 210.673666)">500</text>
     </g>
    </g>
    <g id="xtick_3">
     <g id="line2d_3">
      <g>
       <use xlink:href="#mb4337b4526" x="300.717592" y="198.85476" style="stroke: #000000; stroke-width: 0.6"/>
      </g>
     </g>
     <g id="text_3">
      <text style="font-size: 7px; font-family: 'Helvetica', 'Arial', 'DejaVu Sans', sans-serif; text-anchor: middle" x="300.717592" y="210.673666" transform="rotate(-0 300.717592 210.673666)">1000</text>
     </g>
    </g>
    <g id="xtick_4">
     <g id="line2d_4">
      <g>
       <use xlink:href="#mb4337b4526" x="428.963732" y="198.85476" style="stroke: #000000; stroke-width: 0.6"/>
      </g>
     </g>
     <g id="text_4">
      <text style="font-size: 7px; font-family: 'Helvetica', 'Arial', 'DejaVu Sans', sans-serif; text-anchor: middle" x="428.963732" y="210.673666" transform="rotate(-0 428.963732 210.673666)">1500</text>
     </g>
    </g>
    <g id="xtick_5">
     <g id="line2d_5">
      <g>
       <use xlink:href="#mb4337b4526" x="557.209872" y="198.85476" style="stroke: #000000; stroke-width: 0.6"/>
      </g>
     </g>
     <g id="text_5">
      <text style="font-size: 7px; font-family: 'Helvetica', 'Arial', 'DejaVu Sans', sans-serif; text-anchor: middle" x="557.209872" y="210.673666" transform="rotate(-0 557.209872 210.673666)">2000</text>
     </g>
    </g>
    <g id="text_6">
     <text style="font-size: 9px; font-family: 'Helvetica', 'Arial', 'DejaVu Sans', sans-serif; text-anchor: middle" x="364.712416" y="222.968041" transform="rotate(-0 364.712416 222.968041)">Sampling points</text>
    </g>
   </g>
   <g id="matplotlib.axis_2">
    <g id="ytick_1">
     <g id="line2d_6">
      <defs>
       <path id="mcdfe1c926c" d="M 0 0 
L -3 0 
" style="stroke: #000000; stroke-width: 0.6"/>
      </defs>
      <g>
       <use xlink:href="#mcdfe1c926c" x="44.225313" y="198.85476" style="stroke: #000000; stroke-width: 0.6"/>
      </g>
     </g>
     <g id="text_7">
      <text style="font-size: 7px; font-family: 'Helvetica', 'Arial', 'DejaVu Sans', sans-serif; text-anchor: end" x="37.725313" y="201.514213" transform="rotate(-0 37.725313 201.514213)">0</text>
     </g>
    </g>
    <g id="ytick_2">
     <g id="line2d_7">
      <g>
       <use xlink:href="#mcdfe1c926c" x="44.225313" y="170.799266" style="stroke: #000000; stroke-width: 0.6"/>
      </g>
     </g>
     <g id="text_8">
      <text style="font-size: 7px; font-family: 'Helvetica', 'Arial', 'DejaVu Sans', sans-serif; text-anchor: end" x="37.725313" y="173.458719" transform="rotate(-0 37.725313 173.458719)">200</text>
     </g>
    </g>
    <g id="ytick_3">
     <g id="line2d_8">
      <g>
       <use xlink:href="#mcdfe1c926c" x="44.225313" y="142.743773" style="stroke: #000000; stroke-width: 0.6"/>
      </g>
     </g>
     <g id="text_9">
      <text style="font-size: 7px; font-family: 'Helvetica', 'Arial', 'DejaVu Sans', sans-serif; text-anchor: end" x="37.725313" y="145.403226" transform="rotate(-0 37.725313 145.403226)">400</text>
     </g>
    </g>
    <g id="ytick_4">
     <g id="line2d_9">
      <g>
       <use xlink:href="#mcdfe1c926c" x="44.225313" y="114.688279" style="stroke: #000000; stroke-width: 0.6"/>
      </g>
     </g>
     <g id="text_10">
      <text style="font-size: 7px; font-family: 'Helvetica', 'Arial', 'DejaVu Sans', sans-serif; text-anchor: end" x="37.725313" y="117.347732" transform="rotate(-0 37.725313 117.347732)">600</text>
     </g>
    </g>
    <g id="ytick_5">
     <g id="line2d_10">
      <g>
       <use xlink:href="#mcdfe1c926c" x="44.225313" y="86.632785" style="stroke: #000000; stroke-width: 0.6"/>
      </g>
     </g>
     <g id="text_11">
      <text style="font-size: 7px; font-family: 'Helvetica', 'Arial', 'DejaVu Sans', sans-serif; text-anchor: end" x="37.725313" y="89.292238" transform="rotate(-0 37.725313 89.292238)">800</text>
     </g>
    </g>
    <g id="ytick_6">
     <g id="line2d_11">
      <g>
       <use xlink:href="#mcdfe1c926c" x="44.225313" y="58.577292" style="stroke: #000000; stroke-width: 0.6"/>
      </g>
     </g>
     <g id="text_12">
      <text style="font-size: 7px; font-family: 'Helvetica', 'Arial', 'DejaVu Sans', sans-serif; text-anchor: end" x="37.725313" y="61.236745" transform="rotate(-0 37.725313 61.236745)">1000</text>
     </g>
    </g>
    <g id="ytick_7">
     <g id="line2d_12">
      <g>
       <use xlink:href="#mcdfe1c926c" x="44.225313" y="30.521798" style="stroke: #000000; stroke-width: 0.6"/>
      </g>
     </g>
     <g id="text_13">
      <text style="font-size: 7px; font-family: 'Helvetica', 'Arial', 'DejaVu Sans', sans-serif; text-anchor: end" x="37.725313" y="33.181251" transform="rotate(-0 37.725313 33.181251)">1200</text>
     </g>
    </g>
    <g id="text_14">
     <text style="font-size: 9px; font-family: 'Helvetica', 'Arial', 'DejaVu Sans', sans-serif; text-anchor: middle" x="14.038594" y="113.646719" transform="rotate(-90 14.038594 113.646719)">Power (W)</text>
    </g>
   </g>
   <g id="line2d_13">
    <path d="M 44.225313 198.85476 
L 52.176573 198.85476 
L 52.433065 191.715038 
L 52.689558 198.85476 
L 56.28045 198.85476 
L 56.536942 190.942206 
L 56.793434 198.85476 
L 68.079095 198.85476 
L 68.335587 191.628685 
L 68.592079 198.85476 
L 74.747894 198.85476 
L 75.004386 190.264601 
L 75.260878 191.354902 
L 75.517371 198.85476 
L 76.54334 198.85476 
L 76.799832 191.138856 
L 77.056324 198.85476 
L 78.338786 198.85476 
L 78.595278 190.78347 
L 78.85177 198.85476 
L 80.134232 198.85476 
L 80.390724 190.656841 
L 80.647216 190.772122 
L 80.903709 191.454363 
L 81.160201 191.213348 
L 81.416693 198.85476 
L 81.673185 191.683539 
L 81.929678 190.055172 
L 82.18617 198.85476 
L 82.442662 191.750579 
L 82.699154 198.85476 
L 83.212139 198.85476 
L 83.468631 190.972906 
L 83.725124 198.85476 
L 83.981616 191.275181 
L 84.238108 189.7914 
L 84.4946 191.531169 
L 84.751093 189.027327 
L 85.007585 190.605027 
L 85.264077 190.666529 
L 85.52057 191.427455 
L 85.777062 188.156556 
L 86.033554 198.85476 
L 86.290046 198.85476 
L 86.546539 189.844966 
L 86.803031 188.962405 
L 87.059523 189.157512 
L 87.316016 189.09077 
L 87.572508 198.85476 
L 87.829 190.57219 
L 88.085492 189.676536 
L 88.341985 189.396873 
L 88.598477 188.609111 
L 88.854969 189.886649 
L 89.111461 198.85476 
L 89.367954 190.648383 
L 89.624446 188.651795 
L 89.880938 190.45436 
L 90.137431 198.85476 
L 90.393923 190.605264 
L 90.650415 198.85476 
L 90.906907 189.850307 
L 91.1634 190.487464 
L 91.419892 189.73396 
L 91.676384 189.684359 
L 91.932877 191.261781 
L 92.189369 190.278339 
L 92.445861 190.470597 
L 92.958846 190.066875 
L 93.215338 190.803831 
L 93.47183 190.961395 
L 93.728323 191.563544 
L 93.984815 191.240579 
L 94.241307 198.85476 
L 94.497799 198.85476 
L 94.754292 190.88727 
L 95.010784 198.85476 
L 95.267276 188.129696 
L 95.523768 198.85476 
L 95.780261 198.85476 
L 96.036753 191.148078 
L 96.293245 191.312198 
L 96.549738 189.396063 
L 96.80623 190.466583 
L 97.062722 189.840386 
L 97.319214 198.85476 
L 98.088691 198.85476 
L 98.345184 191.301314 
L 98.601676 191.603943 
L 98.858168 198.85476 
L 103.475029 198.85476 
L 103.731521 190.412059 
L 103.988014 198.85476 
L 104.244506 191.289489 
L 104.500998 198.85476 
L 105.270475 198.85476 
L 105.526967 191.306183 
L 105.78346 191.829728 
L 106.039952 198.85476 
L 109.117859 198.85476 
L 109.374352 190.787271 
L 109.630844 198.85476 
L 111.939274 198.85476 
L 112.195767 191.294743 
L 112.452259 198.85476 
L 115.017182 198.85476 
L 115.273674 190.58795 
L 115.530166 198.85476 
L 116.043151 198.85476 
L 116.299643 190.9125 
L 116.556135 198.85476 
L 132.715149 198.85476 
L 132.971641 191.697672 
L 133.228134 198.85476 
L 135.02358 198.85476 
L 135.280072 190.748041 
L 135.536564 198.85476 
L 135.793056 190.393932 
L 136.049549 198.85476 
L 138.357979 198.85476 
L 138.614472 190.569945 
L 138.870964 191.79814 
L 139.127456 198.85476 
L 139.383948 198.85476 
L 139.640441 191.655015 
L 139.896933 191.578926 
L 140.153425 189.834338 
L 140.409917 190.563576 
L 140.66641 198.85476 
L 140.922902 191.307461 
L 141.435887 191.177865 
L 141.692379 190.482645 
L 141.948871 198.85476 
L 142.718348 198.85476 
L 142.97484 190.90958 
L 143.231333 190.066963 
L 143.487825 198.85476 
L 143.744317 188.896399 
L 144.000809 198.85476 
L 144.257302 189.446772 
L 144.513794 189.380494 
L 144.770286 190.787453 
L 145.026779 188.948143 
L 145.283271 189.9745 
L 145.539763 198.85476 
L 145.796255 190.090112 
L 146.052748 198.85476 
L 146.30924 191.158487 
L 146.565732 191.482843 
L 146.822224 198.85476 
L 147.078717 189.780155 
L 147.335209 198.85476 
L 148.104686 198.85476 
L 148.361178 191.167883 
L 148.61767 189.716377 
L 148.874163 198.85476 
L 149.900132 198.85476 
L 150.156624 191.453692 
L 150.413116 198.85476 
L 150.669609 190.136387 
L 150.926101 198.85476 
L 151.182593 198.85476 
L 151.439086 190.736868 
L 151.695578 198.85476 
L 152.208562 198.85476 
L 152.465055 191.690067 
L 152.721547 190.144346 
L 152.978039 198.85476 
L 153.234531 190.580703 
L 153.491024 198.85476 
L 154.516993 198.85476 
L 154.773485 191.003168 
L 155.029977 198.85476 
L 155.799454 198.85476 
L 156.055947 191.270582 
L 156.312439 191.46904 
L 156.568931 191.835786 
L 156.825423 198.85476 
L 161.185792 198.85476 
L 161.442284 191.036496 
L 161.698777 191.829466 
L 161.955269 198.85476 
L 181.961667 198.85476 
L 182.218159 191.756293 
L 182.474651 198.85476 
L 188.117482 198.85476 
L 188.373974 191.832837 
L 188.630466 198.85476 
L 198.633665 198.85476 
L 198.890157 190.788445 
L 199.14665 198.85476 
L 201.968065 198.85476 
L 202.224557 191.633956 
L 202.481049 198.85476 
L 202.737541 198.85476 
L 202.994034 191.465557 
L 203.250526 198.85476 
L 203.763511 198.85476 
L 204.020003 190.186677 
L 204.276495 198.85476 
L 204.532987 191.098845 
L 204.78948 191.571694 
L 205.045972 198.85476 
L 205.302464 191.72155 
L 205.558957 198.85476 
L 205.815449 198.85476 
L 206.071941 191.5293 
L 206.328433 189.956954 
L 206.584926 190.883489 
L 206.841418 190.856406 
L 207.09791 198.85476 
L 207.354403 190.863982 
L 207.610895 191.252872 
L 207.867387 190.313568 
L 208.123879 190.327089 
L 208.380372 190.547806 
L 208.636864 190.516856 
L 208.893356 191.219965 
L 209.149848 190.708152 
L 209.406341 191.047054 
L 210.175818 190.989538 
L 210.43231 190.053473 
L 210.688802 191.424863 
L 210.945294 190.203371 
L 211.201787 191.113698 
L 211.458279 190.822766 
L 212.227756 191.587166 
L 212.484248 190.36384 
L 212.74074 191.520078 
L 213.253725 189.890738 
L 213.510217 189.551862 
L 214.023202 191.808113 
L 214.279694 191.158357 
L 214.536186 198.85476 
L 214.792679 189.604707 
L 215.049171 198.85476 
L 215.305663 190.927967 
L 215.562155 191.559021 
L 215.818648 198.85476 
L 216.07514 190.304342 
L 216.331632 191.511214 
L 216.588125 191.277516 
L 216.844617 191.338272 
L 217.101109 191.011317 
L 217.357601 198.85476 
L 217.614094 198.85476 
L 217.870586 190.428862 
L 218.127078 189.766419 
L 218.383571 191.135936 
L 218.640063 190.686601 
L 218.896555 190.683568 
L 219.153047 191.189715 
L 219.40954 190.954425 
L 219.666032 189.766419 
L 219.922524 198.85476 
L 220.179017 191.255929 
L 220.435509 198.85476 
L 220.692001 190.691384 
L 220.948493 191.505432 
L 221.204986 198.85476 
L 221.461478 198.85476 
L 221.71797 191.150625 
L 221.974462 198.85476 
L 222.230955 191.629666 
L 222.487447 198.85476 
L 223.256924 198.85476 
L 223.513416 191.693888 
L 223.769908 198.85476 
L 224.026401 198.85476 
L 224.282893 191.016174 
L 224.539385 198.85476 
L 274.042395 198.85476 
L 274.298888 191.778273 
L 274.55538 198.85476 
L 274.811872 198.85476 
L 275.068364 191.825653 
L 275.324857 198.85476 
L 276.094334 198.85476 
L 276.350826 191.641498 
L 276.607318 191.497596 
L 276.86381 198.85476 
L 278.402764 198.85476 
L 278.659256 191.839968 
L 278.915749 198.85476 
L 279.428733 198.85476 
L 279.685225 191.402961 
L 279.941718 191.669333 
L 280.19821 198.85476 
L 280.454702 198.85476 
L 280.711195 191.522186 
L 280.967687 198.85476 
L 281.224179 191.725742 
L 281.480671 191.644418 
L 281.737164 198.85476 
L 282.250148 198.85476 
L 282.506641 190.508471 
L 282.763133 191.805701 
L 283.019625 191.45712 
L 283.276117 191.58113 
L 283.53261 198.85476 
L 283.789102 198.85476 
L 284.045594 191.086035 
L 284.302086 198.85476 
L 284.815071 198.85476 
L 285.071563 191.429409 
L 285.328056 191.298141 
L 285.584548 198.85476 
L 285.84104 198.85476 
L 286.097532 191.798091 
L 286.354025 198.85476 
L 287.892978 198.85476 
L 288.149471 191.801165 
L 288.405963 198.85476 
L 333.292112 198.85476 
L 333.548604 191.709233 
L 333.805097 198.85476 
L 334.061589 198.85476 
L 334.318081 190.389287 
L 334.574573 191.780095 
L 334.831066 198.85476 
L 335.087558 198.85476 
L 335.34405 190.184672 
L 335.600542 189.669282 
L 335.857035 198.85476 
L 336.113527 198.85476 
L 336.370019 191.107763 
L 336.626512 198.85476 
L 337.139496 198.85476 
L 337.395988 190.609655 
L 337.652481 190.14538 
L 338.165465 190.820757 
L 338.421958 190.857456 
L 338.67845 189.817583 
L 338.934942 190.923623 
L 339.447927 190.265479 
L 340.217404 191.806373 
L 340.730388 188.826737 
L 340.98688 188.441501 
L 341.243373 190.933306 
L 341.499865 190.913547 
L 341.756357 189.592342 
L 342.012849 191.032208 
L 342.269342 189.392114 
L 342.525834 190.510238 
L 342.782326 189.734054 
L 343.295311 190.127211 
L 343.551803 190.018576 
L 343.808295 188.759907 
L 344.064788 198.85476 
L 344.32128 190.370071 
L 344.577772 187.029066 
L 344.834265 188.621699 
L 345.090757 188.643942 
L 345.347249 190.379324 
L 345.603741 189.887754 
L 345.860234 189.973091 
L 346.116726 188.643284 
L 346.373218 189.413535 
L 346.629711 191.472186 
L 346.886203 190.597746 
L 347.142695 190.775652 
L 347.399187 188.770452 
L 347.65568 189.557018 
L 347.912172 187.589728 
L 348.168664 189.082235 
L 348.425156 189.623213 
L 348.681649 190.777972 
L 348.938141 188.13695 
L 349.194633 188.425142 
L 349.451126 188.211203 
L 349.707618 188.698362 
L 349.96411 189.929281 
L 350.220602 188.06731 
L 350.477095 188.236797 
L 350.733587 188.264116 
L 350.990079 187.304685 
L 351.246572 189.802109 
L 351.503064 188.339876 
L 351.759556 198.85476 
L 352.016048 190.334343 
L 352.529033 188.534222 
L 352.785525 189.376375 
L 353.042018 189.605034 
L 353.29851 188.905962 
L 353.555002 190.413289 
L 353.811494 189.91095 
L 354.067987 190.846146 
L 354.324479 189.24629 
L 354.580971 190.608416 
L 354.837463 189.441831 
L 355.093956 189.148201 
L 355.350448 190.440332 
L 355.60694 189.634425 
L 355.863433 191.771622 
L 356.119925 189.180973 
L 356.376417 191.495877 
L 356.632909 191.735699 
L 356.889402 191.47823 
L 357.145894 190.650119 
L 357.402386 191.319597 
L 357.658879 189.467705 
L 357.915371 188.857816 
L 358.171863 198.85476 
L 358.428355 191.75047 
L 358.94134 188.751437 
L 359.197832 198.85476 
L 359.454325 191.060949 
L 359.710817 190.653527 
L 359.967309 189.58948 
L 360.223801 191.106456 
L 360.480294 191.473993 
L 360.736786 190.451811 
L 360.993278 190.022492 
L 361.24977 191.200849 
L 361.506263 190.507546 
L 361.762755 191.733231 
L 362.019247 198.85476 
L 362.27574 191.027251 
L 362.532232 191.542911 
L 362.788724 191.448504 
L 363.045216 191.75357 
L 363.301709 190.664601 
L 363.558201 198.85476 
L 363.814693 190.962993 
L 364.071186 198.85476 
L 364.327678 191.448111 
L 364.58417 198.85476 
L 364.840662 191.79718 
L 365.097155 198.85476 
L 365.610139 198.85476 
L 365.866632 190.369935 
L 366.123124 191.803573 
L 366.379616 190.792395 
L 366.636108 191.352501 
L 366.892601 198.85476 
L 368.431554 198.85476 
L 368.688047 191.70761 
L 368.944539 198.85476 
L 369.201031 191.438942 
L 369.457523 198.85476 
L 369.714016 191.253401 
L 369.970508 198.85476 
L 371.765954 198.85476 
L 372.022446 191.463332 
L 372.278939 198.85476 
L 480.005696 198.85476 
L 480.262188 191.473522 
L 480.518681 198.85476 
L 480.775173 191.808865 
L 481.031665 198.85476 
L 543.872274 198.85476 
L 544.128766 191.798479 
L 544.385258 198.85476 
L 600.044083 198.85476 
L 600.300575 191.539549 
L 600.557068 198.85476 
L 603.12199 198.85476 
L 603.378483 191.663131 
L 603.634975 198.85476 
L 606.199898 198.85476 
L 606.45639 191.609919 
L 606.712882 198.85476 
L 611.329743 198.85476 
L 611.586236 191.244495 
L 611.842728 198.85476 
L 668.527522 198.85476 
L 668.784014 191.707986 
L 669.040506 191.725803 
L 669.296999 198.85476 
L 669.809983 198.85476 
L 670.066475 191.781349 
L 670.322968 191.679087 
L 670.57946 198.85476 
L 676.735275 198.85476 
L 676.991767 191.768491 
L 677.248259 198.85476 
L 685.19952 198.85476 
L 685.19952 198.85476 
" clip-path="url(#p0cb4709f1a)" style="fill: none; stroke: #ff7f0e; stroke-width: 0.9; stroke-linecap: square"/>
   </g>
   <g id="patch_4">
    <path d="M 44.225313 198.85476 
L 44.225313 28.438677 
" style="fill: none; stroke: #000000; stroke-width: 0.6; stroke-linejoin: miter; stroke-linecap: square"/>
   </g>
   <g id="patch_5">
    <path d="M 44.225313 198.85476 
L 685.19952 198.85476 
" style="fill: none; stroke: #000000; stroke-width: 0.6; stroke-linejoin: miter; stroke-linecap: square"/>
   </g>
   <g id="line2d_14">
    <path d="M 44.225313 197.311708 
L 53.202542 197.311708 
L 53.459035 197.451985 
L 53.715527 197.311708 
L 57.819403 197.311708 
L 58.075896 197.451985 
L 58.332388 197.311708 
L 66.027156 197.311708 
L 66.283649 197.451985 
L 66.540141 197.381847 
L 66.796633 183.985348 
L 67.053125 185.738817 
L 67.309618 185.177707 
L 67.822602 185.247846 
L 68.079095 185.177707 
L 68.335587 184.967291 
L 68.592079 185.037429 
L 68.848571 184.967291 
L 69.87454 185.317984 
L 70.387525 185.668678 
L 70.644017 185.528401 
L 70.90051 185.528401 
L 71.413494 185.738817 
L 72.182971 185.879094 
L 72.439463 185.808955 
L 72.695956 185.949233 
L 73.465432 186.019372 
L 73.721925 186.08951 
L 74.234909 186.019372 
L 74.491402 186.229788 
L 74.747894 186.08951 
L 75.004386 186.229788 
L 75.260878 186.159649 
L 75.773863 186.229788 
L 76.799832 186.299927 
L 77.312817 186.370065 
L 77.825801 186.370065 
L 78.082293 186.510343 
L 78.595278 186.370065 
L 79.364755 186.510343 
L 79.621247 186.440204 
L 80.390724 186.580482 
L 80.647216 186.510343 
L 80.903709 186.65062 
L 82.442662 186.65062 
L 82.699154 186.510343 
L 83.212139 186.790898 
L 83.725124 186.720759 
L 84.4946 186.861036 
L 84.751093 186.790898 
L 85.007585 186.931175 
L 85.264077 186.790898 
L 85.52057 186.790898 
L 85.777062 186.931175 
L 86.290046 186.861036 
L 86.546539 187.071453 
L 86.803031 186.931175 
L 88.854969 186.931175 
L 89.111461 187.071453 
L 91.932877 187.071453 
L 92.189369 187.21173 
L 92.445861 187.001314 
L 92.958846 187.071453 
L 93.47183 187.071453 
L 93.728323 187.21173 
L 94.241307 187.071453 
L 94.497799 187.141591 
L 94.754292 187.071453 
L 95.523768 187.21173 
L 97.319214 187.141591 
L 97.575707 187.071453 
L 97.832199 187.21173 
L 98.088691 187.141591 
L 98.345184 197.311708 
L 99.11466 197.451985 
L 99.371153 197.381847 
L 99.884137 197.451985 
L 101.166599 197.381847 
L 101.423091 197.311708 
L 101.679583 197.451985 
L 101.936075 197.451985 
L 102.192568 197.311708 
L 102.44906 197.451985 
L 102.705552 197.451985 
L 102.962045 197.311708 
L 103.218537 197.451985 
L 103.475029 197.381847 
L 103.731521 197.451985 
L 103.988014 197.311708 
L 105.526967 197.381847 
L 106.039952 197.451985 
L 106.552937 197.381847 
L 106.809429 197.311708 
L 107.065921 197.451985 
L 107.322413 197.381847 
L 107.835398 197.451985 
L 108.604875 197.311708 
L 108.861367 197.381847 
L 109.117859 197.311708 
L 109.374352 197.451985 
L 110.143828 197.381847 
L 110.400321 197.311708 
L 110.656813 197.451985 
L 111.42629 197.311708 
L 111.682782 197.451985 
L 111.939274 197.451985 
L 112.195767 197.311708 
L 112.452259 197.311708 
L 112.708751 197.451985 
L 112.965244 197.311708 
L 113.478228 197.311708 
L 113.73472 197.451985 
L 113.991213 197.311708 
L 120.40352 197.311708 
L 120.660012 197.451985 
L 120.916504 197.311708 
L 132.202165 197.311708 
L 132.458657 197.451985 
L 132.715149 197.311708 
L 134.767087 197.381847 
L 135.02358 197.451985 
L 135.280072 177.25203 
L 135.536564 185.738817 
L 135.793056 185.668678 
L 136.049549 185.037429 
L 136.306041 185.247846 
L 136.562533 185.107568 
L 136.819026 185.247846 
L 137.33201 185.037429 
L 138.870964 185.528401 
L 139.127456 185.808955 
L 139.383948 185.668678 
L 140.153425 185.879094 
L 140.409917 185.808955 
L 140.922902 186.08951 
L 141.179394 185.949233 
L 142.461856 186.229788 
L 142.97484 186.299927 
L 143.487825 186.370065 
L 144.257302 186.370065 
L 144.513794 186.510343 
L 146.30924 186.510343 
L 146.565732 186.65062 
L 146.822224 186.580482 
L 147.335209 186.65062 
L 147.848194 186.65062 
L 148.104686 186.790898 
L 148.361178 186.65062 
L 149.130655 186.65062 
L 149.387147 186.790898 
L 149.64364 186.720759 
L 150.156624 186.790898 
L 150.413116 186.720759 
L 150.926101 186.790898 
L 152.208562 186.790898 
L 152.465055 186.931175 
L 156.568931 187.001314 
L 156.825423 187.071453 
L 157.5949 186.931175 
L 158.107885 187.141591 
L 158.364377 187.071453 
L 158.620869 187.141591 
L 159.133854 187.071453 
L 159.390346 187.141591 
L 159.646838 187.071453 
L 159.903331 187.141591 
L 160.416315 187.071453 
L 160.672808 187.21173 
L 160.9293 187.071453 
L 161.185792 187.21173 
L 161.442284 187.141591 
L 161.955269 187.21173 
L 164.520192 187.21173 
L 165.033176 197.451985 
L 166.828622 197.451985 
L 167.085115 197.311708 
L 167.341607 197.381847 
L 167.854591 197.311708 
L 168.367576 197.451985 
L 168.624068 197.311708 
L 168.880561 197.451985 
L 169.137053 197.311708 
L 169.393545 197.381847 
L 169.650037 197.311708 
L 169.90653 197.451985 
L 170.163022 197.381847 
L 170.419514 197.451985 
L 170.676006 197.311708 
L 170.932499 197.451985 
L 171.188991 197.311708 
L 171.445483 197.381847 
L 171.701976 197.311708 
L 171.958468 197.451985 
L 172.21496 197.381847 
L 172.727945 197.451985 
L 173.240929 197.311708 
L 174.010406 197.451985 
L 174.266898 197.311708 
L 174.523391 197.451985 
L 174.779883 197.381847 
L 175.292868 197.451985 
L 176.062344 197.311708 
L 176.318837 197.381847 
L 176.831821 197.311708 
L 177.088313 197.381847 
L 177.344806 197.311708 
L 177.85779 197.451985 
L 178.114283 197.311708 
L 178.627267 197.451985 
L 179.140252 197.381847 
L 179.653236 197.451985 
L 179.909729 197.311708 
L 180.166221 197.381847 
L 180.679205 197.311708 
L 180.935698 197.381847 
L 181.448682 197.311708 
L 181.961667 197.311708 
L 182.218159 197.451985 
L 182.474651 197.311708 
L 182.731144 197.451985 
L 183.244128 197.381847 
L 183.50062 197.451985 
L 183.757113 197.311708 
L 184.52659 197.381847 
L 184.783082 197.451985 
L 185.039574 197.311708 
L 185.296066 197.381847 
L 185.552559 197.311708 
L 185.809051 197.381847 
L 186.322036 197.311708 
L 187.348005 197.311708 
L 187.604497 197.451985 
L 187.860989 197.311708 
L 188.117482 197.311708 
L 188.373974 197.451985 
L 188.630466 197.381847 
L 188.886958 197.451985 
L 189.143451 197.311708 
L 189.399943 197.451985 
L 189.656435 197.311708 
L 190.682404 197.381847 
L 190.938897 197.451985 
L 191.195389 197.311708 
L 191.451881 197.451985 
L 191.708373 197.311708 
L 191.964866 197.381847 
L 192.221358 197.311708 
L 192.990835 197.451985 
L 193.247327 197.381847 
L 193.503819 197.451985 
L 193.760312 197.311708 
L 194.016804 197.381847 
L 194.273296 197.311708 
L 194.786281 197.381847 
L 195.042773 197.311708 
L 195.299265 197.381847 
L 195.81225 197.311708 
L 196.325234 197.451985 
L 196.838219 197.381847 
L 197.094711 197.451985 
L 197.351204 197.311708 
L 197.607696 197.381847 
L 197.864188 197.311708 
L 198.12068 197.381847 
L 198.633665 197.311708 
L 198.890157 197.451985 
L 199.14665 197.311708 
L 199.916126 197.451985 
L 200.172619 197.451985 
L 200.429111 197.311708 
L 201.711572 197.381847 
L 201.968065 197.451985 
L 202.224557 197.311708 
L 202.737541 197.381847 
L 202.994034 189.035337 
L 203.250526 185.388123 
L 203.507018 185.808955 
L 203.763511 185.317984 
L 204.020003 185.528401 
L 204.276495 185.107568 
L 204.532987 185.107568 
L 204.78948 185.247846 
L 205.045972 185.107568 
L 205.558957 185.107568 
L 206.328433 185.458262 
L 206.584926 185.388123 
L 206.841418 185.738817 
L 207.610895 185.808955 
L 207.867387 185.879094 
L 208.123879 185.808955 
L 209.662833 186.159649 
L 209.919325 186.08951 
L 210.175818 186.229788 
L 210.43231 186.159649 
L 211.458279 186.370065 
L 211.714771 186.299927 
L 212.74074 186.510343 
L 213.510217 186.510343 
L 213.76671 186.65062 
L 214.023202 186.580482 
L 214.536186 186.65062 
L 216.07514 186.720759 
L 216.588125 186.790898 
L 217.357601 186.861036 
L 217.870586 186.931175 
L 218.127078 186.861036 
L 218.383571 186.931175 
L 218.896555 186.790898 
L 219.153047 186.931175 
L 222.743939 187.001314 
L 223.256924 187.071453 
L 223.513416 187.071453 
L 223.769908 186.931175 
L 224.026401 187.071453 
L 226.334831 187.071453 
L 226.591324 187.21173 
L 226.847816 187.071453 
L 227.104308 187.21173 
L 230.6952 187.21173 
L 230.951692 197.451985 
L 231.208185 197.311708 
L 231.464677 197.311708 
L 231.721169 197.451985 
L 232.234154 197.451985 
L 232.490646 197.311708 
L 233.003631 197.381847 
L 233.516615 197.311708 
L 233.773107 197.381847 
L 234.0296 197.311708 
L 234.286092 197.451985 
L 234.542584 197.451985 
L 234.799076 197.311708 
L 235.055569 197.381847 
L 235.312061 197.311708 
L 235.568553 197.451985 
L 236.594522 197.451985 
L 236.851015 197.311708 
L 237.107507 197.451985 
L 237.876984 197.451985 
L 238.133476 197.311708 
L 238.389968 197.451985 
L 238.902953 197.451985 
L 239.159445 197.311708 
L 239.928922 197.381847 
L 240.185414 197.451985 
L 240.698399 197.311708 
L 240.954891 197.381847 
L 241.467876 197.311708 
L 242.237353 197.311708 
L 242.493845 197.451985 
L 242.750337 197.451985 
L 243.006829 197.311708 
L 243.263322 197.311708 
L 243.519814 197.451985 
L 243.776306 197.381847 
L 244.289291 197.451985 
L 244.545783 197.311708 
L 244.802275 197.451985 
L 245.058768 197.311708 
L 245.31526 197.311708 
L 245.571752 197.451985 
L 245.828245 197.311708 
L 246.084737 197.381847 
L 246.341229 197.311708 
L 246.597721 197.381847 
L 246.854214 197.311708 
L 247.367198 197.381847 
L 247.62369 197.311708 
L 248.393167 197.451985 
L 248.64966 197.311708 
L 250.188613 197.311708 
L 250.445106 197.451985 
L 250.95809 197.311708 
L 251.471075 197.451985 
L 251.727567 197.311708 
L 252.753536 197.381847 
L 253.266521 197.451985 
L 253.779505 197.311708 
L 254.035997 197.381847 
L 254.29249 197.311708 
L 254.548982 197.381847 
L 255.061967 197.311708 
L 255.318459 197.311708 
L 255.574951 197.451985 
L 255.831443 197.311708 
L 256.344428 197.311708 
L 256.60092 197.451985 
L 256.857413 197.311708 
L 257.626889 197.381847 
L 257.883382 197.451985 
L 258.139874 197.311708 
L 258.396366 197.451985 
L 258.909351 197.381847 
L 259.422335 197.451985 
L 261.217781 197.451985 
L 261.474274 197.311708 
L 263.013227 197.381847 
L 263.26972 197.451985 
L 263.526212 197.311708 
L 264.039196 197.451985 
L 264.295689 197.311708 
L 264.552181 197.451985 
L 264.808673 197.311708 
L 265.321658 197.451985 
L 265.57815 197.311708 
L 266.347627 197.451985 
L 266.604119 197.311708 
L 266.860611 197.381847 
L 267.373596 197.311708 
L 267.630088 197.381847 
L 268.143073 197.311708 
L 268.399565 197.451985 
L 268.656057 197.311708 
L 268.91255 197.381847 
L 269.425534 185.388123 
L 269.682027 185.738817 
L 269.938519 184.967291 
L 270.451503 185.458262 
L 270.964488 185.177707 
L 272.246949 185.247846 
L 273.272918 185.738817 
L 273.529411 185.668678 
L 273.785903 185.808955 
L 274.55538 185.879094 
L 275.581349 186.08951 
L 276.094334 186.159649 
L 276.86381 186.370065 
L 277.120303 186.229788 
L 278.146272 186.510343 
L 278.402764 186.370065 
L 279.172241 186.510343 
L 279.685225 186.510343 
L 279.941718 186.65062 
L 280.19821 186.65062 
L 280.454702 186.510343 
L 280.967687 186.790898 
L 281.224179 186.65062 
L 281.480671 186.720759 
L 281.993656 186.65062 
L 282.250148 186.790898 
L 283.53261 186.861036 
L 283.789102 181.460354 
L 284.045594 186.790898 
L 284.302086 186.931175 
L 284.558579 186.790898 
L 284.815071 186.931175 
L 286.867009 186.931175 
L 287.123502 187.071453 
L 287.379994 186.931175 
L 288.149471 187.071453 
L 290.970886 187.071453 
L 291.227378 187.21173 
L 291.48387 187.071453 
L 292.509839 187.071453 
L 292.766332 187.21173 
L 293.022824 187.141591 
L 293.535809 187.21173 
L 295.331255 187.21173 
L 295.587747 187.352008 
L 296.100731 197.451985 
L 299.948116 197.381847 
L 300.204608 197.311708 
L 300.4611 197.381847 
L 300.717592 197.311708 
L 300.974085 197.381847 
L 301.487069 197.311708 
L 302.256546 197.451985 
L 303.026023 197.451985 
L 303.282515 197.311708 
L 303.7955 197.311708 
L 304.051992 197.451985 
L 305.077961 197.381847 
L 305.590946 197.311708 
L 305.847438 197.381847 
L 306.10393 197.311708 
L 306.360423 197.451985 
L 306.616915 197.311708 
L 309.951314 197.381847 
L 310.207807 197.451985 
L 310.464299 197.381847 
L 310.720791 197.451985 
L 310.977284 197.311708 
L 311.233776 197.381847 
L 311.74676 197.311708 
L 312.003253 197.381847 
L 312.259745 197.311708 
L 312.516237 197.451985 
L 312.77273 197.381847 
L 313.285714 197.451985 
L 313.542206 197.451985 
L 313.798699 197.311708 
L 314.568176 197.311708 
L 314.824668 197.451985 
L 315.594145 197.381847 
L 315.850637 197.311708 
L 316.107129 197.451985 
L 316.363621 197.311708 
L 317.133098 197.451985 
L 317.389591 197.381847 
L 317.902575 197.451985 
L 318.672052 197.311708 
L 318.928544 197.311708 
L 319.185037 197.451985 
L 319.441529 197.311708 
L 319.698021 197.381847 
L 319.954513 197.311708 
L 320.211006 197.381847 
L 320.467498 197.311708 
L 320.72399 197.451985 
L 320.980483 197.381847 
L 321.236975 197.451985 
L 321.493467 197.311708 
L 323.032421 197.311708 
L 323.288913 197.451985 
L 323.545405 197.311708 
L 323.801898 197.381847 
L 324.314882 197.311708 
L 324.571374 197.381847 
L 324.827867 197.311708 
L 325.340851 197.451985 
L 325.597344 197.311708 
L 327.136297 197.311708 
L 327.39279 197.451985 
L 327.649282 197.311708 
L 329.188235 197.311708 
L 329.444728 197.451985 
L 329.70122 197.381847 
L 330.214205 197.451985 
L 330.470697 197.311708 
L 331.240174 197.381847 
L 331.496666 197.451985 
L 332.266143 197.311708 
L 332.522635 197.451985 
L 332.779127 197.311708 
L 334.318081 197.311708 
L 334.831066 185.528401 
L 335.087558 185.598539 
L 335.34405 185.317984 
L 335.600542 185.388123 
L 336.883004 185.107568 
L 337.139496 185.247846 
L 337.652481 185.317984 
L 338.421958 185.808955 
L 338.67845 185.668678 
L 340.473896 186.08951 
L 341.499865 186.08951 
L 341.756357 186.229788 
L 342.012849 179.917302 
L 342.269342 186.229788 
L 342.525834 186.229788 
L 343.038819 186.510343 
L 343.295311 186.370065 
L 344.064788 186.370065 
L 344.32128 186.510343 
L 344.834265 186.510343 
L 345.090757 186.65062 
L 345.347249 186.510343 
L 345.860234 186.580482 
L 346.373218 186.65062 
L 347.399187 186.65062 
L 347.65568 186.790898 
L 348.168664 186.720759 
L 348.425156 186.790898 
L 348.938141 186.720759 
L 349.451126 186.861036 
L 349.707618 186.790898 
L 349.96411 186.931175 
L 350.477095 186.790898 
L 351.246572 186.931175 
L 353.042018 186.931175 
L 353.29851 187.071453 
L 353.555002 186.931175 
L 355.60694 187.001314 
L 356.119925 187.071453 
L 359.197832 187.141591 
L 359.710817 187.21173 
L 359.967309 187.071453 
L 360.223801 187.141591 
L 360.480294 197.381847 
L 360.736786 197.311708 
L 361.506263 197.451985 
L 361.762755 197.451985 
L 362.019247 197.311708 
L 362.27574 197.451985 
L 362.532232 197.311708 
L 363.301709 197.311708 
L 363.558201 197.451985 
L 363.814693 197.311708 
L 364.071186 197.451985 
L 364.327678 197.311708 
L 364.58417 197.381847 
L 364.840662 197.311708 
L 365.097155 197.451985 
L 365.353647 197.311708 
L 365.610139 197.451985 
L 365.866632 197.311708 
L 366.636108 197.381847 
L 366.892601 197.451985 
L 367.662077 197.311708 
L 369.457523 197.381847 
L 369.714016 197.451985 
L 370.227 197.311708 
L 370.483493 197.381847 
L 370.996477 197.311708 
L 371.509462 197.381847 
L 372.022446 197.311708 
L 373.5614 197.311708 
L 373.817892 197.451985 
L 374.587369 197.311708 
L 375.613338 197.381847 
L 375.86983 197.451985 
L 376.126323 197.311708 
L 376.382815 197.311708 
L 376.639307 197.451985 
L 377.408784 197.311708 
L 383.051614 197.311708 
L 383.308107 197.451985 
L 383.564599 197.311708 
L 384.334076 197.381847 
L 384.590568 197.451985 
L 384.84706 197.311708 
L 389.720414 197.381847 
L 389.976906 197.451985 
L 390.48989 197.311708 
L 390.746383 197.451985 
L 391.002875 197.311708 
L 391.259367 197.451985 
L 391.51586 197.311708 
L 395.363244 197.311708 
L 395.619736 197.451985 
L 396.389213 197.311708 
L 397.415182 197.381847 
L 397.671674 197.451985 
L 397.928166 197.311708 
L 398.184659 197.311708 
L 398.441151 197.451985 
L 398.954136 197.311708 
L 399.46712 185.668678 
L 399.723612 185.528401 
L 399.980105 185.177707 
L 400.493089 185.458262 
L 400.749582 185.247846 
L 401.006074 185.247846 
L 401.262566 185.037429 
L 402.545028 185.458262 
L 402.80152 185.668678 
L 403.058012 185.668678 
L 403.314504 185.808955 
L 403.827489 185.808955 
L 404.083981 185.949233 
L 404.596966 186.019372 
L 405.366443 186.159649 
L 405.879427 186.08951 
L 406.135919 186.299927 
L 406.392412 186.229788 
L 407.161889 186.370065 
L 407.418381 186.370065 
L 407.674873 186.510343 
L 407.931365 186.440204 
L 408.44435 186.510343 
L 408.957335 186.510343 
L 409.213827 186.65062 
L 409.470319 186.510343 
L 409.983304 186.720759 
L 410.239796 186.580482 
L 410.75278 186.65062 
L 411.009273 186.580482 
L 411.522257 186.65062 
L 412.035242 186.720759 
L 412.291734 186.790898 
L 412.548226 186.65062 
L 412.804719 186.790898 
L 413.061211 186.790898 
L 413.317703 186.931175 
L 413.574196 186.861036 
L 414.08718 186.931175 
L 414.343672 186.931175 
L 414.600165 187.071453 
L 414.856657 186.931175 
L 415.113149 187.001314 
L 415.626134 186.861036 
L 415.882626 186.931175 
L 416.139118 186.790898 
L 416.395611 186.931175 
L 417.934564 186.931175 
L 418.191057 187.071453 
L 418.447549 187.001314 
L 418.960533 187.141591 
L 419.473518 186.931175 
L 419.73001 187.071453 
L 420.499487 187.141591 
L 420.755979 187.21173 
L 421.268964 187.141591 
L 421.781949 187.21173 
L 422.038441 187.071453 
L 422.294933 187.21173 
L 424.090379 187.21173 
L 424.603364 197.311708 
L 424.859856 197.451985 
L 425.37284 197.381847 
L 425.885825 197.451985 
L 426.655302 197.381847 
L 427.168286 197.311708 
L 428.70724 197.381847 
L 428.963732 197.451985 
L 429.220225 197.311708 
L 429.733209 197.451985 
L 429.989701 197.311708 
L 430.246194 197.451985 
L 430.502686 197.451985 
L 430.759178 197.311708 
L 433.067609 197.311708 
L 433.324101 197.451985 
L 433.580593 197.311708 
L 433.837086 197.381847 
L 434.35007 197.311708 
L 434.606563 197.381847 
L 435.119547 197.311708 
L 435.632532 197.311708 
L 435.889024 197.451985 
L 436.145516 197.311708 
L 436.914993 197.311708 
L 437.171485 197.451985 
L 437.427978 197.311708 
L 437.940962 197.451985 
L 438.197454 197.381847 
L 438.453947 197.451985 
L 439.223424 197.311708 
L 441.01887 197.311708 
L 441.275362 197.451985 
L 441.531854 197.311708 
L 441.788346 197.381847 
L 442.301331 197.311708 
L 442.557823 197.451985 
L 443.070808 197.311708 
L 443.3273 197.451985 
L 443.583792 197.311708 
L 443.840285 197.381847 
L 444.353269 197.311708 
L 447.174684 197.311708 
L 447.431177 197.451985 
L 447.687669 197.311708 
L 447.944161 197.451985 
L 448.200653 197.311708 
L 451.278561 197.311708 
L 451.535053 197.451985 
L 451.791545 197.311708 
L 454.61296 197.381847 
L 454.869453 197.451985 
L 455.125945 197.311708 
L 457.177883 197.381847 
L 457.434375 197.451985 
L 457.690868 197.311708 
L 457.94736 196.540182 
L 458.203852 197.311708 
L 461.538252 197.381847 
L 461.794744 197.451985 
L 462.051236 197.311708 
L 462.820713 197.381847 
L 463.077206 197.451985 
L 463.333698 197.311708 
L 463.846682 185.388123 
L 464.103175 185.598539 
L 464.359667 185.528401 
L 464.872652 185.247846 
L 465.129144 185.247846 
L 465.385636 185.107568 
L 465.642128 185.177707 
L 466.155113 185.107568 
L 466.92459 185.528401 
L 467.181082 185.528401 
L 467.437574 185.738817 
L 467.694067 185.668678 
L 468.976528 185.949233 
L 469.489513 186.019372 
L 470.002497 186.08951 
L 470.258989 186.08951 
L 470.515482 186.229788 
L 470.771974 186.159649 
L 471.541451 186.299927 
L 471.797943 186.229788 
L 472.054435 186.370065 
L 472.310928 186.370065 
L 472.56742 186.510343 
L 473.080405 186.370065 
L 473.336897 186.510343 
L 474.362866 186.580482 
L 474.87585 186.65062 
L 475.645327 186.720759 
L 475.90182 186.510343 
L 476.671296 186.65062 
L 477.697266 186.720759 
L 478.21025 186.931175 
L 478.466742 186.790898 
L 478.979727 186.861036 
L 479.492712 186.931175 
L 479.749204 186.790898 
L 480.005696 186.861036 
L 480.262188 186.790898 
L 481.031665 186.931175 
L 481.288157 186.861036 
L 481.54465 186.931175 
L 481.801142 186.861036 
L 482.314127 187.071453 
L 482.570619 186.931175 
L 483.083603 187.001314 
L 483.340096 187.071453 
L 483.596588 186.931175 
L 483.85308 187.071453 
L 484.109573 187.001314 
L 484.366065 187.071453 
L 484.622557 187.001314 
L 485.135542 187.071453 
L 485.905019 187.071453 
L 486.161511 187.21173 
L 486.418003 187.071453 
L 486.674495 187.141591 
L 487.18748 187.071453 
L 487.956957 187.141591 
L 488.213449 187.21173 
L 488.726434 197.381847 
L 488.982926 197.311708 
L 489.239418 197.451985 
L 489.752403 197.451985 
L 490.008895 197.311708 
L 490.265387 197.451985 
L 491.034864 197.311708 
L 495.651725 197.381847 
L 495.908217 197.451985 
L 496.16471 197.311708 
L 496.421202 197.451985 
L 497.190679 197.311708 
L 497.960156 197.311708 
L 498.216648 197.451985 
L 498.47314 197.311708 
L 498.986125 197.381847 
L 499.242617 197.451985 
L 500.012094 197.311708 
L 500.525078 197.311708 
L 500.781571 197.451985 
L 501.551048 197.311708 
L 501.80754 197.381847 
L 502.320524 197.311708 
L 503.346494 197.311708 
L 503.602986 197.451985 
L 504.11597 197.381847 
L 504.372463 197.311708 
L 504.628955 197.451985 
L 504.885447 197.311708 
L 505.398432 197.451985 
L 505.654924 197.311708 
L 505.911416 197.381847 
L 506.424401 197.311708 
L 506.680893 197.451985 
L 507.193878 197.381847 
L 507.706862 197.311708 
L 509.245816 197.311708 
L 509.502308 197.451985 
L 510.271785 197.311708 
L 512.323723 197.381847 
L 512.580216 197.451985 
L 512.836708 197.311708 
L 513.0932 197.451985 
L 513.606185 197.311708 
L 513.862677 197.451985 
L 514.119169 197.311708 
L 514.375662 197.451985 
L 514.632154 197.311708 
L 522.326922 197.311708 
L 522.583415 197.451985 
L 522.839907 197.311708 
L 523.096399 197.451985 
L 523.352891 197.311708 
L 523.609384 197.381847 
L 524.122368 197.311708 
L 524.37886 197.381847 
L 524.635353 197.311708 
L 524.891845 197.451985 
L 525.148337 197.311708 
L 525.40483 197.381847 
L 525.917814 197.311708 
L 526.174306 197.381847 
L 526.687291 197.311708 
L 527.969752 197.311708 
L 528.482737 185.528401 
L 528.739229 185.738817 
L 528.995722 185.317984 
L 529.252214 185.528401 
L 529.508706 185.177707 
L 531.04766 185.247846 
L 531.817137 185.668678 
L 532.330121 185.668678 
L 532.586613 185.808955 
L 532.843106 185.738817 
L 534.382059 186.08951 
L 535.408029 186.08951 
L 535.664521 186.229788 
L 536.433998 186.299927 
L 536.946982 186.440204 
L 537.203474 186.370065 
L 537.459967 186.510343 
L 537.972951 186.440204 
L 538.229444 186.510343 
L 538.485936 186.440204 
L 538.99892 186.510343 
L 539.768397 186.580482 
L 540.281382 186.65062 
L 540.537874 186.580482 
L 541.050859 186.65062 
L 541.307351 186.580482 
L 542.076828 186.790898 
L 542.33332 186.720759 
L 542.589812 186.790898 
L 542.846305 186.65062 
L 543.102797 186.790898 
L 543.359289 186.720759 
L 543.872274 186.790898 
L 545.411227 186.861036 
L 545.924212 186.931175 
L 547.97615 186.931175 
L 548.232643 187.071453 
L 551.31055 187.141591 
L 551.567042 187.21173 
L 551.823534 187.071453 
L 552.593011 187.21173 
L 552.849504 187.21173 
L 553.105996 187.071453 
L 553.362488 197.031153 
L 553.61898 197.381847 
L 553.875473 197.311708 
L 554.388457 197.451985 
L 555.157934 197.311708 
L 555.670919 197.311708 
L 555.927411 197.451985 
L 556.183903 197.311708 
L 557.466365 197.311708 
L 557.722857 197.451985 
L 557.979349 197.311708 
L 558.235841 197.311708 
L 558.492334 195.768656 
L 558.748826 197.451985 
L 559.005318 197.311708 
L 561.057257 197.311708 
L 561.313749 197.451985 
L 562.083226 197.311708 
L 562.339718 197.381847 
L 562.59621 197.311708 
L 562.852702 197.381847 
L 563.109195 197.311708 
L 563.365687 197.451985 
L 564.135164 197.311708 
L 566.443594 197.311708 
L 566.700087 197.451985 
L 566.956579 197.311708 
L 574.394855 197.311708 
L 574.651347 197.451985 
L 574.90784 197.311708 
L 575.164332 197.381847 
L 575.677316 197.311708 
L 576.446793 197.451985 
L 576.703286 197.311708 
L 576.959778 197.311708 
L 577.21627 197.451985 
L 577.472762 197.311708 
L 579.524701 197.311708 
L 579.781193 197.451985 
L 580.037685 197.311708 
L 580.294178 197.451985 
L 580.55067 197.311708 
L 580.807162 197.451985 
L 581.063654 197.311708 
L 582.089623 197.311708 
L 582.346116 197.451985 
L 582.602608 197.311708 
L 584.911039 197.311708 
L 585.167531 197.451985 
L 585.937008 197.311708 
L 586.1935 197.381847 
L 586.706485 197.311708 
L 586.962977 197.311708 
L 587.219469 197.451985 
L 587.475961 197.311708 
L 589.271407 197.311708 
L 589.5279 197.451985 
L 590.297376 197.311708 
L 591.83633 197.311708 
L 592.092822 197.451985 
L 592.349315 197.311708 
L 593.631776 197.311708 
L 593.888268 185.317984 
L 594.144761 185.808955 
L 594.401253 185.177707 
L 594.914237 185.317984 
L 595.940207 185.037429 
L 597.47916 185.528401 
L 597.735653 185.808955 
L 598.761622 185.808955 
L 599.018114 185.949233 
L 599.274606 185.949233 
L 599.787591 186.159649 
L 600.044083 186.08951 
L 600.300575 186.229788 
L 600.557068 186.159649 
L 601.583037 186.370065 
L 602.609006 186.370065 
L 602.865498 186.510343 
L 604.660944 186.580482 
L 604.917436 186.65062 
L 605.173929 186.580482 
L 605.943406 186.720759 
L 606.45639 186.65062 
L 606.712882 186.790898 
L 606.969375 186.65062 
L 607.225867 186.790898 
L 607.482359 186.720759 
L 607.995344 186.790898 
L 608.764821 186.790898 
L 609.021313 186.931175 
L 609.277805 186.790898 
L 610.047282 186.931175 
L 611.586236 187.001314 
L 611.842728 187.071453 
L 612.09922 186.931175 
L 612.868697 186.931175 
L 613.125189 187.071453 
L 616.716081 187.141591 
L 617.229066 187.21173 
L 617.74205 187.141591 
L 617.998543 187.21173 
L 618.255035 197.381847 
L 618.511527 197.311708 
L 618.76802 197.451985 
L 619.024512 197.381847 
L 619.537496 197.451985 
L 619.793989 197.311708 
L 620.306973 197.311708 
L 620.563465 197.451985 
L 620.819958 197.311708 
L 623.897865 197.381847 
L 624.154357 197.451985 
L 624.41085 197.311708 
L 627.232265 197.311708 
L 627.488757 197.451985 
L 627.745249 197.311708 
L 628.001742 197.311708 
L 628.258234 197.451985 
L 628.514726 197.311708 
L 628.771218 197.451985 
L 629.027711 197.311708 
L 631.849126 197.311708 
L 632.105618 197.451985 
L 632.875095 197.311708 
L 635.953002 197.311708 
L 636.209495 197.451985 
L 636.465987 197.311708 
L 636.722479 197.381847 
L 636.978971 197.311708 
L 637.235464 197.381847 
L 637.748448 197.311708 
L 639.287402 197.311708 
L 639.543894 197.451985 
L 639.800386 197.311708 
L 640.313371 197.311708 
L 640.569863 197.451985 
L 640.826356 197.311708 
L 641.595832 197.311708 
L 641.852325 197.451985 
L 642.621802 197.311708 
L 642.878294 197.381847 
L 643.134786 197.311708 
L 643.647771 197.451985 
L 643.904263 197.311708 
L 646.98217 197.381847 
L 647.495155 197.451985 
L 647.751647 197.311708 
L 648.008139 197.451985 
L 648.777616 197.451985 
L 649.034109 197.311708 
L 649.290601 197.311708 
L 649.547093 197.451985 
L 650.060078 197.311708 
L 650.31657 197.451985 
L 650.573062 197.311708 
L 650.829554 197.451985 
L 651.086047 197.311708 
L 651.342539 197.451985 
L 652.112016 197.311708 
L 653.907462 197.381847 
L 654.163954 197.451985 
L 654.676939 197.311708 
L 655.189923 197.451985 
L 655.446416 197.311708 
L 655.702908 197.451985 
L 656.215892 197.311708 
L 656.728877 197.451985 
L 657.241861 197.381847 
L 657.754846 197.451985 
L 658.267831 197.451985 
L 658.524323 197.311708 
L 658.780815 197.311708 
L 659.037307 111.461897 
L 659.2938 185.528401 
L 659.550292 185.668678 
L 659.806784 185.177707 
L 660.063277 185.528401 
L 660.319769 185.247846 
L 660.576261 185.388123 
L 660.832753 185.107568 
L 661.089246 185.247846 
L 661.60223 185.107568 
L 661.858723 185.177707 
L 662.371707 185.528401 
L 662.884692 185.668678 
L 663.141184 185.879094 
L 663.654168 185.808955 
L 663.910661 185.949233 
L 664.423645 185.949233 
L 664.680138 186.08951 
L 665.449614 186.159649 
L 665.962599 186.229788 
L 666.475584 186.229788 
L 666.732076 186.370065 
L 667.758045 186.370065 
L 668.014537 186.510343 
L 669.040506 186.510343 
L 669.296999 186.65062 
L 669.553491 186.65062 
L 669.809983 186.510343 
L 670.066475 186.65062 
L 671.861921 186.65062 
L 672.118414 186.790898 
L 674.683337 186.861036 
L 674.939829 186.931175 
L 675.196321 186.790898 
L 675.452813 186.931175 
L 676.991767 187.001314 
L 677.248259 187.071453 
L 678.017736 186.931175 
L 678.274228 187.141591 
L 678.787213 187.071453 
L 679.043705 187.21173 
L 679.300198 187.071453 
L 680.069674 187.21173 
L 680.326167 187.21173 
L 680.582659 187.071453 
L 680.839151 187.21173 
L 682.378105 187.281869 
L 682.634597 187.352008 
L 682.891089 187.281869 
L 683.404074 197.451985 
L 685.19952 197.381847 
L 685.19952 197.381847 
" clip-path="url(#p0cb4709f1a)" style="fill: none; stroke: #2ca02c; stroke-width: 0.9; stroke-linecap: square"/>
   </g>
   <g id="text_15">
    <text style="font-size: 10px; font-family: 'Helvetica', 'Arial', 'DejaVu Sans', sans-serif; text-anchor: start" x="44.225313" y="22.438677" transform="rotate(-0 44.225313 22.438677)">CNN1D — fridge</text>
   </g>
   <g id="axes_2">
    <g id="patch_6">
     <path d="M 57.044797 100.013432 
L 210.940165 100.013432 
L 210.940165 35.255321 
L 57.044797 35.255321 
z
" style="fill: #ffffff"/>
    </g>
    <g id="matplotlib.axis_3"/>
    <g id="matplotlib.axis_4"/>
    <g id="line2d_15">
     <path d="M 57.044797 100.013432 
L 59.096735 100.013432 
L 59.507123 80.321183 
L 59.91751 100.013432 
L 69.766814 100.013432 
L 70.177201 76.603828 
L 70.587589 79.57508 
L 70.997977 100.013432 
L 72.639527 100.013432 
L 73.049915 78.986318 
L 73.460303 100.013432 
L 75.512241 100.013432 
L 75.922628 78.017833 
L 76.333016 100.013432 
L 78.384954 100.013432 
L 78.795342 77.672747 
L 79.20573 77.986907 
L 79.616117 79.846128 
L 80.026505 79.189321 
L 80.436893 100.013432 
L 80.84728 80.470671 
L 81.257668 76.033101 
L 81.668056 100.013432 
L 82.078443 80.653366 
L 82.488831 100.013432 
L 83.309606 100.013432 
L 83.719994 78.534078 
L 84.130381 100.013432 
L 84.540769 79.357827 
L 84.951157 75.314277 
L 85.361544 80.055437 
L 85.771932 73.232052 
L 86.18232 77.531547 
L 86.592707 77.69915 
L 87.003095 79.772798 
L 87.413483 70.859057 
L 87.82387 100.013432 
L 88.234258 100.013432 
L 88.644646 75.460253 
L 89.055033 73.05513 
L 89.465421 73.586828 
L 89.875808 73.404945 
L 90.286196 100.013432 
L 90.696584 77.44206 
L 91.106971 75.001254 
L 91.517359 74.239128 
L 91.927747 72.092345 
L 92.338134 75.573846 
L 92.748522 100.013432 
L 93.15891 77.649699 
L 93.569297 72.208666 
L 93.979685 77.120954 
L 94.390073 100.013432 
L 94.80046 77.532193 
L 95.210848 100.013432 
L 95.621236 75.47481 
L 96.031623 77.211168 
L 96.442011 75.157745 
L 96.852398 75.022574 
L 97.262786 79.32131 
L 97.673174 76.641266 
L 98.083561 77.165201 
L 98.904337 76.064993 
L 99.314724 78.073319 
L 99.725112 78.502709 
L 100.1355 80.143665 
L 100.545887 79.263532 
L 100.956275 100.013432 
L 101.366663 100.013432 
L 101.77705 78.300704 
L 102.187438 100.013432 
L 102.597826 70.78586 
L 103.008213 100.013432 
L 103.418601 100.013432 
L 103.828989 79.01145 
L 104.239376 79.458705 
L 104.649764 74.23692 
L 105.060151 77.154263 
L 105.470539 75.447773 
L 105.880927 100.013432 
L 107.11209 100.013432 
L 107.522477 79.429042 
L 107.932865 80.253758 
L 108.343253 100.013432 
L 115.73023 100.013432 
L 116.140618 77.005676 
L 116.551006 100.013432 
L 116.961393 79.396818 
L 117.371781 100.013432 
L 118.602944 100.013432 
L 119.013331 79.442312 
L 119.423719 80.869058 
L 119.834107 100.013432 
L 124.758759 100.013432 
L 125.169146 78.028191 
L 125.579534 100.013432 
L 129.273023 100.013432 
L 129.68341 79.411137 
L 130.093798 100.013432 
L 134.197674 100.013432 
L 134.608062 77.485008 
L 135.01845 100.013432 
L 135.839225 100.013432 
L 136.249613 78.36946 
L 136.66 100.013432 
L 162.514422 100.013432 
L 162.92481 80.509185 
L 163.335197 100.013432 
L 166.207911 100.013432 
L 166.618299 77.921284 
L 167.028686 100.013432 
L 167.439074 76.956278 
L 167.849462 100.013432 
L 171.54295 100.013432 
L 171.953338 77.435943 
L 172.363726 80.782977 
L 172.774113 100.013432 
L 173.184501 100.013432 
L 173.594889 80.392936 
L 174.005276 80.185581 
L 174.415664 75.431292 
L 174.826052 77.418586 
L 175.236439 100.013432 
L 175.646827 79.445796 
L 176.057215 79.359955 
L 176.467602 79.092626 
L 176.87799 77.198034 
L 177.288377 100.013432 
L 178.51954 100.013432 
L 178.929928 78.361504 
L 179.340316 76.065232 
L 179.750703 100.013432 
L 180.161091 72.875251 
L 180.571479 100.013432 
L 180.981866 74.37511 
L 181.392254 74.19449 
L 181.802642 78.028688 
L 182.213029 73.016264 
L 182.623417 75.813255 
L 183.033805 100.013432 
L 183.444192 76.128318 
L 183.85458 100.013432 
L 184.264967 79.039815 
L 184.675355 79.923739 
L 185.085743 100.013432 
L 185.49613 75.283632 
L 185.906518 100.013432 
L 187.137681 100.013432 
L 187.548069 79.065423 
L 187.958456 75.109829 
L 188.368844 100.013432 
L 190.010395 100.013432 
L 190.420782 79.844299 
L 190.83117 100.013432 
L 191.241557 76.254424 
L 191.651945 100.013432 
L 192.062333 100.013432 
L 192.47272 77.890834 
L 192.883108 100.013432 
L 193.703883 100.013432 
L 194.114271 80.48846 
L 194.524659 76.276114 
L 194.935046 100.013432 
L 195.345434 77.465258 
L 195.755822 100.013432 
L 197.397372 100.013432 
L 197.80776 78.616547 
L 198.218148 100.013432 
L 199.44931 100.013432 
L 199.859698 79.345294 
L 200.270086 79.886124 
L 200.680473 80.885569 
L 201.090861 100.013432 
L 208.067451 100.013432 
L 208.477839 78.707371 
L 208.888226 80.868344 
L 209.298614 100.013432 
L 210.940165 100.013432 
L 210.940165 100.013432 
" clip-path="url(#p3513851be2)" style="fill: none; stroke: #ff7f0e; stroke-width: 0.9; stroke-linecap: square"/>
    </g>
    <g id="patch_7">
     <path d="M 57.044797 100.013432 
L 57.044797 35.255321 
" style="fill: none; stroke: #000000; stroke-width: 0.6; stroke-linejoin: miter; stroke-linecap: square"/>
    </g>
    <g id="patch_8">
     <path d="M 57.044797 100.013432 
L 210.940165 100.013432 
" style="fill: none; stroke: #000000; stroke-width: 0.6; stroke-linejoin: miter; stroke-linecap: square"/>
    </g>
    <g id="line2d_16">
     <path d="M 57.044797 59.491828 
L 57.455184 64.270319 
L 57.865572 62.741202 
L 58.27596 62.932341 
L 58.686347 62.932341 
L 59.096735 62.741202 
L 59.507123 62.167783 
L 59.91751 62.358922 
L 60.327898 62.167783 
L 60.738285 62.358922 
L 61.148673 62.358922 
L 61.559061 62.550062 
L 62.379836 63.6969 
L 62.790224 64.079179 
L 63.200611 63.6969 
L 63.610999 63.6969 
L 64.021387 64.079179 
L 64.842162 64.461458 
L 65.25255 64.461458 
L 65.662937 64.652598 
L 66.073325 64.461458 
L 66.483713 64.843738 
L 67.304488 64.843738 
L 68.125263 65.226017 
L 68.535651 65.034877 
L 68.946038 65.034877 
L 69.356426 65.608296 
L 69.766814 65.226017 
L 70.177201 65.608296 
L 70.587589 65.417157 
L 70.997977 65.608296 
L 71.818752 65.608296 
L 72.22914 65.799436 
L 72.639527 65.608296 
L 73.460303 65.990576 
L 74.691466 65.990576 
L 75.101853 66.372855 
L 75.922628 65.990576 
L 76.743404 66.372855 
L 77.153791 66.372855 
L 77.564179 66.181715 
L 77.974567 66.372855 
L 78.384954 66.372855 
L 78.795342 66.563994 
L 79.20573 66.372855 
L 79.616117 66.755134 
L 80.026505 66.755134 
L 80.436893 66.946274 
L 80.84728 66.946274 
L 81.257668 66.755134 
L 81.668056 66.946274 
L 82.078443 66.755134 
L 82.488831 66.372855 
L 82.899218 66.946274 
L 83.309606 67.137413 
L 83.719994 66.946274 
L 84.130381 66.946274 
L 84.951157 67.328553 
L 85.361544 67.328553 
L 85.771932 67.137413 
L 86.18232 67.519693 
L 86.592707 67.137413 
L 87.003095 67.137413 
L 87.413483 67.519693 
L 87.82387 67.519693 
L 88.234258 67.328553 
L 88.644646 67.901972 
L 89.055033 67.519693 
L 89.875808 67.519693 
L 90.286196 67.710832 
L 90.696584 67.519693 
L 92.338134 67.519693 
L 92.748522 67.901972 
L 93.15891 67.901972 
L 93.569297 67.710832 
L 93.979685 67.901972 
L 94.390073 67.901972 
L 94.80046 67.710832 
L 95.210848 67.901972 
L 95.621236 67.710832 
L 96.031623 68.093112 
L 96.442011 67.901972 
L 97.262786 67.901972 
L 97.673174 68.284251 
L 98.083561 67.710832 
L 98.493949 67.901972 
L 99.725112 67.901972 
L 100.1355 68.284251 
L 100.956275 67.901972 
L 101.366663 68.093112 
L 101.77705 67.901972 
L 102.187438 68.093112 
L 102.597826 68.093112 
L 103.008213 68.284251 
L 104.239376 68.284251 
L 104.649764 68.093112 
L 105.060151 68.284251 
L 105.470539 68.284251 
L 106.291314 67.901972 
L 106.701702 68.284251 
L 107.11209 68.093112 
L 107.522477 95.80836 
L 108.343253 96.190639 
L 108.75364 96.190639 
L 109.164028 95.9995 
L 109.574416 96.190639 
L 110.395191 96.190639 
L 110.805579 95.9995 
L 111.215966 95.9995 
L 111.626354 96.190639 
L 112.447129 95.80836 
L 112.857517 96.190639 
L 113.267904 96.190639 
L 113.678292 95.80836 
L 114.08868 96.190639 
L 114.499067 96.190639 
L 114.909455 95.80836 
L 115.319843 96.190639 
L 115.73023 95.9995 
L 116.140618 96.190639 
L 116.551006 95.80836 
L 116.961393 95.80836 
L 117.371781 95.9995 
L 117.782169 95.9995 
L 118.192556 95.80836 
L 118.602944 95.9995 
L 119.013331 95.9995 
L 119.423719 96.190639 
L 120.244494 96.190639 
L 121.06527 95.80836 
L 121.475657 96.190639 
L 121.886045 95.9995 
L 122.296433 96.190639 
L 122.70682 96.190639 
L 123.527596 95.80836 
L 123.937983 95.80836 
L 124.348371 95.9995 
L 124.758759 95.80836 
L 125.169146 96.190639 
L 125.989921 96.190639 
L 126.810697 95.80836 
L 127.221084 96.190639 
L 128.04186 95.80836 
L 128.452247 95.80836 
L 128.862635 96.190639 
L 129.273023 96.190639 
L 129.68341 95.80836 
L 130.093798 95.80836 
L 130.504186 96.190639 
L 130.914573 95.80836 
L 131.735349 95.80836 
L 132.145736 96.190639 
L 132.556124 95.80836 
L 133.376899 95.80836 
L 133.787287 95.9995 
L 134.197674 95.80836 
L 140.353489 95.80836 
L 140.763877 95.9995 
L 141.174264 95.80836 
L 142.815815 95.80836 
L 143.226203 96.190639 
L 143.63659 95.80836 
L 145.688529 95.80836 
L 146.098916 95.9995 
L 146.509304 95.80836 
L 149.792405 95.80836 
L 150.202793 95.9995 
L 150.61318 95.80836 
L 151.023568 95.80836 
L 151.433956 95.9995 
L 151.844343 95.80836 
L 161.693647 95.80836 
L 162.104035 96.190639 
L 162.514422 95.80836 
L 165.387136 95.80836 
L 166.207911 96.190639 
L 166.618299 41.142422 
L 167.028686 64.270319 
L 167.439074 64.079179 
L 167.849462 62.358922 
L 168.259849 62.932341 
L 168.670237 62.550062 
L 169.080625 62.932341 
L 169.491012 62.550062 
L 169.9014 62.358922 
L 170.311787 62.550062 
L 170.722175 62.550062 
L 171.54295 62.932341 
L 172.363726 63.6969 
L 172.774113 64.461458 
L 173.184501 64.079179 
L 174.415664 64.652598 
L 174.826052 64.461458 
L 175.646827 65.226017 
L 176.057215 64.843738 
L 176.87799 65.226017 
L 177.288377 65.226017 
L 177.698765 65.608296 
L 178.51954 65.608296 
L 179.340316 65.990576 
L 180.981866 65.990576 
L 181.392254 66.372855 
L 181.802642 66.372855 
L 182.213029 66.181715 
L 182.623417 66.372855 
L 184.264967 66.372855 
L 184.675355 66.755134 
L 185.085743 66.563994 
L 185.49613 66.755134 
L 186.727293 66.755134 
L 187.137681 67.137413 
L 187.548069 66.755134 
L 187.958456 66.755134 
L 188.368844 66.563994 
L 188.779232 66.755134 
L 189.189619 67.137413 
L 189.600007 66.946274 
L 190.010395 67.137413 
L 190.420782 67.137413 
L 190.83117 66.946274 
L 191.241557 67.137413 
L 192.47272 67.137413 
L 192.883108 66.946274 
L 193.293496 67.137413 
L 193.703883 67.137413 
L 194.114271 67.519693 
L 200.270086 67.519693 
L 201.090861 67.901972 
L 201.501249 67.710832 
L 201.911636 67.710832 
L 202.322024 67.519693 
L 202.732412 67.901972 
L 203.142799 68.093112 
L 203.553187 67.901972 
L 203.963575 68.093112 
L 204.373962 67.901972 
L 204.78435 67.901972 
L 205.194738 68.093112 
L 205.605125 67.901972 
L 206.015513 68.093112 
L 206.4259 67.901972 
L 206.836288 67.901972 
L 207.246676 68.284251 
L 207.657063 67.901972 
L 208.067451 68.284251 
L 208.477839 68.093112 
L 208.888226 68.284251 
L 210.940165 68.284251 
L 210.940165 68.284251 
" clip-path="url(#p3513851be2)" style="fill: none; stroke: #2ca02c; stroke-width: 0.9; stroke-linecap: square"/>
    </g>
   </g>
  </g>
  <g id="patch_9">
   <path d="M 66.796633 174.01162 
Q 61.920715 137.012526 57.044797 100.013432 
" style="fill: none; opacity: 0.9; stroke: #595959; stroke-width: 0.5; stroke-linecap: round"/>
  </g>
  <g id="patch_10">
   <path d="M 162.981238 174.01162 
Q 186.960701 137.012526 210.940165 100.013432 
" style="fill: none; opacity: 0.9; stroke: #595959; stroke-width: 0.5; stroke-linecap: round"/>
  </g>
  <g id="legend_1">
   <g id="line2d_17">
    <path d="M 270.00601 13.67875 
L 278.00601 13.67875 
L 286.00601 13.67875 
" style="fill: none; stroke: #ff7f0e; stroke-width: 0.9; stroke-linecap: square"/>
   </g>
   <g id="text_16">
    <text style="font-size: 8px; font-family: 'Helvetica', 'Arial', 'DejaVu Sans', sans-serif; text-anchor: start" x="292.40601" y="16.47875" transform="rotate(-0 292.40601 16.47875)">Prediction</text>
   </g>
   <g id="line2d_18">
    <path d="M 348.14476 13.67875 
L 356.14476 13.67875 
L 364.14476 13.67875 
" style="fill: none; stroke: #2ca02c; stroke-width: 0.9; stroke-linecap: square"/>
   </g>
   <g id="text_17">
    <text style="font-size: 8px; font-family: 'Helvetica', 'Arial', 'DejaVu Sans', sans-serif; text-anchor: start" x="370.54476" y="16.47875" transform="rotate(-0 370.54476 16.47875)">Ground-Truth</text>
   </g>
  </g>
 </g>
 <defs>
  <clipPath id="p0cb4709f1a">
   <rect x="44.225313" y="28.438677" width="640.974207" height="170.416083"/>
  </clipPath>
  <clipPath id="p3513851be2">
   <rect x="57.044797" y="35.255321" width="153.895368" height="64.758111"/>
  </clipPath>
 </defs>
</svg>
