<?xml version="1.0" encoding="utf-8" standalone="no"?>
<!DOCTYPE svg PUBLIC "-//W3C//DTD SVG 1.1//EN"
  "http://www.w3.org/Graphics/SVG/1.1/DTD/svg11.dtd">
<svg xmlns:xlink="http://www.w3.org/1999/xlink" width="692.39952pt" height="232.03976pt" viewBox="0 0 692.39952 232.03976" xmlns="http://www.w3.org/2000/svg" version="1.1">
 <metadata>
  <rdf:RDF xmlns:dc="http://purl.org/dc/elements/1.1/" xmlns:cc="http://creativecommons.org/ns#" xmlns:rdf="http://www.w3.org/1999/02/22-rdf-syntax-ns#">
   <cc:Work>
    <dc:type rdf:resource="http://purl.org/dc/dcmitype/StillImage"/>
    <dc:date>2026-05-25T06:05:55.258810</dc:date>
    <dc:format>image/svg+xml</dc:format>
    <dc:creator>
     <cc:Agent>
      <dc:title>Matplotlib v3.10.9, https://matplotlib.org/</dc:title>
     </cc:Agent>
    </dc:creator>
   </cc:Work>
  </rdf:RDF>
 </metadata>
 <defs>
  <style type="text/css">*{stroke-linejoin: round; stroke-linecap: butt}</style>
 </defs>
 <g id="figure_1">
  <g id="patch_1">
   <path d="M 0 232.03976 
L 692.39952 232.03976 
L 692.39952 0 
L 0 0 
z
" style="fill: #ffffff"/>
  </g>
  <g id="axes_1">
   <g id="patch_2">
    <path d="M 37.5425 198.85476 
L 685.19952 198.85476 
L 685.19952 28.438677 
L 37.5425 28.438677 
z
" style="fill: #ffffff"/>
   </g>
   <g id="patch_3">
    <path d="M 60.34915 198.85476 
L 157.536578 198.85476 
L 157.536578 98.352968 
L 60.34915 98.352968 
L 60.34915 198.85476 
z
" clip-path="url(#p110598a62f)" style="fill: none; stroke: #595959; stroke-width: 0.5; stroke-linejoin: miter"/>
   </g>
   <g id="matplotlib.axis_1">
    <g id="xtick_1">
     <g id="line2d_1">
      <defs>
       <path id="m799ad867d3" d="M 0 0 
L 0 3 
" style="stroke: #000000; stroke-width: 0.6"/>
      </defs>
      <g>
       <use xlink:href="#m799ad867d3" x="37.5425" y="198.85476" style="stroke: #000000; stroke-width: 0.6"/>
      </g>
     </g>
     <g id="text_1">
      <text style="font-size: 7px; font-family: 'Helvetica', 'Arial', 'DejaVu Sans', sans-serif; text-anchor: middle" x="37.5425" y="210.673666" transform="rotate(-0 37.5425 210.673666)">0</text>
     </g>
    </g>
    <g id="xtick_2">
     <g id="line2d_2">
      <g>
       <use xlink:href="#m799ad867d3" x="167.125737" y="198.85476" style="stroke: #000000; stroke-width: 0.6"/>
      </g>
     </g>
     <g id="text_2">
      <text style="font-size: 7px; font-family: 'Helvetica', 'Arial', 'DejaVu Sans', sans-serif; text-anchor: middle" x="167.125737" y="210.673666" transform="rotate(-0 167.125737 210.673666)">500</text>
     </g>
    </g>
    <g id="xtick_3">
     <g id="line2d_3">
      <g>
       <use xlink:href="#m799ad867d3" x="296.708975" y="198.85476" style="stroke: #000000; stroke-width: 0.6"/>
      </g>
     </g>
     <g id="text_3">
      <text style="font-size: 7px; font-family: 'Helvetica', 'Arial', 'DejaVu Sans', sans-serif; text-anchor: middle" x="296.708975" y="210.673666" transform="rotate(-0 296.708975 210.673666)">1000</text>
     </g>
    </g>
    <g id="xtick_4">
     <g id="line2d_4">
      <g>
       <use xlink:href="#m799ad867d3" x="426.292212" y="198.85476" style="stroke: #000000; stroke-width: 0.6"/>
      </g>
     </g>
     <g id="text_4">
      <text style="font-size: 7px; font-family: 'Helvetica', 'Arial', 'DejaVu Sans', sans-serif; text-anchor: middle" x="426.292212" y="210.673666" transform="rotate(-0 426.292212 210.673666)">1500</text>
     </g>
    </g>
    <g id="xtick_5">
     <g id="line2d_5">
      <g>
       <use xlink:href="#m799ad867d3" x="555.875449" y="198.85476" style="stroke: #000000; stroke-width: 0.6"/>
      </g>
     </g>
     <g id="text_5">
      <text style="font-size: 7px; font-family: 'Helvetica', 'Arial', 'DejaVu Sans', sans-serif; text-anchor: middle" x="555.875449" y="210.673666" transform="rotate(-0 555.875449 210.673666)">2000</text>
     </g>
    </g>
    <g id="text_6">
     <text style="font-size: 9px; font-family: 'Helvetica', 'Arial', 'DejaVu Sans', sans-serif; text-anchor: middle" x="361.37101" y="222.968041" transform="rotate(-0 361.37101 222.968041)">Sampling points</text>
    </g>
   </g>
   <g id="matplotlib.axis_2">
    <g id="ytick_1">
     <g id="line2d_6">
      <defs>
       <path id="m9a1496fd8d" d="M 0 0 
L -3 0 
" style="stroke: #000000; stroke-width: 0.6"/>
      </defs>
      <g>
       <use xlink:href="#m9a1496fd8d" x="37.5425" y="198.85476" style="stroke: #000000; stroke-width: 0.6"/>
      </g>
     </g>
     <g id="text_7">
      <text style="font-size: 7px; font-family: 'Helvetica', 'Arial', 'DejaVu Sans', sans-serif; text-anchor: end" x="31.0425" y="201.514213" transform="rotate(-0 31.0425 201.514213)">0.0</text>
     </g>
    </g>
    <g id="ytick_2">
     <g id="line2d_7">
      <g>
       <use xlink:href="#m9a1496fd8d" x="37.5425" y="178.16388" style="stroke: #000000; stroke-width: 0.6"/>
      </g>
     </g>
     <g id="text_8">
      <text style="font-size: 7px; font-family: 'Helvetica', 'Arial', 'DejaVu Sans', sans-serif; text-anchor: end" x="31.0425" y="180.823334" transform="rotate(-0 31.0425 180.823334)">0.2</text>
     </g>
    </g>
    <g id="ytick_3">
     <g id="line2d_8">
      <g>
       <use xlink:href="#m9a1496fd8d" x="37.5425" y="157.473001" style="stroke: #000000; stroke-width: 0.6"/>
      </g>
     </g>
     <g id="text_9">
      <text style="font-size: 7px; font-family: 'Helvetica', 'Arial', 'DejaVu Sans', sans-serif; text-anchor: end" x="31.0425" y="160.132454" transform="rotate(-0 31.0425 160.132454)">0.4</text>
     </g>
    </g>
    <g id="ytick_4">
     <g id="line2d_9">
      <g>
       <use xlink:href="#m9a1496fd8d" x="37.5425" y="136.782121" style="stroke: #000000; stroke-width: 0.6"/>
      </g>
     </g>
     <g id="text_10">
      <text style="font-size: 7px; font-family: 'Helvetica', 'Arial', 'DejaVu Sans', sans-serif; text-anchor: end" x="31.0425" y="139.441574" transform="rotate(-0 31.0425 139.441574)">0.6</text>
     </g>
    </g>
    <g id="ytick_5">
     <g id="line2d_10">
      <g>
       <use xlink:href="#m9a1496fd8d" x="37.5425" y="116.091242" style="stroke: #000000; stroke-width: 0.6"/>
      </g>
     </g>
     <g id="text_11">
      <text style="font-size: 7px; font-family: 'Helvetica', 'Arial', 'DejaVu Sans', sans-serif; text-anchor: end" x="31.0425" y="118.750695" transform="rotate(-0 31.0425 118.750695)">0.8</text>
     </g>
    </g>
    <g id="ytick_6">
     <g id="line2d_11">
      <g>
       <use xlink:href="#m9a1496fd8d" x="37.5425" y="95.400362" style="stroke: #000000; stroke-width: 0.6"/>
      </g>
     </g>
     <g id="text_12">
      <text style="font-size: 7px; font-family: 'Helvetica', 'Arial', 'DejaVu Sans', sans-serif; text-anchor: end" x="31.0425" y="98.059815" transform="rotate(-0 31.0425 98.059815)">1.0</text>
     </g>
    </g>
    <g id="ytick_7">
     <g id="line2d_12">
      <g>
       <use xlink:href="#m9a1496fd8d" x="37.5425" y="74.709482" style="stroke: #000000; stroke-width: 0.6"/>
      </g>
     </g>
     <g id="text_13">
      <text style="font-size: 7px; font-family: 'Helvetica', 'Arial', 'DejaVu Sans', sans-serif; text-anchor: end" x="31.0425" y="77.368935" transform="rotate(-0 31.0425 77.368935)">1.2</text>
     </g>
    </g>
    <g id="ytick_8">
     <g id="line2d_13">
      <g>
       <use xlink:href="#m9a1496fd8d" x="37.5425" y="54.018603" style="stroke: #000000; stroke-width: 0.6"/>
      </g>
     </g>
     <g id="text_14">
      <text style="font-size: 7px; font-family: 'Helvetica', 'Arial', 'DejaVu Sans', sans-serif; text-anchor: end" x="31.0425" y="56.678056" transform="rotate(-0 31.0425 56.678056)">1.4</text>
     </g>
    </g>
    <g id="ytick_9">
     <g id="line2d_14">
      <g>
       <use xlink:href="#m9a1496fd8d" x="37.5425" y="33.327723" style="stroke: #000000; stroke-width: 0.6"/>
      </g>
     </g>
     <g id="text_15">
      <text style="font-size: 7px; font-family: 'Helvetica', 'Arial', 'DejaVu Sans', sans-serif; text-anchor: end" x="31.0425" y="35.987176" transform="rotate(-0 31.0425 35.987176)">1.6</text>
     </g>
    </g>
    <g id="text_16">
     <text style="font-size: 9px; font-family: 'Helvetica', 'Arial', 'DejaVu Sans', sans-serif; text-anchor: middle" x="14.038594" y="113.646719" transform="rotate(-90 14.038594 113.646719)">Power (kW)</text>
    </g>
   </g>
   <g id="line2d_15">
    <path d="M 37.5425 164.067745 
L 37.801666 198.85476 
L 38.060833 198.85476 
L 38.319999 159.829038 
L 38.579166 187.696256 
L 38.838332 198.85476 
L 39.097499 198.85476 
L 39.356665 189.446934 
L 39.874998 198.85476 
L 40.652498 198.85476 
L 40.911664 166.038825 
L 41.170831 198.85476 
L 41.689164 177.980387 
L 41.94833 198.85476 
L 42.207497 198.85476 
L 42.725829 158.073063 
L 42.984996 198.85476 
L 43.244162 186.433526 
L 43.503329 198.85476 
L 44.021662 198.85476 
L 44.280828 193.481825 
L 44.539995 198.85476 
L 44.799161 178.008781 
L 45.058328 198.85476 
L 45.317494 152.065406 
L 45.576661 191.210683 
L 45.835827 189.058802 
L 46.094994 169.772554 
L 46.35416 198.85476 
L 47.13166 198.85476 
L 47.390826 187.922695 
L 47.649993 155.351832 
L 47.909159 198.85476 
L 48.168325 177.05648 
L 48.686658 198.85476 
L 49.982491 198.85476 
L 50.241657 181.741406 
L 50.500824 198.85476 
L 50.75999 198.85476 
L 51.019157 186.463224 
L 51.278323 189.73106 
L 51.53749 198.85476 
L 51.796656 192.432434 
L 52.055823 174.822008 
L 52.314989 193.638465 
L 52.574156 198.85476 
L 53.351655 198.85476 
L 53.610821 171.024678 
L 53.869988 198.85476 
L 54.129154 165.422247 
L 54.388321 198.85476 
L 54.647487 188.392817 
L 54.906654 157.795513 
L 55.16582 153.889999 
L 55.424987 198.85476 
L 56.202486 198.85476 
L 56.461653 160.39519 
L 56.720819 198.85476 
L 56.979986 173.701046 
L 57.239152 198.85476 
L 57.498319 183.949056 
L 57.757485 182.152221 
L 58.016651 198.85476 
L 58.275818 169.107169 
L 58.534984 198.85476 
L 59.312484 198.85476 
L 59.57165 168.49963 
L 59.830817 173.695547 
L 60.089983 198.85476 
L 60.608316 198.85476 
L 60.867483 160.875769 
L 61.126649 198.85476 
L 62.422482 198.85476 
L 62.681648 177.533588 
L 62.940815 198.85476 
L 63.199981 169.870893 
L 63.459147 198.85476 
L 63.718314 185.25274 
L 63.97748 198.85476 
L 64.495813 198.85476 
L 64.75498 181.467014 
L 65.014146 198.85476 
L 66.050812 198.85476 
L 66.569145 159.057986 
L 66.828312 198.85476 
L 67.087478 177.530667 
L 67.346645 198.85476 
L 67.605811 187.966012 
L 67.864978 198.85476 
L 68.124144 198.85476 
L 68.38331 167.016663 
L 68.642477 188.369636 
L 68.901643 198.85476 
L 69.16081 162.579676 
L 69.419976 198.85476 
L 69.679143 164.495969 
L 70.197476 198.85476 
L 70.974975 198.85476 
L 71.234142 164.250293 
L 71.493308 198.85476 
L 71.752475 198.85476 
L 72.011641 182.823169 
L 72.270808 198.85476 
L 72.529974 159.995081 
L 72.789141 198.85476 
L 73.048307 198.85476 
L 73.307473 150.175497 
L 73.56664 151.007025 
L 73.825806 198.85476 
L 74.084973 168.528184 
L 74.344139 198.85476 
L 74.603306 175.796307 
L 75.121639 198.85476 
L 75.639972 198.85476 
L 75.899138 141.898662 
L 76.158305 175.863122 
L 76.417471 142.7541 
L 76.676638 156.80546 
L 76.935804 198.85476 
L 77.194971 181.993977 
L 77.454137 198.85476 
L 77.713304 198.85476 
L 77.97247 137.677162 
L 78.231637 198.85476 
L 78.490803 198.85476 
L 78.749969 167.81522 
L 79.009136 198.85476 
L 79.268302 198.85476 
L 79.527469 191.350445 
L 79.786635 198.85476 
L 80.045802 198.85476 
L 80.564135 168.386101 
L 80.823301 198.85476 
L 81.082468 167.337476 
L 81.341634 158.692833 
L 81.600801 191.090626 
L 81.859967 163.832188 
L 82.119134 198.85476 
L 82.896633 198.85476 
L 83.1558 173.406547 
L 83.414966 167.265994 
L 83.674132 198.85476 
L 83.933299 187.929311 
L 84.192465 171.297433 
L 84.451632 198.85476 
L 84.969965 198.85476 
L 85.229131 165.561441 
L 85.488298 198.85476 
L 85.747464 198.85476 
L 86.006631 156.568491 
L 86.265797 184.532699 
L 86.524964 198.85476 
L 86.78413 161.600666 
L 87.043297 198.85476 
L 87.302463 177.503096 
L 87.56163 198.85476 
L 88.079963 198.85476 
L 88.339129 176.797121 
L 88.598295 198.85476 
L 89.116628 150.264021 
L 89.375795 191.450165 
L 89.634961 198.85476 
L 90.930794 198.85476 
L 91.18996 179.331577 
L 91.449127 198.85476 
L 91.708293 134.736636 
L 91.96746 134.435561 
L 92.226626 198.85476 
L 92.485793 127.359632 
L 92.744959 179.432226 
L 93.004126 198.85476 
L 93.263292 198.85476 
L 93.522459 151.653934 
L 93.781625 187.316371 
L 94.040791 198.85476 
L 94.299958 198.85476 
L 94.559124 167.447532 
L 94.818291 121.204228 
L 95.077457 190.135547 
L 95.336624 182.698762 
L 95.59579 183.485676 
L 95.854957 177.833144 
L 96.114123 135.204075 
L 96.37329 151.554341 
L 96.632456 184.333653 
L 96.891623 188.380812 
L 97.150789 198.85476 
L 97.409956 160.14983 
L 97.669122 188.831041 
L 97.928289 162.94146 
L 98.187455 198.85476 
L 98.446622 198.85476 
L 98.705788 156.999876 
L 99.224121 198.85476 
L 99.483287 156.367701 
L 99.742454 198.85476 
L 100.519953 198.85476 
L 100.77912 164.273861 
L 101.038286 198.85476 
L 101.297453 198.85476 
L 101.556619 168.742363 
L 101.815786 191.982838 
L 102.074952 171.124375 
L 102.334119 198.85476 
L 102.593285 174.567765 
L 103.111618 198.85476 
L 103.629951 198.85476 
L 103.889117 185.102735 
L 104.148284 142.793709 
L 104.40745 190.007976 
L 104.666617 184.660874 
L 104.925783 182.816946 
L 105.18495 163.065281 
L 105.444116 198.85476 
L 106.221616 198.85476 
L 106.480782 154.503252 
L 106.739949 198.85476 
L 106.999115 198.85476 
L 107.258282 130.009249 
L 107.517448 198.85476 
L 107.776615 163.910344 
L 108.035781 165.855519 
L 108.294948 198.85476 
L 108.554114 198.85476 
L 108.813281 145.553455 
L 109.072447 186.069378 
L 109.331613 198.85476 
L 109.59078 172.198687 
L 109.849946 132.927933 
L 110.109113 180.806869 
L 110.368279 198.85476 
L 110.627446 179.67172 
L 110.886612 198.85476 
L 111.145779 198.85476 
L 111.404945 170.472481 
L 111.664112 179.940686 
L 111.923278 158.496757 
L 112.182445 191.73361 
L 112.441611 188.803172 
L 112.700778 182.783567 
L 112.959944 198.85476 
L 113.219111 198.85476 
L 113.478277 172.75725 
L 113.737444 198.85476 
L 114.255776 198.85476 
L 114.514943 154.097097 
L 114.774109 186.134259 
L 115.033276 198.85476 
L 115.292442 167.046915 
L 115.551609 180.268386 
L 116.069942 173.455835 
L 116.329108 190.87079 
L 116.588275 198.85476 
L 116.847441 198.85476 
L 117.106608 159.235069 
L 117.365774 198.85476 
L 117.624941 173.273204 
L 117.884107 192.078584 
L 118.143274 192.552472 
L 118.40244 198.85476 
L 119.439106 198.85476 
L 119.698272 167.734804 
L 119.957439 198.85476 
L 120.216605 181.182152 
L 120.475772 198.85476 
L 120.994105 157.721354 
L 121.253271 198.85476 
L 121.512438 164.641758 
L 121.771604 156.957323 
L 122.030771 198.85476 
L 122.289937 198.85476 
L 122.549104 183.730979 
L 122.80827 189.750479 
L 123.067437 198.85476 
L 123.326603 198.85476 
L 123.58577 179.156251 
L 123.844936 198.85476 
L 124.363269 198.85476 
L 124.622435 190.530261 
L 124.881602 198.85476 
L 125.140768 198.85476 
L 125.399935 185.194764 
L 125.659101 160.255892 
L 125.918268 198.85476 
L 126.436601 111.461897 
L 126.695767 192.964116 
L 126.954934 155.675762 
L 127.2141 198.85476 
L 127.473267 198.85476 
L 127.732433 172.942565 
L 127.9916 198.85476 
L 128.250766 151.814101 
L 128.769099 192.520278 
L 129.287432 175.223419 
L 129.546598 159.785453 
L 129.805765 198.85476 
L 130.583264 198.85476 
L 130.842431 149.079837 
L 131.101597 198.85476 
L 131.360764 179.133012 
L 131.61993 198.85476 
L 131.879097 150.478397 
L 132.138263 198.85476 
L 132.39743 198.85476 
L 132.656596 182.760491 
L 132.915763 193.054231 
L 133.174929 182.330858 
L 133.434096 198.85476 
L 133.693262 159.570175 
L 133.952429 189.926097 
L 134.211595 131.157369 
L 134.470761 169.646958 
L 134.729928 148.052093 
L 134.989094 198.85476 
L 135.248261 157.265764 
L 135.507427 198.85476 
L 135.766594 198.85476 
L 136.284927 185.878237 
L 136.544093 198.85476 
L 136.80326 177.88131 
L 137.062426 198.85476 
L 137.321593 179.006342 
L 137.580759 198.85476 
L 137.839926 198.85476 
L 138.099092 183.858086 
L 138.358259 198.85476 
L 138.617425 198.85476 
L 138.876592 185.876577 
L 139.135758 198.85476 
L 139.394925 198.85476 
L 139.654091 187.620192 
L 139.913257 198.85476 
L 140.172424 180.51608 
L 140.43159 183.391972 
L 140.690757 198.85476 
L 140.949923 187.690209 
L 141.20909 198.85476 
L 141.986589 198.85476 
L 142.245756 138.955598 
L 142.504922 198.85476 
L 143.800755 198.85476 
L 144.059921 161.312647 
L 144.319088 198.85476 
L 144.578254 198.85476 
L 144.83742 179.005159 
L 145.355753 170.048608 
L 145.61492 198.85476 
L 145.874086 181.072331 
L 146.133253 178.807174 
L 146.392419 154.792503 
L 146.651586 190.860675 
L 146.910752 198.85476 
L 147.429085 198.85476 
L 147.688252 191.821493 
L 147.947418 198.85476 
L 148.465751 198.85476 
L 148.724918 179.388924 
L 148.984084 148.666679 
L 149.243251 198.85476 
L 149.502417 182.713059 
L 149.761583 186.308167 
L 150.02075 160.029257 
L 150.539083 186.358216 
L 150.798249 183.075649 
L 151.057416 198.85476 
L 151.316582 186.743287 
L 151.575749 198.85476 
L 151.834915 178.029083 
L 152.094082 185.185608 
L 152.353248 198.85476 
L 152.612415 165.370684 
L 152.871581 198.85476 
L 153.908247 198.85476 
L 154.167414 192.681231 
L 154.42658 198.85476 
L 154.944913 182.484582 
L 155.204079 198.85476 
L 156.240745 198.85476 
L 156.499912 166.808425 
L 156.759078 167.309639 
L 157.018245 187.570752 
L 157.536578 131.955302 
L 157.795744 198.85476 
L 158.054911 172.332226 
L 158.314077 198.85476 
L 158.83241 161.675413 
L 159.091577 198.85476 
L 159.350743 198.85476 
L 159.60991 168.750506 
L 159.869076 198.85476 
L 160.128242 158.637845 
L 160.387409 169.953731 
L 160.646575 198.85476 
L 161.164908 198.85476 
L 161.424075 159.151246 
L 161.683241 170.079321 
L 161.942408 198.85476 
L 162.460741 143.905326 
L 162.719907 198.85476 
L 162.979074 182.086082 
L 163.23824 198.85476 
L 164.01574 198.85476 
L 164.274906 179.192408 
L 164.534073 198.85476 
L 164.793239 141.061802 
L 165.052405 198.85476 
L 165.311572 171.421178 
L 165.570738 175.00434 
L 165.829905 198.85476 
L 166.348238 198.85476 
L 166.607404 163.24052 
L 166.866571 198.85476 
L 167.125737 198.85476 
L 167.384904 191.747312 
L 167.64407 189.95039 
L 167.903237 198.85476 
L 168.162403 184.520294 
L 168.42157 198.85476 
L 168.939903 198.85476 
L 169.199069 191.100876 
L 169.458236 147.551365 
L 169.717402 198.85476 
L 169.976569 186.752732 
L 170.235735 198.85476 
L 170.494901 188.086365 
L 170.754068 158.145852 
L 171.013234 198.85476 
L 171.272401 193.34051 
L 171.531567 152.440447 
L 172.0499 198.85476 
L 172.309067 190.503304 
L 172.568233 191.48706 
L 172.8274 198.85476 
L 173.086566 198.85476 
L 173.345733 189.276479 
L 173.604899 198.85476 
L 174.123232 198.85476 
L 174.382399 174.913664 
L 174.641565 198.85476 
L 174.900732 171.887345 
L 175.159898 198.85476 
L 175.419064 198.85476 
L 175.678231 181.144706 
L 175.937397 198.85476 
L 176.196564 160.347712 
L 176.45573 198.85476 
L 176.714897 198.85476 
L 176.974063 192.403202 
L 177.23323 181.420954 
L 177.492396 198.85476 
L 177.751563 198.85476 
L 178.010729 183.392186 
L 178.269896 198.85476 
L 178.529062 172.988461 
L 178.788229 198.85476 
L 179.047395 172.966729 
L 179.306562 198.85476 
L 179.565728 187.10511 
L 179.824895 182.395697 
L 180.084061 198.85476 
L 180.343227 181.142494 
L 180.602394 198.85476 
L 180.86156 189.534207 
L 181.120727 198.85476 
L 181.898226 198.85476 
L 182.157393 173.98121 
L 182.416559 188.642112 
L 182.675726 186.227002 
L 182.934892 172.910444 
L 183.194059 198.85476 
L 183.712392 198.85476 
L 183.971558 187.231002 
L 184.230725 198.85476 
L 184.489891 192.767241 
L 184.749058 198.85476 
L 185.008224 180.347282 
L 185.267391 198.85476 
L 185.526557 175.618581 
L 185.785723 191.449908 
L 186.04489 182.797062 
L 186.304056 168.545236 
L 186.563223 170.96728 
L 186.822389 198.85476 
L 187.081556 198.85476 
L 187.340722 182.359774 
L 187.599889 184.310378 
L 187.859055 177.418726 
L 188.118222 198.85476 
L 190.709886 198.85476 
L 190.969053 153.032171 
L 191.746552 198.85476 
L 192.005719 179.250625 
L 192.264885 198.85476 
L 192.524052 175.693853 
L 192.783218 198.85476 
L 193.042385 180.717322 
L 193.301551 170.71774 
L 193.560718 198.85476 
L 193.819884 186.949465 
L 194.079051 198.85476 
L 194.597384 198.85476 
L 194.85655 178.854237 
L 195.115717 198.85476 
L 195.374883 198.85476 
L 195.634049 178.704694 
L 196.152382 198.85476 
L 196.411549 162.143815 
L 196.670715 189.149575 
L 196.929882 181.389414 
L 197.189048 198.85476 
L 197.448215 190.487909 
L 197.707381 198.85476 
L 197.966548 198.85476 
L 198.225714 190.800638 
L 198.484881 171.957021 
L 198.744047 198.85476 
L 199.003214 173.982732 
L 199.26238 184.338329 
L 199.521547 189.597828 
L 199.780713 198.85476 
L 200.03988 191.299768 
L 200.299046 198.85476 
L 200.817379 198.85476 
L 201.076545 173.196682 
L 201.335712 198.85476 
L 201.594878 187.955194 
L 201.854045 198.85476 
L 202.372378 198.85476 
L 202.631544 181.304765 
L 202.890711 192.786989 
L 203.409044 161.311579 
L 203.66821 198.85476 
L 204.704876 198.85476 
L 205.223209 161.896046 
L 205.741542 198.85476 
L 206.259875 198.85476 
L 206.519041 187.174709 
L 206.778208 198.85476 
L 207.037374 154.194812 
L 207.296541 179.577653 
L 207.555707 190.168713 
L 207.814874 158.336347 
L 208.07404 183.605486 
L 208.333207 182.138137 
L 208.592373 188.496724 
L 208.85154 188.551199 
L 209.110706 198.85476 
L 210.147372 198.85476 
L 210.665705 182.271845 
L 210.924872 186.343529 
L 211.184038 161.292886 
L 211.443204 198.85476 
L 211.702371 198.85476 
L 211.961537 189.527023 
L 212.220704 184.663276 
L 212.47987 198.85476 
L 212.739037 154.795629 
L 212.998203 189.338288 
L 213.25737 198.85476 
L 213.775703 198.85476 
L 214.034869 186.750792 
L 214.294036 198.85476 
L 215.330702 198.85476 
L 215.589868 172.74722 
L 216.108201 198.85476 
L 216.367367 173.908452 
L 216.8857 198.85476 
L 217.144867 188.442722 
L 217.404033 198.85476 
L 217.6632 183.839139 
L 217.922366 198.85476 
L 218.181533 154.623275 
L 218.440699 183.707015 
L 218.699866 185.617484 
L 218.959032 163.246244 
L 219.218199 189.502123 
L 219.477365 167.345707 
L 219.736532 198.85476 
L 219.995698 198.85476 
L 220.254865 193.437088 
L 220.514031 198.85476 
L 222.328196 198.85476 
L 222.587363 180.592541 
L 222.846529 198.85476 
L 223.105696 198.85476 
L 223.364862 179.856382 
L 223.624029 185.074396 
L 223.883195 162.6158 
L 224.142362 198.85476 
L 224.401528 184.987089 
L 224.660695 198.85476 
L 225.956527 198.85476 
L 226.215694 184.336987 
L 226.47486 188.527513 
L 226.734026 189.9073 
L 226.993193 198.85476 
L 227.252359 169.213421 
L 227.511526 192.554948 
L 227.770692 198.85476 
L 228.029859 180.856339 
L 228.289025 180.562159 
L 228.548192 175.388371 
L 228.807358 198.85476 
L 229.066525 198.85476 
L 229.325691 174.843549 
L 229.584858 198.85476 
L 229.844024 198.85476 
L 230.103191 189.378707 
L 230.362357 192.324769 
L 230.621524 179.457616 
L 230.88069 198.85476 
L 231.139857 181.229768 
L 231.399023 187.204476 
L 231.658189 188.070002 
L 231.917356 177.819709 
L 232.176522 198.85476 
L 232.435689 158.361737 
L 232.694855 198.85476 
L 233.213188 198.85476 
L 233.472355 190.6685 
L 233.731521 198.85476 
L 234.509021 198.85476 
L 234.768187 186.190016 
L 235.027354 198.85476 
L 235.545687 198.85476 
L 235.804853 170.15527 
L 236.06402 185.897592 
L 236.323186 186.192944 
L 236.582352 198.85476 
L 236.841519 187.562933 
L 237.100685 198.85476 
L 237.359852 191.097616 
L 237.619018 198.85476 
L 238.655684 198.85476 
L 238.914851 192.558378 
L 239.174017 177.553176 
L 239.433184 182.899391 
L 239.69235 198.85476 
L 239.951517 198.85476 
L 240.210683 191.784383 
L 240.46985 198.85476 
L 240.729016 174.985502 
L 240.988183 198.85476 
L 241.247349 168.386155 
L 241.506516 198.85476 
L 242.284015 198.85476 
L 242.543181 189.140518 
L 242.802348 198.85476 
L 243.061514 198.85476 
L 243.320681 178.683474 
L 243.579847 182.005689 
L 243.839014 198.85476 
L 244.357347 198.85476 
L 244.616513 189.474389 
L 244.87568 172.943067 
L 245.134846 198.85476 
L 245.394013 198.85476 
L 245.653179 187.279589 
L 245.912346 198.85476 
L 246.171512 198.85476 
L 246.430679 187.339916 
L 246.689845 198.85476 
L 246.949011 198.85476 
L 247.208178 187.527589 
L 247.467344 170.858291 
L 247.726511 198.85476 
L 248.244844 186.078937 
L 248.50401 198.85476 
L 248.763177 190.607097 
L 249.022343 198.85476 
L 250.836509 198.85476 
L 251.095675 176.492101 
L 251.354842 198.85476 
L 251.614008 188.270671 
L 251.873174 198.85476 
L 252.650674 198.85476 
L 253.169007 187.534879 
L 253.428173 190.564227 
L 253.68734 186.002643 
L 253.946506 189.900303 
L 254.205673 198.85476 
L 254.724006 198.85476 
L 254.983172 191.48155 
L 255.242339 163.638394 
L 255.501505 198.85476 
L 255.760672 198.85476 
L 256.019838 182.190957 
L 256.279005 198.85476 
L 256.538171 185.098929 
L 256.797338 198.85476 
L 257.056504 185.803915 
L 257.31567 189.735541 
L 257.574837 170.27343 
L 257.834003 198.85476 
L 258.09317 198.85476 
L 258.352336 165.280247 
L 258.611503 198.85476 
L 258.870669 190.613599 
L 259.129836 192.339818 
L 259.389002 198.85476 
L 259.648169 193.345434 
L 259.907335 198.85476 
L 260.166502 185.758231 
L 260.425668 198.85476 
L 260.684835 198.85476 
L 260.944001 178.278937 
L 261.203168 198.85476 
L 261.462334 184.918788 
L 261.721501 198.85476 
L 261.980667 198.85476 
L 262.239833 187.38537 
L 262.499 191.118475 
L 262.758166 198.85476 
L 263.017333 198.85476 
L 263.535666 149.448958 
L 263.794832 198.85476 
L 264.053999 198.85476 
L 264.313165 179.918764 
L 264.572332 198.85476 
L 264.831498 198.85476 
L 265.349831 172.481559 
L 265.608998 198.85476 
L 265.868164 185.911825 
L 266.127331 198.85476 
L 266.90483 198.85476 
L 267.163996 192.781285 
L 267.423163 173.478215 
L 267.682329 198.85476 
L 267.941496 179.660237 
L 268.200662 198.85476 
L 268.459829 198.85476 
L 268.718995 186.423983 
L 268.978162 190.863605 
L 269.237328 175.862082 
L 269.496495 185.766224 
L 269.755661 175.839926 
L 270.014828 198.85476 
L 270.273994 175.464396 
L 270.533161 173.59332 
L 270.792327 198.85476 
L 271.051494 174.844234 
L 271.31066 174.479686 
L 271.569827 178.118543 
L 272.08816 198.85476 
L 272.865659 198.85476 
L 273.124825 158.883009 
L 273.383992 190.699434 
L 273.643158 190.174791 
L 273.902325 198.85476 
L 274.161491 198.85476 
L 274.420658 180.874332 
L 274.679824 198.85476 
L 274.938991 174.10963 
L 275.198157 174.820199 
L 275.457324 198.85476 
L 275.71649 190.727908 
L 275.975657 198.85476 
L 276.49399 171.671047 
L 276.753156 190.356279 
L 277.012323 198.85476 
L 277.271489 170.949354 
L 277.530655 188.191002 
L 277.789822 178.300152 
L 278.048988 198.85476 
L 279.085654 198.85476 
L 279.344821 182.699539 
L 279.603987 188.641381 
L 279.863154 179.495082 
L 280.12232 192.393369 
L 280.381487 189.857654 
L 280.640653 192.824374 
L 280.89982 189.02072 
L 281.158986 175.353533 
L 281.418153 182.39438 
L 281.677319 198.85476 
L 281.936486 167.656945 
L 282.195652 198.85476 
L 282.454818 184.885344 
L 282.713985 198.85476 
L 282.973151 172.603074 
L 283.232318 198.85476 
L 284.009817 198.85476 
L 284.268984 185.075972 
L 284.52815 198.85476 
L 285.046483 198.85476 
L 285.30565 172.16439 
L 285.564816 165.300569 
L 285.823983 177.840394 
L 286.083149 198.85476 
L 286.601482 198.85476 
L 286.860649 178.577472 
L 287.119815 181.458893 
L 287.378982 198.85476 
L 287.638148 198.85476 
L 287.897314 192.17229 
L 288.156481 198.85476 
L 288.415647 198.85476 
L 288.674814 182.324253 
L 288.93398 198.85476 
L 289.452313 198.85476 
L 289.71148 145.446174 
L 289.970646 169.075963 
L 290.229813 177.761983 
L 290.488979 198.85476 
L 290.748146 186.756921 
L 291.007312 198.85476 
L 291.525645 198.85476 
L 291.784812 190.405589 
L 292.043978 198.85476 
L 292.303145 190.478007 
L 292.562311 198.85476 
L 292.821477 198.85476 
L 293.080644 192.313721 
L 293.33981 192.602736 
L 293.598977 156.468396 
L 293.858143 198.85476 
L 294.11731 198.85476 
L 294.376476 185.811304 
L 294.635643 182.784219 
L 294.894809 198.85476 
L 295.153976 198.85476 
L 295.413142 175.933289 
L 295.672309 198.85476 
L 295.931475 189.009121 
L 296.190642 198.85476 
L 296.449808 189.59664 
L 296.708975 187.67771 
L 296.968141 191.73072 
L 297.227308 198.85476 
L 297.486474 193.481772 
L 297.74564 183.064256 
L 298.004807 198.85476 
L 299.300639 198.85476 
L 299.559806 165.864653 
L 299.818972 198.85476 
L 300.078139 176.877215 
L 300.337305 190.15613 
L 300.596472 176.228332 
L 300.855638 198.85476 
L 301.114805 198.85476 
L 301.373971 181.617498 
L 301.633138 198.85476 
L 301.892304 187.584181 
L 302.151471 165.744317 
L 302.410637 176.220014 
L 302.669804 169.747154 
L 302.92897 189.012778 
L 303.188136 198.85476 
L 303.447303 181.487479 
L 303.706469 198.85476 
L 303.965636 178.419729 
L 304.224802 185.968772 
L 304.483969 198.85476 
L 304.743135 193.601117 
L 305.002302 179.944481 
L 305.261468 192.288615 
L 305.520635 198.85476 
L 305.779801 198.85476 
L 306.038968 181.777087 
L 306.557301 198.85476 
L 306.816467 198.85476 
L 307.075634 183.764753 
L 307.3348 198.85476 
L 308.112299 198.85476 
L 308.371466 190.270532 
L 308.630632 177.153413 
L 308.889799 198.85476 
L 309.148965 189.025577 
L 309.408132 198.85476 
L 309.667298 198.85476 
L 309.926465 188.47501 
L 310.185631 198.85476 
L 310.444798 182.028788 
L 310.703964 198.85476 
L 310.963131 185.788588 
L 311.222297 198.85476 
L 311.481464 198.85476 
L 311.74063 190.945068 
L 311.999797 198.85476 
L 312.258963 198.85476 
L 312.777296 174.48745 
L 313.036462 191.858792 
L 313.295629 187.17874 
L 313.554795 175.072666 
L 313.813962 183.300708 
L 314.073128 187.308462 
L 314.332295 198.85476 
L 314.591461 198.85476 
L 314.850628 190.078037 
L 315.109794 198.85476 
L 315.368961 186.884401 
L 315.628127 198.85476 
L 316.14646 198.85476 
L 316.405627 192.429704 
L 316.664793 178.517225 
L 316.92396 198.85476 
L 317.183126 198.85476 
L 317.442293 190.575144 
L 317.701459 198.85476 
L 317.960626 173.013144 
L 318.219792 179.307382 
L 318.478958 198.85476 
L 318.738125 198.85476 
L 318.997291 188.493615 
L 319.256458 198.85476 
L 319.515624 185.257885 
L 319.774791 198.85476 
L 320.033957 193.408793 
L 320.293124 183.852884 
L 320.55229 184.834094 
L 320.811457 198.85476 
L 321.070623 178.258803 
L 321.588956 198.85476 
L 321.848123 179.570321 
L 322.107289 198.85476 
L 322.366456 177.727033 
L 322.625622 198.85476 
L 322.884789 189.261399 
L 323.143955 198.85476 
L 323.403121 198.85476 
L 323.921454 180.051631 
L 324.180621 198.85476 
L 324.439787 198.85476 
L 324.698954 164.253526 
L 324.95812 186.964489 
L 325.217287 178.016218 
L 325.476453 185.280497 
L 325.73562 186.839598 
L 325.994786 192.627263 
L 326.253953 188.820374 
L 326.513119 181.110596 
L 326.772286 181.818288 
L 327.031452 185.144943 
L 327.290619 198.85476 
L 327.549785 166.148903 
L 327.808952 198.85476 
L 328.068118 175.793779 
L 328.327284 185.76469 
L 328.586451 183.598409 
L 328.845617 198.85476 
L 329.104784 198.85476 
L 329.36395 174.884837 
L 329.623117 175.328328 
L 329.882283 190.461276 
L 330.14145 198.85476 
L 330.659783 198.85476 
L 330.918949 179.121378 
L 331.437282 198.85476 
L 331.696449 198.85476 
L 331.955615 193.679268 
L 332.214782 177.730401 
L 332.473948 198.85476 
L 332.992281 176.341359 
L 333.251448 185.051102 
L 333.510614 198.85476 
L 334.028947 198.85476 
L 334.288113 174.684469 
L 334.54728 198.85476 
L 334.806446 198.85476 
L 335.065613 186.887133 
L 335.324779 184.32857 
L 335.583946 188.121886 
L 335.843112 190.094313 
L 336.102279 183.197606 
L 336.361445 198.85476 
L 336.620612 186.800697 
L 336.879778 198.85476 
L 337.138945 198.85476 
L 337.398111 183.958084 
L 337.916444 171.474042 
L 338.175611 178.458128 
L 338.434777 180.737864 
L 338.693943 171.341257 
L 338.95311 198.85476 
L 339.212276 191.626339 
L 339.471443 192.858519 
L 339.730609 189.659769 
L 339.989776 183.352839 
L 340.508109 192.91254 
L 341.026442 184.296332 
L 341.285608 190.087473 
L 341.544775 183.957227 
L 341.803941 198.85476 
L 342.063108 198.85476 
L 342.322274 166.786015 
L 342.581441 193.54515 
L 342.840607 198.85476 
L 343.099774 177.212271 
L 343.35894 185.019275 
L 343.618106 183.384724 
L 343.877273 176.860449 
L 344.136439 198.85476 
L 344.395606 198.85476 
L 344.913939 176.428375 
L 345.173105 198.85476 
L 345.432272 177.719871 
L 345.691438 188.744303 
L 345.950605 191.653732 
L 346.209771 198.85476 
L 346.468938 198.85476 
L 346.728104 176.923051 
L 346.987271 181.897229 
L 347.246437 178.244524 
L 347.505604 198.85476 
L 347.76477 193.016807 
L 348.023937 198.85476 
L 348.283103 198.85476 
L 348.54227 192.346852 
L 348.801436 198.85476 
L 349.060602 176.654358 
L 349.319769 198.85476 
L 349.838102 175.692773 
L 350.097268 198.85476 
L 350.615601 198.85476 
L 350.874768 188.644597 
L 351.133934 198.85476 
L 351.393101 198.85476 
L 351.652267 187.33308 
L 351.911434 186.415143 
L 352.1706 190.415789 
L 352.429767 198.85476 
L 352.688933 198.85476 
L 352.9481 179.030601 
L 353.207266 183.97635 
L 353.466433 176.545465 
L 353.725599 198.85476 
L 353.984765 183.710328 
L 354.243932 198.85476 
L 354.503098 198.85476 
L 354.762265 180.528586 
L 355.021431 198.85476 
L 355.280598 198.85476 
L 355.539764 180.571617 
L 355.798931 198.85476 
L 356.058097 162.029137 
L 356.317264 191.525495 
L 356.57643 170.588176 
L 356.835597 198.85476 
L 357.35393 198.85476 
L 357.613096 179.132517 
L 357.872263 198.85476 
L 358.131429 198.85476 
L 358.390596 192.682558 
L 358.649762 198.85476 
L 358.908928 188.853237 
L 359.168095 198.85476 
L 359.427261 181.95931 
L 359.945594 198.85476 
L 360.204761 193.315161 
L 360.463927 198.85476 
L 360.98226 198.85476 
L 361.241427 180.593138 
L 361.500593 186.683593 
L 361.75976 198.85476 
L 362.018926 198.85476 
L 362.537259 185.911249 
L 363.055592 198.85476 
L 363.314759 173.500211 
L 363.573925 198.85476 
L 363.833092 186.303613 
L 364.092258 198.85476 
L 364.351424 180.795435 
L 364.610591 198.85476 
L 365.128924 180.798637 
L 365.38809 198.85476 
L 365.647257 191.1048 
L 365.906423 188.566795 
L 366.16559 198.85476 
L 366.683923 181.94838 
L 366.943089 198.85476 
L 368.238922 198.85476 
L 368.498088 192.826277 
L 368.757255 191.484878 
L 369.016421 188.163518 
L 369.275587 189.660936 
L 369.534754 185.280078 
L 369.79392 186.007304 
L 370.053087 198.85476 
L 370.312253 183.911437 
L 370.57142 198.85476 
L 370.830586 191.454339 
L 371.089753 191.216834 
L 371.348919 198.85476 
L 371.608086 191.037351 
L 371.867252 198.85476 
L 372.126419 187.850657 
L 372.385585 198.85476 
L 372.644752 166.909663 
L 372.903918 193.096222 
L 373.163085 191.499344 
L 373.422251 198.85476 
L 373.940584 198.85476 
L 374.19975 192.202575 
L 374.458917 179.004503 
L 374.718083 198.85476 
L 375.754749 198.85476 
L 376.013916 192.934387 
L 376.273082 191.442875 
L 376.532249 198.85476 
L 376.791415 190.605985 
L 377.050582 198.85476 
L 377.568915 182.2055 
L 377.828081 198.85476 
L 378.346414 198.85476 
L 378.605581 186.215524 
L 378.864747 198.85476 
L 379.123914 198.85476 
L 379.642246 182.702045 
L 379.901413 198.85476 
L 380.419746 198.85476 
L 380.938079 180.847889 
L 381.197245 198.85476 
L 381.715578 198.85476 
L 381.974745 181.380168 
L 382.233911 198.85476 
L 382.493078 198.85476 
L 382.752244 179.034685 
L 383.011411 198.85476 
L 384.825576 198.85476 
L 385.084742 188.345631 
L 385.343909 188.711462 
L 385.603075 198.85476 
L 385.862242 177.963348 
L 386.121408 198.85476 
L 386.898908 198.85476 
L 387.158074 191.464725 
L 387.417241 198.85476 
L 387.676407 176.775197 
L 387.935574 198.85476 
L 388.453907 198.85476 
L 388.713073 184.712882 
L 388.97224 198.85476 
L 389.231406 198.85476 
L 389.749739 181.418388 
L 390.008905 185.877049 
L 390.268072 198.85476 
L 391.304738 198.85476 
L 391.563904 180.839197 
L 391.823071 198.85476 
L 392.60057 198.85476 
L 392.859737 189.64399 
L 393.118903 198.85476 
L 393.637236 182.295385 
L 393.896403 198.85476 
L 395.710568 198.85476 
L 395.969734 174.809711 
L 396.228901 198.85476 
L 396.488067 184.045657 
L 396.747234 198.85476 
L 397.0064 198.85476 
L 397.265567 182.558915 
L 397.524733 198.85476 
L 398.043066 175.126317 
L 398.302233 191.182933 
L 398.561399 198.85476 
L 401.153064 198.85476 
L 401.41223 169.138305 
L 401.671397 198.85476 
L 401.930563 198.85476 
L 402.18973 176.280037 
L 402.708063 198.85476 
L 402.967229 192.348944 
L 403.226396 189.856365 
L 403.485562 198.85476 
L 403.744729 190.747401 
L 404.003895 198.85476 
L 404.781394 198.85476 
L 405.040561 179.876438 
L 405.299727 198.85476 
L 405.81806 198.85476 
L 406.077227 193.4552 
L 406.336393 198.85476 
L 406.59556 178.816494 
L 406.854726 198.85476 
L 407.113893 191.208247 
L 407.373059 187.993272 
L 407.891392 198.85476 
L 408.409725 198.85476 
L 408.668892 187.885187 
L 408.928058 198.85476 
L 409.187225 198.85476 
L 409.446391 184.366644 
L 409.705558 198.85476 
L 409.964724 198.85476 
L 410.22389 192.788767 
L 410.483057 198.85476 
L 411.519723 198.85476 
L 411.778889 191.125317 
L 412.038056 193.177179 
L 412.297222 198.85476 
L 412.815555 198.85476 
L 413.074722 192.866045 
L 413.333888 198.85476 
L 413.593055 166.104769 
L 413.852221 198.85476 
L 414.111388 193.678209 
L 414.370554 198.85476 
L 414.629721 184.05521 
L 414.888887 189.157288 
L 415.148053 198.85476 
L 416.703052 198.85476 
L 416.962219 168.538643 
L 417.221385 198.85476 
L 417.480552 189.611512 
L 417.739718 198.85476 
L 418.258051 198.85476 
L 418.517218 189.014016 
L 418.776384 198.85476 
L 419.035551 189.771716 
L 419.294717 198.85476 
L 419.553884 179.627021 
L 419.81305 193.58629 
L 420.072216 198.85476 
L 420.331383 189.247088 
L 420.590549 198.85476 
L 422.145548 198.85476 
L 422.404715 182.927801 
L 422.663881 198.85476 
L 422.923048 198.85476 
L 423.182214 187.015854 
L 423.441381 198.85476 
L 423.700547 198.85476 
L 423.959714 185.889358 
L 424.21888 184.590994 
L 424.737213 198.85476 
L 424.99638 165.997368 
L 425.255546 198.85476 
L 425.514712 198.85476 
L 425.773879 180.207266 
L 426.033045 198.85476 
L 426.551378 198.85476 
L 426.810545 167.135654 
L 427.069711 198.85476 
L 427.588044 198.85476 
L 428.106377 180.234956 
L 428.365544 198.85476 
L 428.883877 198.85476 
L 429.143043 185.228372 
L 429.40221 198.85476 
L 429.920543 198.85476 
L 430.179709 189.176297 
L 430.438875 198.85476 
L 431.475541 198.85476 
L 431.734708 182.365212 
L 431.993874 188.805334 
L 432.253041 198.85476 
L 432.512207 198.85476 
L 432.771374 178.196974 
L 433.289707 198.85476 
L 433.548873 182.995571 
L 433.80804 198.85476 
L 434.326373 198.85476 
L 434.585539 184.625925 
L 434.844706 198.85476 
L 435.622205 198.85476 
L 435.881371 192.948359 
L 436.140538 182.16686 
L 436.399704 198.85476 
L 436.658871 178.057086 
L 436.918037 169.35179 
L 437.177204 198.85476 
L 437.43637 198.85476 
L 437.695537 174.54521 
L 437.954703 198.85476 
L 438.732203 198.85476 
L 438.991369 188.527387 
L 439.250536 189.054987 
L 439.509702 198.85476 
L 439.768869 185.595305 
L 440.028035 179.144555 
L 440.287202 198.85476 
L 440.546368 187.659676 
L 440.805534 182.600114 
L 441.064701 187.153507 
L 441.323867 198.85476 
L 441.583034 175.007107 
L 442.101367 185.933473 
L 442.360533 198.85476 
L 442.6197 198.85476 
L 442.878866 181.865346 
L 443.138033 191.480416 
L 443.397199 187.134151 
L 443.656366 198.85476 
L 445.729697 198.85476 
L 445.988864 184.985215 
L 446.507197 198.85476 
L 446.766363 175.296749 
L 447.02553 198.85476 
L 447.284696 198.85476 
L 447.543863 186.778513 
L 447.803029 198.85476 
L 448.321362 198.85476 
L 448.839695 186.622716 
L 449.098862 198.85476 
L 449.358028 186.612075 
L 449.617195 198.85476 
L 450.135528 198.85476 
L 450.394694 179.996832 
L 450.65386 183.129248 
L 450.913027 190.078418 
L 451.172193 180.76193 
L 451.43136 198.85476 
L 451.690526 183.957189 
L 451.949693 180.661974 
L 452.208859 170.115922 
L 452.468026 198.85476 
L 452.727192 184.811155 
L 452.986359 182.367904 
L 453.245525 198.85476 
L 453.504692 175.886468 
L 453.763858 174.897149 
L 454.023025 198.85476 
L 454.541358 198.85476 
L 454.800524 190.896929 
L 455.059691 198.85476 
L 455.83719 198.85476 
L 456.096356 191.533495 
L 456.355523 198.85476 
L 456.614689 198.85476 
L 456.873856 183.673357 
L 457.133022 198.85476 
L 457.392189 198.85476 
L 457.910522 173.165541 
L 458.169688 193.150762 
L 458.428855 175.471973 
L 458.688021 198.85476 
L 458.947188 182.861118 
L 459.206354 181.986918 
L 459.465521 198.85476 
L 459.724687 198.85476 
L 459.983854 192.288909 
L 460.24302 178.9773 
L 460.502187 186.77433 
L 460.761353 190.060989 
L 461.020519 198.85476 
L 461.279686 182.73915 
L 461.538852 198.85476 
L 461.798019 165.156725 
L 462.316352 198.85476 
L 462.575518 179.505409 
L 462.834685 198.85476 
L 463.353018 198.85476 
L 463.612184 181.064361 
L 463.871351 198.85476 
L 464.130517 193.537413 
L 464.389684 198.85476 
L 465.42635 198.85476 
L 465.685516 185.395628 
L 465.944682 191.020276 
L 466.203849 183.773547 
L 466.463015 198.85476 
L 466.722182 190.992527 
L 466.981348 179.039287 
L 467.240515 185.426625 
L 467.499681 198.85476 
L 467.758848 176.11126 
L 468.018014 182.935587 
L 468.277181 198.85476 
L 468.536347 198.85476 
L 468.795514 186.376205 
L 469.05468 183.641972 
L 469.573013 190.882943 
L 469.83218 191.21967 
L 470.091346 198.85476 
L 470.350513 190.394173 
L 470.609679 198.85476 
L 470.868846 172.497488 
L 471.128012 198.85476 
L 471.387178 184.653011 
L 471.646345 192.172558 
L 472.164678 179.813643 
L 472.423844 189.015582 
L 472.683011 174.745476 
L 472.942177 198.85476 
L 473.201344 198.85476 
L 473.46051 186.509239 
L 473.719677 183.547887 
L 473.978843 198.85476 
L 474.23801 192.741001 
L 474.497176 189.805124 
L 474.756343 180.026599 
L 475.015509 198.85476 
L 475.533842 198.85476 
L 475.793009 178.95234 
L 476.052175 198.85476 
L 476.311341 188.487049 
L 476.570508 198.85476 
L 477.088841 198.85476 
L 477.348007 185.591526 
L 477.607174 179.485775 
L 478.125507 198.85476 
L 478.384673 192.041436 
L 478.64384 198.85476 
L 478.903006 198.85476 
L 479.162173 172.830809 
L 479.421339 170.236675 
L 479.939672 198.85476 
L 480.198839 198.85476 
L 480.458005 186.592075 
L 480.717172 198.85476 
L 481.235504 198.85476 
L 481.494671 185.00678 
L 481.753837 180.761701 
L 482.013004 198.85476 
L 482.27217 189.852365 
L 482.531337 198.85476 
L 483.04967 198.85476 
L 483.308836 189.501783 
L 483.568003 198.85476 
L 483.827169 187.423035 
L 484.086336 198.85476 
L 484.345502 185.127683 
L 484.604669 198.85476 
L 485.123002 177.998247 
L 485.382168 198.85476 
L 486.159668 198.85476 
L 486.418834 190.050347 
L 486.678 175.730754 
L 486.937167 198.85476 
L 487.196333 198.85476 
L 487.4555 188.325838 
L 487.714666 198.85476 
L 487.973833 198.85476 
L 488.232999 176.640384 
L 488.492166 198.85476 
L 488.751332 180.863124 
L 489.010499 198.85476 
L 489.528832 198.85476 
L 489.787998 181.570732 
L 490.047165 198.85476 
L 490.306331 192.149731 
L 490.565498 198.85476 
L 491.083831 198.85476 
L 491.342997 190.296721 
L 491.602163 198.85476 
L 491.86133 198.85476 
L 492.120496 175.10841 
L 492.379663 198.85476 
L 492.897996 198.85476 
L 493.157162 190.36124 
L 493.416329 198.85476 
L 493.675495 188.338185 
L 493.934662 185.581923 
L 494.193828 198.85476 
L 494.452995 198.85476 
L 494.712161 193.375439 
L 495.230494 176.114234 
L 495.489661 188.024871 
L 495.748827 177.834937 
L 496.007994 184.562144 
L 496.26716 198.85476 
L 496.785493 198.85476 
L 497.044659 179.614065 
L 497.303826 198.85476 
L 497.562992 185.2112 
L 497.822159 198.85476 
L 498.081325 198.85476 
L 498.340492 188.825133 
L 498.599658 185.238732 
L 498.858825 198.85476 
L 499.636324 198.85476 
L 499.895491 186.170271 
L 500.154657 193.316778 
L 500.413824 192.906386 
L 500.67299 188.701809 
L 500.932157 198.85476 
L 501.191323 166.676224 
L 501.45049 198.85476 
L 501.709656 198.85476 
L 502.227989 175.638171 
L 502.487155 198.85476 
L 503.005488 174.471725 
L 503.264655 198.85476 
L 503.523821 172.776554 
L 503.782988 191.65194 
L 504.042154 179.617513 
L 504.301321 192.954563 
L 504.560487 198.85476 
L 504.819654 181.971476 
L 505.07882 198.85476 
L 505.337987 183.210447 
L 505.597153 198.85476 
L 505.85632 193.000318 
L 506.115486 198.85476 
L 506.374653 198.85476 
L 506.633819 193.032737 
L 506.892985 198.85476 
L 510.002983 198.85476 
L 510.26215 183.036589 
L 510.521316 192.020871 
L 510.780483 187.665482 
L 511.039649 198.85476 
L 511.298816 198.85476 
L 511.817148 186.000756 
L 512.076315 198.85476 
L 512.335481 192.364333 
L 512.594648 198.85476 
L 512.853814 178.259803 
L 513.112981 188.935799 
L 513.372147 188.145163 
L 513.631314 198.85476 
L 514.66798 198.85476 
L 514.927146 166.812396 
L 515.186313 198.85476 
L 515.445479 186.283683 
L 515.704646 198.85476 
L 515.963812 198.85476 
L 516.222979 187.122375 
L 516.482145 198.85476 
L 516.741312 198.85476 
L 517.000478 185.72421 
L 517.259644 198.85476 
L 517.777977 198.85476 
L 518.037144 191.40256 
L 518.29631 198.85476 
L 518.814643 198.85476 
L 519.07381 183.678303 
L 519.332976 198.85476 
L 520.110476 198.85476 
L 520.369642 185.642168 
L 520.628809 178.872951 
L 520.887975 182.033156 
L 521.147142 198.85476 
L 521.406308 176.427879 
L 521.665475 198.85476 
L 521.924641 178.032127 
L 522.183807 198.85476 
L 522.442974 185.634105 
L 522.70214 198.85476 
L 522.961307 190.185081 
L 523.220473 198.85476 
L 523.47964 198.85476 
L 523.738806 179.982505 
L 523.997973 198.85476 
L 526.071305 198.85476 
L 526.330471 183.890803 
L 526.589638 198.85476 
L 527.367137 198.85476 
L 527.626303 169.714199 
L 527.88547 198.85476 
L 528.144636 198.85476 
L 528.403803 186.643094 
L 528.662969 185.591734 
L 528.922136 190.941789 
L 529.181302 198.85476 
L 529.440469 179.48365 
L 529.699635 183.187031 
L 529.958802 198.85476 
L 530.217968 184.751524 
L 530.477135 198.85476 
L 530.736301 192.036951 
L 530.995468 193.313158 
L 531.254634 198.85476 
L 531.513801 198.85476 
L 531.772967 190.72378 
L 532.032134 198.85476 
L 532.2913 198.85476 
L 532.550466 191.51989 
L 532.809633 178.623112 
L 533.068799 198.85476 
L 533.327966 171.978139 
L 533.587132 198.85476 
L 533.846299 174.502768 
L 534.105465 172.378038 
L 534.364632 180.5108 
L 534.623798 179.279479 
L 534.882965 192.626922 
L 535.142131 167.973963 
L 535.401298 192.522198 
L 535.660464 198.85476 
L 535.919631 181.141273 
L 536.178797 193.465129 
L 536.437964 198.85476 
L 536.69713 198.85476 
L 536.956297 190.898382 
L 537.215463 198.85476 
L 537.474629 185.034092 
L 537.733796 198.85476 
L 537.992962 180.757148 
L 538.252129 198.85476 
L 538.511295 198.85476 
L 538.770462 183.507822 
L 539.029628 198.85476 
L 539.288795 198.85476 
L 539.547961 184.122404 
L 539.807128 180.892013 
L 540.066294 198.85476 
L 540.325461 178.467554 
L 540.584627 198.85476 
L 541.362127 198.85476 
L 541.621293 183.426019 
L 541.88046 198.85476 
L 543.435458 198.85476 
L 543.694625 191.04833 
L 543.953791 198.85476 
L 544.472124 198.85476 
L 544.731291 192.774935 
L 544.990457 198.85476 
L 545.249624 198.85476 
L 545.50879 183.095981 
L 546.027123 198.85476 
L 546.28629 177.846063 
L 546.545456 198.85476 
L 546.804623 187.272167 
L 547.063789 198.85476 
L 547.322956 184.832356 
L 547.582122 198.85476 
L 548.359621 198.85476 
L 548.618788 185.949533 
L 548.877954 198.85476 
L 549.396287 198.85476 
L 549.655454 171.640646 
L 549.91462 187.020344 
L 550.173787 180.554438 
L 550.432953 193.207805 
L 550.69212 184.294835 
L 551.210453 198.85476 
L 551.728786 198.85476 
L 551.987952 190.621302 
L 552.247119 190.923863 
L 552.506285 183.36075 
L 553.024618 198.85476 
L 553.283784 198.85476 
L 553.542951 189.826456 
L 553.802117 188.070472 
L 554.061284 182.166034 
L 554.32045 198.85476 
L 554.579617 181.940143 
L 554.838783 198.85476 
L 555.09795 198.85476 
L 555.357116 182.173322 
L 555.616283 198.85476 
L 555.875449 198.85476 
L 556.134616 183.147904 
L 556.393782 198.85476 
L 556.652949 198.85476 
L 556.912115 190.153907 
L 557.171282 177.187597 
L 557.430448 180.125594 
L 557.689615 198.85476 
L 558.207947 198.85476 
L 558.72628 180.893931 
L 558.985447 184.23346 
L 559.244613 198.85476 
L 561.058779 198.85476 
L 561.317945 179.442492 
L 561.577112 185.020599 
L 561.836278 181.570396 
L 562.095445 198.85476 
L 562.354611 180.855782 
L 562.872944 198.85476 
L 563.13211 192.153904 
L 563.391277 198.85476 
L 563.650443 191.007885 
L 563.90961 198.85476 
L 564.427943 198.85476 
L 564.687109 174.555462 
L 564.946276 192.172277 
L 565.464609 179.802781 
L 565.723775 198.85476 
L 567.797107 198.85476 
L 568.056273 189.607986 
L 568.31544 184.48321 
L 568.574606 198.85476 
L 568.833773 183.85263 
L 569.092939 198.85476 
L 569.352106 190.653394 
L 569.611272 170.301387 
L 569.870439 198.85476 
L 570.129605 198.85476 
L 570.388772 172.803572 
L 570.647938 198.85476 
L 572.202937 198.85476 
L 572.462104 172.175024 
L 572.72127 198.85476 
L 572.980437 198.85476 
L 573.239603 180.066291 
L 573.498769 192.495221 
L 573.757936 183.374267 
L 574.017102 188.73346 
L 574.276269 198.85476 
L 575.312935 198.85476 
L 575.572101 186.717972 
L 575.831268 198.85476 
L 576.090434 187.649469 
L 576.349601 198.85476 
L 576.608767 198.85476 
L 576.867934 182.984554 
L 577.1271 198.85476 
L 577.386267 198.85476 
L 577.645433 184.284835 
L 577.9046 198.85476 
L 578.941265 198.85476 
L 579.459598 188.643667 
L 579.718765 198.85476 
L 579.977931 190.120653 
L 580.237098 175.550427 
L 580.496264 198.85476 
L 580.755431 185.853228 
L 581.014597 186.318751 
L 581.273764 198.85476 
L 581.53293 198.85476 
L 582.051263 178.862275 
L 582.31043 198.85476 
L 582.569596 193.519572 
L 582.828763 198.85476 
L 583.087929 198.85476 
L 583.347095 187.185963 
L 583.606262 191.563941 
L 583.865428 164.391574 
L 584.124595 178.183093 
L 584.383761 174.335477 
L 584.642928 192.661252 
L 584.902094 170.290021 
L 585.161261 198.85476 
L 585.420427 198.85476 
L 585.679594 184.161407 
L 585.93876 198.85476 
L 586.197927 198.85476 
L 586.457093 182.758336 
L 586.71626 198.85476 
L 586.975426 186.033603 
L 587.234593 198.85476 
L 587.752926 198.85476 
L 588.012092 192.789183 
L 588.271259 198.85476 
L 588.789591 198.85476 
L 589.048758 158.298034 
L 589.307924 167.212787 
L 589.567091 190.592027 
L 589.826257 198.85476 
L 590.34459 198.85476 
L 590.603757 191.199188 
L 590.862923 191.233133 
L 591.12209 186.924411 
L 591.381256 192.526165 
L 591.640423 184.074987 
L 591.899589 198.85476 
L 592.677089 198.85476 
L 592.936255 192.751184 
L 593.195422 193.660102 
L 593.454588 193.12491 
L 593.713754 198.85476 
L 593.972921 166.990228 
L 594.232087 187.103607 
L 594.491254 184.154676 
L 594.75042 166.269444 
L 595.009587 198.85476 
L 595.268753 198.85476 
L 595.52792 188.455521 
L 595.787086 198.85476 
L 596.046253 193.028116 
L 596.305419 179.644799 
L 596.564586 198.85476 
L 597.601252 198.85476 
L 597.860418 173.513241 
L 598.119585 198.85476 
L 598.378751 198.85476 
L 598.637917 174.328127 
L 598.897084 183.579963 
L 599.15625 198.85476 
L 599.415417 167.369556 
L 599.674583 198.85476 
L 599.93375 177.672766 
L 600.192916 198.85476 
L 600.452083 192.7313 
L 600.711249 176.214533 
L 600.970416 198.85476 
L 601.229582 198.85476 
L 601.488749 188.469811 
L 601.747915 198.85476 
L 602.007082 182.901683 
L 602.266248 198.85476 
L 602.784581 198.85476 
L 603.043748 177.744306 
L 603.302914 198.85476 
L 603.562081 193.239491 
L 603.821247 198.85476 
L 604.080413 198.85476 
L 604.33958 175.431515 
L 604.598746 198.85476 
L 604.857913 198.85476 
L 605.117079 178.311243 
L 605.376246 198.85476 
L 605.635412 188.35736 
L 605.894579 198.85476 
L 606.153745 156.538445 
L 606.412912 198.85476 
L 606.672078 184.898604 
L 606.931245 181.411775 
L 607.190411 198.85476 
L 607.449578 183.312628 
L 607.708744 198.85476 
L 607.967911 192.672673 
L 608.227077 198.85476 
L 608.486244 190.599481 
L 608.74541 198.85476 
L 609.263743 198.85476 
L 609.522909 193.016064 
L 609.782076 198.85476 
L 610.041242 192.700725 
L 610.300409 182.27164 
L 610.559575 198.85476 
L 610.818742 159.284239 
L 611.337075 198.85476 
L 611.596241 198.85476 
L 611.855408 187.36149 
L 612.114574 198.85476 
L 612.373741 179.397053 
L 612.632907 198.85476 
L 613.669573 198.85476 
L 613.928739 188.315654 
L 614.187906 186.634513 
L 614.447072 160.640591 
L 614.706239 198.85476 
L 614.965405 198.85476 
L 615.224572 158.797541 
L 615.483738 198.85476 
L 616.520404 198.85476 
L 616.779571 169.906794 
L 617.038737 158.379802 
L 617.297904 198.85476 
L 617.55707 198.85476 
L 617.816237 186.487097 
L 618.075403 198.85476 
L 618.33457 198.85476 
L 618.593736 182.469887 
L 618.852903 198.85476 
L 619.112069 176.114405 
L 619.371235 181.972988 
L 619.630402 198.85476 
L 620.148735 198.85476 
L 620.407901 169.337125 
L 620.667068 198.85476 
L 620.926234 190.372722 
L 621.185401 191.909767 
L 621.444567 198.85476 
L 621.703734 198.85476 
L 621.9629 179.605206 
L 622.222067 198.85476 
L 622.481233 179.155724 
L 622.7404 198.85476 
L 622.999566 182.371045 
L 623.258733 198.85476 
L 623.517899 198.85476 
L 623.777066 179.856259 
L 624.036232 183.205734 
L 624.295398 198.85476 
L 624.554565 192.13796 
L 624.813731 198.85476 
L 625.072898 178.499083 
L 625.332064 198.85476 
L 625.850397 198.85476 
L 626.109564 184.957495 
L 626.36873 198.85476 
L 626.627897 188.259164 
L 626.887063 198.85476 
L 627.14623 198.85476 
L 627.405396 191.640042 
L 627.664563 198.85476 
L 627.923729 178.622151 
L 628.182896 187.641273 
L 628.442062 182.727304 
L 628.701229 181.96199 
L 628.960395 182.561172 
L 629.219561 185.261004 
L 629.737894 198.85476 
L 630.256227 198.85476 
L 630.515394 172.642269 
L 630.77456 198.85476 
L 632.329559 198.85476 
L 632.847892 177.914054 
L 633.107059 185.276006 
L 633.366225 198.85476 
L 633.625392 184.550305 
L 633.884558 131.328109 
L 634.143725 198.85476 
L 634.402891 179.061708 
L 634.662057 189.939663 
L 634.921224 171.866744 
L 635.18039 198.85476 
L 635.439557 189.232715 
L 635.698723 175.204243 
L 635.95789 198.85476 
L 636.217056 198.85476 
L 636.476223 185.186552 
L 636.735389 162.603841 
L 636.994556 198.85476 
L 637.253722 188.27126 
L 637.512889 198.85476 
L 637.772055 198.85476 
L 638.031222 191.590176 
L 638.290388 180.211621 
L 638.549555 198.85476 
L 639.58622 198.85476 
L 640.104553 178.908633 
L 640.622886 198.85476 
L 641.141219 198.85476 
L 641.400386 191.058788 
L 641.659552 198.85476 
L 642.696218 198.85476 
L 642.955385 179.121691 
L 643.214551 193.199233 
L 643.473718 183.584033 
L 643.732884 192.433041 
L 643.992051 190.299081 
L 644.251217 198.85476 
L 644.510383 198.85476 
L 644.76955 167.29786 
L 645.028716 198.85476 
L 645.287883 181.190794 
L 645.547049 186.248319 
L 645.806216 198.85476 
L 646.065382 180.861337 
L 646.324549 198.85476 
L 646.583715 198.85476 
L 646.842882 178.519383 
L 647.102048 198.85476 
L 647.361215 176.698475 
L 647.620381 198.85476 
L 647.879548 198.85476 
L 648.138714 191.734766 
L 648.397881 198.85476 
L 648.657047 168.782958 
L 648.916214 188.447816 
L 649.17538 173.77711 
L 649.434547 198.85476 
L 650.471212 198.85476 
L 650.730379 183.109113 
L 650.989545 198.85476 
L 651.248712 198.85476 
L 651.507878 178.11842 
L 651.767045 171.402608 
L 652.285378 198.85476 
L 652.544544 176.78881 
L 652.803711 198.85476 
L 653.062877 198.85476 
L 653.58121 177.181728 
L 653.840377 198.85476 
L 654.099543 148.51581 
L 654.35871 198.85476 
L 654.617876 177.547452 
L 654.877042 198.85476 
L 655.136209 182.111974 
L 655.395375 198.85476 
L 655.654542 188.37912 
L 655.913708 198.85476 
L 656.172875 198.85476 
L 656.432041 181.51128 
L 656.691208 198.85476 
L 656.950374 198.85476 
L 657.209541 185.020145 
L 657.727874 171.682933 
L 657.98704 175.310786 
L 658.246207 198.85476 
L 658.505373 165.226698 
L 658.76454 179.237971 
L 659.282873 192.222199 
L 659.542039 173.925068 
L 659.801205 198.85476 
L 660.060372 192.020458 
L 660.319538 172.17574 
L 660.837871 184.177781 
L 661.097038 162.408134 
L 661.356204 198.85476 
L 661.615371 165.058388 
L 661.874537 198.85476 
L 662.133704 162.543258 
L 662.652037 198.85476 
L 663.17037 198.85476 
L 663.429536 187.292774 
L 663.688703 166.893072 
L 663.947869 169.897991 
L 664.207036 198.85476 
L 664.466202 198.85476 
L 664.725369 190.500121 
L 664.984535 193.525097 
L 665.243701 160.954597 
L 665.502868 186.774547 
L 665.762034 198.85476 
L 666.021201 189.815684 
L 666.280367 198.85476 
L 666.539534 198.85476 
L 666.7987 180.669327 
L 667.057867 198.85476 
L 668.094533 198.85476 
L 668.353699 174.353407 
L 668.612866 167.725629 
L 668.872032 198.85476 
L 669.131199 189.597398 
L 669.390365 198.85476 
L 669.649532 155.82234 
L 669.908698 180.371879 
L 670.427031 198.85476 
L 670.686197 182.212943 
L 670.945364 198.85476 
L 671.20453 192.087966 
L 671.463697 198.85476 
L 672.241196 198.85476 
L 672.500363 174.058298 
L 672.759529 198.85476 
L 673.018696 191.206083 
L 673.277862 175.891117 
L 673.537029 198.85476 
L 674.573695 198.85476 
L 674.832861 159.402207 
L 675.092027 198.85476 
L 675.61036 198.85476 
L 675.869527 189.847218 
L 676.128693 198.85476 
L 676.906193 198.85476 
L 677.165359 186.563586 
L 677.424526 183.348661 
L 677.683692 198.85476 
L 677.942859 180.136733 
L 678.202025 198.85476 
L 678.461192 189.732066 
L 678.720358 198.85476 
L 679.757024 198.85476 
L 680.275357 159.248392 
L 680.534523 198.85476 
L 681.571189 198.85476 
L 681.830356 185.557279 
L 682.089522 198.85476 
L 682.348689 198.85476 
L 682.607855 182.069497 
L 682.867022 198.85476 
L 683.385355 198.85476 
L 683.644521 161.28081 
L 683.903688 193.134829 
L 684.162854 198.85476 
L 685.19952 198.85476 
L 685.19952 198.85476 
" clip-path="url(#p110598a62f)" style="fill: none; stroke: #ff7f0e; stroke-width: 0.9; stroke-linecap: square"/>
   </g>
   <g id="patch_4">
    <path d="M 37.5425 198.85476 
L 37.5425 28.438677 
" style="fill: none; stroke: #000000; stroke-width: 0.6; stroke-linejoin: miter; stroke-linecap: square"/>
   </g>
   <g id="patch_5">
    <path d="M 37.5425 198.85476 
L 685.19952 198.85476 
" style="fill: none; stroke: #000000; stroke-width: 0.6; stroke-linejoin: miter; stroke-linecap: square"/>
   </g>
   <g id="line2d_16">
    <path d="M 37.5425 197.716762 
L 60.089983 197.768489 
L 60.34915 187.888594 
L 60.608316 189.181774 
L 60.867483 188.767956 
L 61.385816 188.819683 
L 62.681648 188.664502 
L 63.199981 188.716229 
L 63.97748 189.130047 
L 64.495813 189.026592 
L 65.273313 189.233501 
L 66.828312 189.336955 
L 67.605811 189.388683 
L 67.864978 189.388683 
L 68.124144 189.543864 
L 68.38331 189.44041 
L 68.642477 189.543864 
L 69.16081 189.543864 
L 71.493308 189.647319 
L 71.752475 189.750773 
L 72.529974 189.699046 
L 73.048307 189.750773 
L 73.56664 189.750773 
L 74.862472 189.854227 
L 75.380805 189.905955 
L 76.417471 189.750773 
L 76.935804 189.957682 
L 77.454137 189.905955 
L 78.231637 190.009409 
L 78.490803 189.957682 
L 78.749969 190.061136 
L 79.268302 189.957682 
L 79.786635 190.061136 
L 80.045802 190.009409 
L 80.304968 190.164591 
L 80.823301 190.061136 
L 84.710798 190.112863 
L 84.969965 190.216318 
L 85.747464 190.164591 
L 86.006631 190.268045 
L 86.265797 190.112863 
L 87.043297 190.164591 
L 91.96746 190.216318 
L 92.226626 197.716762 
L 93.004126 197.820216 
L 93.522459 197.820216 
L 129.287432 197.820216 
L 129.546598 182.922783 
L 129.805765 189.181774 
L 130.064931 189.130047 
L 130.324098 188.664502 
L 130.583264 188.819683 
L 130.842431 188.716229 
L 131.101597 188.819683 
L 131.61993 188.664502 
L 133.174929 189.026592 
L 133.434096 189.233501 
L 133.693262 189.130047 
L 135.248261 189.44041 
L 135.507427 189.336955 
L 137.580759 189.647319 
L 140.690757 189.750773 
L 140.949923 189.854227 
L 141.468256 189.854227 
L 146.651586 189.957682 
L 147.169919 190.061136 
L 152.353248 190.164591 
L 153.130748 190.216318 
L 153.649081 190.164591 
L 154.42658 190.216318 
L 154.944913 190.164591 
L 155.204079 190.268045 
L 155.463246 190.164591 
L 155.722412 190.268045 
L 156.240745 190.268045 
L 159.091577 190.268045 
L 159.60991 197.820216 
L 197.707381 197.768489 
L 197.966548 191.612952 
L 198.225714 188.923138 
L 198.484881 189.233501 
L 198.744047 188.871411 
L 199.003214 189.026592 
L 199.26238 188.716229 
L 200.817379 188.819683 
L 201.335712 188.974865 
L 201.594878 188.923138 
L 201.854045 189.181774 
L 203.409044 189.285228 
L 204.704876 189.492137 
L 204.964043 189.44041 
L 205.223209 189.543864 
L 205.741542 189.543864 
L 206.519041 189.647319 
L 207.037374 189.647319 
L 208.592373 189.750773 
L 208.85154 189.854227 
L 209.369873 189.854227 
L 212.220704 189.957682 
L 212.998203 190.061136 
L 214.034869 189.957682 
L 214.553202 190.061136 
L 221.550697 190.164591 
L 221.809863 190.268045 
L 222.06903 190.164591 
L 222.587363 190.268045 
L 225.956527 190.268045 
L 226.215694 197.820216 
L 226.734026 197.716762 
L 227.252359 197.820216 
L 264.572332 197.768489 
L 265.090665 188.923138 
L 265.349831 189.181774 
L 265.608998 188.612775 
L 266.127331 188.974865 
L 266.645664 188.767956 
L 267.941496 188.819683 
L 268.978162 189.181774 
L 269.237328 189.130047 
L 269.755661 189.233501 
L 270.533161 189.336955 
L 271.051494 189.44041 
L 272.347326 189.543864 
L 272.606492 189.647319 
L 272.865659 189.543864 
L 273.902325 189.750773 
L 274.161491 189.647319 
L 275.198157 189.750773 
L 276.49399 189.854227 
L 276.753156 189.957682 
L 277.012323 189.854227 
L 277.530655 189.854227 
L 279.085654 189.957682 
L 279.344821 190.009409 
L 279.603987 186.026415 
L 279.863154 189.957682 
L 280.12232 190.061136 
L 280.381487 189.957682 
L 280.89982 190.061136 
L 286.860649 190.164591 
L 287.119815 190.268045 
L 287.638148 190.164591 
L 291.266479 190.268045 
L 291.525645 190.371499 
L 292.043978 197.820216 
L 330.659783 197.716762 
L 331.178116 189.026592 
L 331.437282 189.078319 
L 331.696449 188.871411 
L 332.214782 188.871411 
L 332.992281 188.767956 
L 333.251448 188.716229 
L 333.76978 188.819683 
L 334.54728 189.078319 
L 334.806446 189.233501 
L 335.065613 189.130047 
L 337.138945 189.44041 
L 338.175611 189.543864 
L 338.434777 184.888416 
L 338.693943 189.543864 
L 339.212276 189.647319 
L 339.471443 189.750773 
L 339.989776 189.647319 
L 341.026442 189.750773 
L 343.877273 189.854227 
L 344.136439 189.957682 
L 344.654772 189.905955 
L 345.173105 189.905955 
L 346.209771 189.957682 
L 346.468938 190.061136 
L 347.246437 190.009409 
L 349.578935 190.061136 
L 349.838102 190.164591 
L 350.356435 190.061136 
L 350.874768 190.061136 
L 353.207266 190.164591 
L 353.725599 190.216318 
L 354.503098 190.164591 
L 355.021431 190.216318 
L 355.539764 190.164591 
L 356.317264 190.268045 
L 356.57643 190.164591 
L 356.835597 190.216318 
L 357.094763 197.768489 
L 357.613096 197.768489 
L 358.390596 197.820216 
L 358.649762 197.716762 
L 358.908928 197.820216 
L 359.427261 197.716762 
L 395.969734 197.716762 
L 396.488067 189.130047 
L 396.747234 189.026592 
L 397.0064 188.767956 
L 397.524733 188.974865 
L 397.7839 188.819683 
L 398.043066 188.819683 
L 398.302233 188.664502 
L 399.598065 188.974865 
L 399.857231 189.130047 
L 400.893897 189.233501 
L 401.41223 189.336955 
L 402.708063 189.492137 
L 402.967229 189.44041 
L 403.226396 189.595591 
L 403.744729 189.595591 
L 404.781394 189.750773 
L 405.299727 189.750773 
L 406.854726 189.854227 
L 407.113893 189.905955 
L 407.373059 189.8025 
L 407.891392 189.854227 
L 408.409725 189.854227 
L 410.22389 189.957682 
L 410.483057 190.061136 
L 411.00139 190.061136 
L 415.925553 190.164591 
L 416.443886 190.164591 
L 416.703052 190.061136 
L 417.221385 190.164591 
L 421.368049 190.268045 
L 421.886382 197.716762 
L 422.145548 197.820216 
L 422.663881 197.768489 
L 423.441381 197.820216 
L 424.478047 197.716762 
L 455.318857 197.716762 
L 455.578024 197.147762 
L 455.83719 197.716762 
L 461.020519 197.716762 
L 461.538852 188.923138 
L 461.798019 189.078319 
L 463.871351 188.716229 
L 465.167183 189.181774 
L 465.685516 189.181774 
L 467.499681 189.44041 
L 468.795514 189.543864 
L 469.05468 189.647319 
L 469.573013 189.543864 
L 470.350513 189.750773 
L 470.868846 189.647319 
L 471.387178 189.750773 
L 473.201344 189.854227 
L 473.46051 189.905955 
L 473.719677 189.750773 
L 474.756343 189.854227 
L 475.793009 189.957682 
L 476.052175 190.061136 
L 476.570508 189.957682 
L 477.348007 190.061136 
L 477.607174 189.957682 
L 478.64384 190.061136 
L 483.827169 190.164591 
L 484.086336 190.268045 
L 484.345502 190.164591 
L 484.863835 190.164591 
L 486.159668 190.268045 
L 486.678 197.768489 
L 486.937167 197.716762 
L 487.4555 197.820216 
L 526.330471 197.716762 
L 526.848804 189.026592 
L 527.107971 189.181774 
L 527.367137 188.871411 
L 527.626303 189.026592 
L 527.88547 188.767956 
L 529.440469 188.819683 
L 530.477135 189.130047 
L 531.772967 189.233501 
L 533.587132 189.492137 
L 533.846299 189.44041 
L 534.364632 189.543864 
L 535.142131 189.647319 
L 535.919631 189.750773 
L 536.437964 189.699046 
L 537.215463 189.750773 
L 540.066294 189.854227 
L 540.584627 189.957682 
L 541.362127 189.854227 
L 541.621293 189.957682 
L 542.139626 189.957682 
L 545.50879 190.061136 
L 546.027123 190.112863 
L 546.545456 190.061136 
L 547.063789 190.164591 
L 551.728786 190.164591 
L 551.987952 197.509853 
L 552.247119 197.768489 
L 552.765451 197.768489 
L 553.283784 197.768489 
L 554.061284 197.716762 
L 556.912115 197.716762 
L 557.171282 196.578763 
L 557.430448 197.820216 
L 557.948781 197.716762 
L 592.677089 197.716762 
L 592.936255 188.871411 
L 593.195422 189.233501 
L 593.454588 188.767956 
L 594.232087 188.819683 
L 594.75042 188.716229 
L 595.268753 188.716229 
L 595.787086 188.819683 
L 597.082919 189.233501 
L 598.378751 189.336955 
L 598.897084 189.492137 
L 599.15625 189.44041 
L 599.415417 189.543864 
L 599.93375 189.543864 
L 601.747915 189.647319 
L 602.266248 189.750773 
L 604.857913 189.854227 
L 605.376246 189.854227 
L 607.967911 189.957682 
L 608.227077 190.061136 
L 608.486244 189.957682 
L 609.782076 190.112863 
L 610.300409 190.061136 
L 611.077908 190.164591 
L 611.596241 190.061136 
L 614.706239 190.164591 
L 615.483738 190.216318 
L 616.002071 190.216318 
L 616.520404 190.268045 
L 617.038737 190.216318 
L 617.297904 190.268045 
L 617.55707 197.768489 
L 617.816237 197.716762 
L 618.075403 197.820216 
L 618.593736 197.820216 
L 658.505373 197.716762 
L 658.76454 134.40267 
L 659.023706 189.026592 
L 659.282873 189.130047 
L 659.542039 188.767956 
L 659.801205 189.026592 
L 660.060372 188.819683 
L 660.319538 188.923138 
L 660.578705 188.716229 
L 660.837871 188.819683 
L 661.615371 188.767956 
L 662.133704 189.026592 
L 664.984535 189.492137 
L 666.280367 189.543864 
L 666.7987 189.647319 
L 667.317033 189.699046 
L 667.5762 189.647319 
L 668.094533 189.750773 
L 668.612866 189.750773 
L 670.427031 189.854227 
L 670.945364 189.854227 
L 673.018696 189.957682 
L 673.537029 190.009409 
L 674.314528 189.957682 
L 674.832861 190.061136 
L 675.092027 189.957682 
L 675.61036 190.061136 
L 677.942859 190.061136 
L 678.202025 190.216318 
L 678.720358 190.164591 
L 678.979525 190.268045 
L 679.238691 190.164591 
L 680.275357 190.268045 
L 680.534523 190.164591 
L 681.052856 190.268045 
L 682.867022 190.319772 
L 683.385355 197.820216 
L 685.19952 197.768489 
L 685.19952 197.768489 
" clip-path="url(#p110598a62f)" style="fill: none; stroke: #2ca02c; stroke-width: 0.9; stroke-linecap: square"/>
   </g>
   <g id="text_17">
    <text style="font-size: 10px; font-family: 'Helvetica', 'Arial', 'DejaVu Sans', sans-serif; text-anchor: start" x="37.5425" y="22.438677" transform="rotate(-0 37.5425 22.438677)">DAResNet — fridge</text>
   </g>
   <g id="axes_2">
    <g id="patch_6">
     <path d="M 50.49564 100.013432 
L 205.995525 100.013432 
L 205.995525 35.255321 
L 50.49564 35.255321 
z
" style="fill: #ffffff"/>
    </g>
    <g id="matplotlib.axis_3"/>
    <g id="matplotlib.axis_4"/>
    <g id="line2d_17">
     <path d="M 50.49564 100.013432 
L 50.910307 100.013432 
L 51.324973 74.429403 
L 51.739639 100.013432 
L 53.812971 100.013432 
L 54.227638 85.650715 
L 54.642304 100.013432 
L 55.05697 80.488846 
L 55.471637 100.013432 
L 55.886303 90.850617 
L 56.300969 100.013432 
L 57.130302 100.013432 
L 57.544969 88.300414 
L 57.959635 100.013432 
L 59.6183 100.013432 
L 60.032967 84.404867 
L 60.447633 73.204878 
L 60.862299 100.013432 
L 61.276966 85.648748 
L 61.691632 100.013432 
L 62.106298 92.678375 
L 62.520965 100.013432 
L 62.935631 100.013432 
L 63.350298 78.566132 
L 63.764964 92.950272 
L 64.17963 100.013432 
L 64.594297 75.577216 
L 65.008963 100.013432 
L 65.423629 76.868101 
L 65.838296 90.731381 
L 66.252962 100.013432 
L 67.496961 100.013432 
L 67.911627 76.702605 
L 68.326294 100.013432 
L 68.74096 100.013432 
L 69.155627 89.213969 
L 69.570293 100.013432 
L 69.984959 73.836139 
L 70.399626 100.013432 
L 70.814292 100.013432 
L 71.228958 67.221311 
L 71.643625 67.781458 
L 72.058291 100.013432 
L 72.472957 79.584347 
L 72.887624 100.013432 
L 73.30229 84.480419 
L 74.131623 100.013432 
L 74.960956 100.013432 
L 75.375622 61.645734 
L 75.790288 84.525429 
L 76.204955 62.221987 
L 76.619621 71.687494 
L 77.034287 100.013432 
L 77.448954 88.655396 
L 77.86362 100.013432 
L 78.278286 100.013432 
L 78.692953 58.801978 
L 79.107619 100.013432 
L 79.522286 100.013432 
L 79.936952 79.104069 
L 80.351618 100.013432 
L 80.766285 100.013432 
L 81.180951 94.958252 
L 81.595617 100.013432 
L 82.010284 100.013432 
L 82.42495 87.614445 
L 82.839616 79.488636 
L 83.254283 100.013432 
L 83.668949 78.782244 
L 84.083616 72.958898 
L 84.498282 94.783229 
L 84.912948 76.420954 
L 85.327615 100.013432 
L 86.571614 100.013432 
L 86.98628 82.870591 
L 87.400946 78.734091 
L 87.815613 100.013432 
L 88.230279 92.653653 
L 88.644945 81.449814 
L 89.059612 100.013432 
L 89.888945 100.013432 
L 90.303611 77.585842 
L 90.718277 100.013432 
L 91.132944 100.013432 
L 91.54761 71.527864 
L 91.962276 90.365571 
L 92.376943 100.013432 
L 92.791609 74.91772 
L 93.206275 100.013432 
L 93.620942 85.630175 
L 94.035608 100.013432 
L 94.864941 100.013432 
L 95.279607 85.154604 
L 95.694274 100.013432 
L 96.523606 67.280944 
L 96.938273 95.025428 
L 97.352939 100.013432 
L 99.426271 100.013432 
L 99.840937 86.861906 
L 100.255604 100.013432 
L 100.67027 56.821132 
L 101.084936 56.618318 
L 101.499603 100.013432 
L 101.914269 51.851714 
L 102.328935 86.929707 
L 102.743602 100.013432 
L 103.158268 100.013432 
L 103.572934 68.217239 
L 103.987601 92.240754 
L 104.402267 100.013432 
L 104.816933 100.013432 
L 105.2316 78.856381 
L 105.646266 47.70521 
L 106.060933 94.139853 
L 106.475599 89.130164 
L 106.890265 89.660258 
L 107.304932 85.852507 
L 107.719598 57.136016 
L 108.134264 68.15015 
L 108.548931 90.231486 
L 108.963597 92.9578 
L 109.378263 100.013432 
L 109.79293 73.940384 
L 110.207596 93.26109 
L 110.622263 75.820927 
L 111.036929 100.013432 
L 111.451595 100.013432 
L 111.866262 71.81846 
L 112.280928 89.039199 
L 112.695594 100.013432 
L 113.110261 71.392604 
L 113.524927 100.013432 
L 114.768926 100.013432 
L 115.183592 76.718481 
L 115.598259 100.013432 
L 116.012925 100.013432 
L 116.427592 79.728627 
L 116.842258 95.384255 
L 117.256924 81.333236 
L 117.671591 100.013432 
L 118.086257 83.652829 
L 118.500923 93.170517 
L 118.91559 100.013432 
L 119.744922 100.013432 
L 120.159589 90.749568 
L 120.574255 62.24867 
L 120.988921 94.053916 
L 121.403588 90.451914 
L 121.818254 89.209778 
L 122.232921 75.904338 
L 122.647587 100.013432 
L 123.891586 100.013432 
L 124.306252 70.136644 
L 124.720919 100.013432 
L 125.135585 100.013432 
L 125.550251 53.636592 
L 125.964918 100.013432 
L 126.379584 76.473603 
L 126.794251 77.783943 
L 127.208917 100.013432 
L 127.623583 100.013432 
L 128.03825 64.107735 
L 128.452916 91.400734 
L 128.867582 100.013432 
L 129.282249 82.056932 
L 129.696915 55.602724 
L 130.111581 87.855717 
L 130.526248 100.013432 
L 130.940914 87.091039 
L 131.35558 100.013432 
L 131.770247 100.013432 
L 132.184913 80.894097 
L 132.59958 87.272224 
L 133.014246 72.826814 
L 133.428912 95.216367 
L 133.843579 93.242317 
L 134.258245 89.187292 
L 134.672911 100.013432 
L 135.087578 100.013432 
L 135.502244 82.4332 
L 135.91691 100.013432 
L 136.746243 100.013432 
L 137.16091 69.863043 
L 137.575576 91.44444 
L 137.990242 100.013432 
L 138.404909 78.586511 
L 138.819575 87.492974 
L 139.648908 82.903793 
L 140.063574 94.635139 
L 140.47824 100.013432 
L 140.892907 100.013432 
L 141.307573 73.324168 
L 141.722239 100.013432 
L 142.136906 82.780766 
L 142.551572 95.448753 
L 142.966239 95.767982 
L 143.380905 100.013432 
L 145.03957 100.013432 
L 145.454237 79.049898 
L 145.868903 100.013432 
L 146.283569 88.108521 
L 146.698236 100.013432 
L 147.527568 72.304474 
L 147.942235 100.013432 
L 148.356901 76.96631 
L 148.771568 71.789795 
L 149.186234 100.013432 
L 149.6009 100.013432 
L 150.015567 89.825503 
L 150.430233 93.880458 
L 150.844899 100.013432 
L 151.259566 100.013432 
L 151.674232 86.7438 
L 152.088898 100.013432 
L 152.918231 100.013432 
L 153.332898 94.405747 
L 153.747564 100.013432 
L 154.16223 100.013432 
L 154.576897 90.811562 
L 154.991563 74.011831 
L 155.406229 100.013432 
L 156.235562 41.142422 
L 156.650228 96.04528 
L 157.064895 70.926489 
L 157.479561 100.013432 
L 157.894227 100.013432 
L 158.308894 82.558035 
L 158.72356 100.013432 
L 159.138227 68.325134 
L 159.967559 95.746295 
L 160.796892 84.094502 
L 161.211558 73.694927 
L 161.626225 100.013432 
L 162.870224 100.013432 
L 163.28489 66.483234 
L 163.699557 100.013432 
L 164.114223 86.728146 
L 164.528889 100.013432 
L 164.943556 67.425355 
L 165.358222 100.013432 
L 165.772888 100.013432 
L 166.187555 89.171747 
L 166.602221 96.105985 
L 167.016887 88.882331 
L 167.431554 100.013432 
L 167.84622 73.549907 
L 168.260886 93.99876 
L 168.675553 54.410008 
L 169.090219 80.337995 
L 169.504886 65.790908 
L 169.919552 100.013432 
L 170.334218 71.997572 
L 170.748885 100.013432 
L 171.163551 100.013432 
L 171.992884 91.271975 
L 172.40755 100.013432 
L 172.822216 85.884953 
L 173.236883 100.013432 
L 173.651549 86.642816 
L 174.066215 100.013432 
L 174.480882 100.013432 
L 174.895548 89.911127 
L 175.310215 100.013432 
L 175.724881 100.013432 
L 176.139547 91.270856 
L 176.554214 100.013432 
L 176.96888 100.013432 
L 177.383546 92.445419 
L 177.798213 100.013432 
L 178.212879 87.659831 
L 178.627545 89.597136 
L 179.042212 100.013432 
L 179.456878 92.492584 
L 179.871545 100.013432 
L 181.115544 100.013432 
L 181.53021 59.663179 
L 181.944876 100.013432 
L 184.018208 100.013432 
L 184.432874 74.723699 
L 184.847541 100.013432 
L 185.262207 100.013432 
L 185.676874 86.642019 
L 186.09154 83.994704 
L 186.506206 80.60856 
L 186.920873 100.013432 
L 187.335539 88.034541 
L 187.750205 86.508649 
L 188.164872 70.331494 
L 188.579538 94.628326 
L 188.994204 100.013432 
L 189.823537 100.013432 
L 190.238203 95.275568 
L 190.65287 100.013432 
L 191.482203 100.013432 
L 191.896869 86.900537 
L 192.311535 66.204916 
L 192.726202 100.013432 
L 193.140868 89.139796 
L 193.555534 91.561591 
L 193.970201 73.859162 
L 194.384867 84.313285 
L 194.799533 91.595306 
L 195.2142 89.384049 
L 195.628866 100.013432 
L 196.043533 91.854703 
L 196.458199 100.013432 
L 196.872865 85.984499 
L 197.287532 90.805394 
L 197.702198 100.013432 
L 198.116864 77.457341 
L 198.531531 100.013432 
L 200.190196 100.013432 
L 200.604862 95.854718 
L 201.019529 100.013432 
L 201.434195 93.34968 
L 201.848862 88.985885 
L 202.263528 100.013432 
L 203.922193 100.013432 
L 204.33686 78.425855 
L 204.751526 78.763492 
L 205.166192 92.412114 
L 205.580859 68.955831 
L 205.995525 54.947524 
L 205.995525 54.947524 
" clip-path="url(#pfd4fe8cd7b)" style="fill: none; stroke: #ff7f0e; stroke-width: 0.9; stroke-linecap: square"/>
    </g>
    <g id="patch_7">
     <path d="M 50.49564 100.013432 
L 50.49564 35.255321 
" style="fill: none; stroke: #000000; stroke-width: 0.6; stroke-linejoin: miter; stroke-linecap: square"/>
    </g>
    <g id="patch_8">
     <path d="M 50.49564 100.013432 
L 205.995525 100.013432 
" style="fill: none; stroke: #000000; stroke-width: 0.6; stroke-linejoin: miter; stroke-linecap: square"/>
    </g>
    <g id="line2d_18">
     <path d="M 50.49564 92.626224 
L 50.910307 93.497357 
L 51.324973 93.218594 
L 52.568972 93.218594 
L 52.983639 93.114058 
L 59.203634 93.567048 
L 60.032967 93.601893 
L 62.520965 93.636738 
L 62.935631 93.741274 
L 63.350298 93.671583 
L 64.17963 93.706429 
L 65.838296 93.776119 
L 66.667628 93.776119 
L 68.74096 93.880655 
L 69.984959 93.84581 
L 71.643625 93.880655 
L 76.619621 93.985191 
L 78.692953 94.054882 
L 89.474278 94.124573 
L 90.303611 94.159418 
L 101.084936 94.194263 
L 101.499603 99.246835 
L 103.572934 99.316526 
L 160.796892 99.316526 
L 161.211558 89.281073 
L 161.626225 93.497357 
L 162.040891 93.462512 
L 162.455557 93.148904 
L 162.870224 93.25344 
L 163.28489 93.183749 
L 163.699557 93.25344 
L 164.528889 93.148904 
L 167.016887 93.392821 
L 167.431554 93.532202 
L 168.260886 93.497357 
L 171.578217 93.671583 
L 173.651549 93.776119 
L 175.310215 93.810965 
L 179.042212 93.880655 
L 179.871545 93.915501 
L 181.944876 94.020037 
L 183.188875 93.915501 
L 185.262207 94.020037 
L 186.506206 94.020037 
L 195.628866 94.124573 
L 196.872865 94.124573 
L 197.702198 94.159418 
L 198.946197 94.194263 
L 200.604862 94.159418 
L 202.263528 94.229109 
L 202.678194 94.159418 
L 203.507527 94.194263 
L 205.166192 94.229109 
L 205.995525 94.229109 
L 205.995525 94.229109 
" clip-path="url(#pfd4fe8cd7b)" style="fill: none; stroke: #2ca02c; stroke-width: 0.9; stroke-linecap: square"/>
    </g>
   </g>
  </g>
  <g id="patch_9">
   <path d="M 60.34915 98.352968 
Q 55.422395 99.1832 50.49564 100.013432 
" style="fill: none; opacity: 0.9; stroke: #595959; stroke-width: 0.5; stroke-linecap: round"/>
  </g>
  <g id="patch_10">
   <path d="M 157.536578 98.352968 
Q 181.766051 99.1832 205.995525 100.013432 
" style="fill: none; opacity: 0.9; stroke: #595959; stroke-width: 0.5; stroke-linecap: round"/>
  </g>
  <g id="legend_1">
   <g id="line2d_19">
    <path d="M 270.00601 13.67875 
L 278.00601 13.67875 
L 286.00601 13.67875 
" style="fill: none; stroke: #ff7f0e; stroke-width: 0.9; stroke-linecap: square"/>
   </g>
   <g id="text_18">
    <text style="font-size: 8px; font-family: 'Helvetica', 'Arial', 'DejaVu Sans', sans-serif; text-anchor: start" x="292.40601" y="16.47875" transform="rotate(-0 292.40601 16.47875)">Prediction</text>
   </g>
   <g id="line2d_20">
    <path d="M 348.14476 13.67875 
L 356.14476 13.67875 
L 364.14476 13.67875 
" style="fill: none; stroke: #2ca02c; stroke-width: 0.9; stroke-linecap: square"/>
   </g>
   <g id="text_19">
    <text style="font-size: 8px; font-family: 'Helvetica', 'Arial', 'DejaVu Sans', sans-serif; text-anchor: start" x="370.54476" y="16.47875" transform="rotate(-0 370.54476 16.47875)">Ground-Truth</text>
   </g>
  </g>
 </g>
 <defs>
  <clipPath id="p110598a62f">
   <rect x="37.5425" y="28.438677" width="647.65702" height="170.416083"/>
  </clipPath>
  <clipPath id="pfd4fe8cd7b">
   <rect x="50.49564" y="35.255321" width="155.499885" height="64.758111"/>
  </clipPath>
 </defs>
</svg>
