<?xml version="1.0" encoding="utf-8" standalone="no"?>
<!DOCTYPE svg PUBLIC "-//W3C//DTD SVG 1.1//EN"
  "http://www.w3.org/Graphics/SVG/1.1/DTD/svg11.dtd">
<svg xmlns:xlink="http://www.w3.org/1999/xlink" width="692.39952pt" height="232.03976pt" viewBox="0 0 692.39952 232.03976" xmlns="http://www.w3.org/2000/svg" version="1.1">
 <metadata>
  <rdf:RDF xmlns:dc="http://purl.org/dc/elements/1.1/" xmlns:cc="http://creativecommons.org/ns#" xmlns:rdf="http://www.w3.org/1999/02/22-rdf-syntax-ns#">
   <cc:Work>
    <dc:type rdf:resource="http://purl.org/dc/dcmitype/StillImage"/>
    <dc:date>2026-05-25T06:05:55.753753</dc:date>
    <dc:format>image/svg+xml</dc:format>
    <dc:creator>
     <cc:Agent>
      <dc:title>Matplotlib v3.10.9, https://matplotlib.org/</dc:title>
     </cc:Agent>
    </dc:creator>
   </cc:Work>
  </rdf:RDF>
 </metadata>
 <defs>
  <style type="text/css">*{stroke-linejoin: round; stroke-linecap: butt}</style>
 </defs>
 <g id="figure_1">
  <g id="patch_1">
   <path d="M 0 232.03976 
L 692.39952 232.03976 
L 692.39952 0 
L 0 0 
z
" style="fill: #ffffff"/>
  </g>
  <g id="axes_1">
   <g id="patch_2">
    <path d="M 44.225313 198.85476 
L 685.19952 198.85476 
L 685.19952 28.438677 
L 44.225313 28.438677 
z
" style="fill: #ffffff"/>
   </g>
   <g id="patch_3">
    <path d="M 66.796633 198.85476 
L 162.981238 198.85476 
L 162.981238 174.01162 
L 66.796633 174.01162 
L 66.796633 198.85476 
z
" clip-path="url(#p0ac698e378)" style="fill: none; stroke: #595959; stroke-width: 0.5; stroke-linejoin: miter"/>
   </g>
   <g id="matplotlib.axis_1">
    <g id="xtick_1">
     <g id="line2d_1">
      <defs>
       <path id="mc0b8a597c4" d="M 0 0 
L 0 3 
" style="stroke: #000000; stroke-width: 0.6"/>
      </defs>
      <g>
       <use xlink:href="#mc0b8a597c4" x="44.225313" y="198.85476" style="stroke: #000000; stroke-width: 0.6"/>
      </g>
     </g>
     <g id="text_1">
      <text style="font-size: 7px; font-family: 'Helvetica', 'Arial', 'DejaVu Sans', sans-serif; text-anchor: middle" x="44.225313" y="210.673666" transform="rotate(-0 44.225313 210.673666)">0</text>
     </g>
    </g>
    <g id="xtick_2">
     <g id="line2d_2">
      <g>
       <use xlink:href="#mc0b8a597c4" x="172.471452" y="198.85476" style="stroke: #000000; stroke-width: 0.6"/>
      </g>
     </g>
     <g id="text_2">
      <text style="font-size: 7px; font-family: 'Helvetica', 'Arial', 'DejaVu Sans', sans-serif; text-anchor: middle" x="172.471452" y="210.673666" transform="rotate(-0 172.471452 210.673666)">500</text>
     </g>
    </g>
    <g id="xtick_3">
     <g id="line2d_3">
      <g>
       <use xlink:href="#mc0b8a597c4" x="300.717592" y="198.85476" style="stroke: #000000; stroke-width: 0.6"/>
      </g>
     </g>
     <g id="text_3">
      <text style="font-size: 7px; font-family: 'Helvetica', 'Arial', 'DejaVu Sans', sans-serif; text-anchor: middle" x="300.717592" y="210.673666" transform="rotate(-0 300.717592 210.673666)">1000</text>
     </g>
    </g>
    <g id="xtick_4">
     <g id="line2d_4">
      <g>
       <use xlink:href="#mc0b8a597c4" x="428.963732" y="198.85476" style="stroke: #000000; stroke-width: 0.6"/>
      </g>
     </g>
     <g id="text_4">
      <text style="font-size: 7px; font-family: 'Helvetica', 'Arial', 'DejaVu Sans', sans-serif; text-anchor: middle" x="428.963732" y="210.673666" transform="rotate(-0 428.963732 210.673666)">1500</text>
     </g>
    </g>
    <g id="xtick_5">
     <g id="line2d_5">
      <g>
       <use xlink:href="#mc0b8a597c4" x="557.209872" y="198.85476" style="stroke: #000000; stroke-width: 0.6"/>
      </g>
     </g>
     <g id="text_5">
      <text style="font-size: 7px; font-family: 'Helvetica', 'Arial', 'DejaVu Sans', sans-serif; text-anchor: middle" x="557.209872" y="210.673666" transform="rotate(-0 557.209872 210.673666)">2000</text>
     </g>
    </g>
    <g id="text_6">
     <text style="font-size: 9px; font-family: 'Helvetica', 'Arial', 'DejaVu Sans', sans-serif; text-anchor: middle" x="364.712416" y="222.968041" transform="rotate(-0 364.712416 222.968041)">Sampling points</text>
    </g>
   </g>
   <g id="matplotlib.axis_2">
    <g id="ytick_1">
     <g id="line2d_6">
      <defs>
       <path id="m84ca79b041" d="M 0 0 
L -3 0 
" style="stroke: #000000; stroke-width: 0.6"/>
      </defs>
      <g>
       <use xlink:href="#m84ca79b041" x="44.225313" y="198.85476" style="stroke: #000000; stroke-width: 0.6"/>
      </g>
     </g>
     <g id="text_7">
      <text style="font-size: 7px; font-family: 'Helvetica', 'Arial', 'DejaVu Sans', sans-serif; text-anchor: end" x="37.725313" y="201.514213" transform="rotate(-0 37.725313 201.514213)">0</text>
     </g>
    </g>
    <g id="ytick_2">
     <g id="line2d_7">
      <g>
       <use xlink:href="#m84ca79b041" x="44.225313" y="170.799266" style="stroke: #000000; stroke-width: 0.6"/>
      </g>
     </g>
     <g id="text_8">
      <text style="font-size: 7px; font-family: 'Helvetica', 'Arial', 'DejaVu Sans', sans-serif; text-anchor: end" x="37.725313" y="173.458719" transform="rotate(-0 37.725313 173.458719)">200</text>
     </g>
    </g>
    <g id="ytick_3">
     <g id="line2d_8">
      <g>
       <use xlink:href="#m84ca79b041" x="44.225313" y="142.743773" style="stroke: #000000; stroke-width: 0.6"/>
      </g>
     </g>
     <g id="text_9">
      <text style="font-size: 7px; font-family: 'Helvetica', 'Arial', 'DejaVu Sans', sans-serif; text-anchor: end" x="37.725313" y="145.403226" transform="rotate(-0 37.725313 145.403226)">400</text>
     </g>
    </g>
    <g id="ytick_4">
     <g id="line2d_9">
      <g>
       <use xlink:href="#m84ca79b041" x="44.225313" y="114.688279" style="stroke: #000000; stroke-width: 0.6"/>
      </g>
     </g>
     <g id="text_10">
      <text style="font-size: 7px; font-family: 'Helvetica', 'Arial', 'DejaVu Sans', sans-serif; text-anchor: end" x="37.725313" y="117.347732" transform="rotate(-0 37.725313 117.347732)">600</text>
     </g>
    </g>
    <g id="ytick_5">
     <g id="line2d_10">
      <g>
       <use xlink:href="#m84ca79b041" x="44.225313" y="86.632785" style="stroke: #000000; stroke-width: 0.6"/>
      </g>
     </g>
     <g id="text_11">
      <text style="font-size: 7px; font-family: 'Helvetica', 'Arial', 'DejaVu Sans', sans-serif; text-anchor: end" x="37.725313" y="89.292238" transform="rotate(-0 37.725313 89.292238)">800</text>
     </g>
    </g>
    <g id="ytick_6">
     <g id="line2d_11">
      <g>
       <use xlink:href="#m84ca79b041" x="44.225313" y="58.577292" style="stroke: #000000; stroke-width: 0.6"/>
      </g>
     </g>
     <g id="text_12">
      <text style="font-size: 7px; font-family: 'Helvetica', 'Arial', 'DejaVu Sans', sans-serif; text-anchor: end" x="37.725313" y="61.236745" transform="rotate(-0 37.725313 61.236745)">1000</text>
     </g>
    </g>
    <g id="ytick_7">
     <g id="line2d_12">
      <g>
       <use xlink:href="#m84ca79b041" x="44.225313" y="30.521798" style="stroke: #000000; stroke-width: 0.6"/>
      </g>
     </g>
     <g id="text_13">
      <text style="font-size: 7px; font-family: 'Helvetica', 'Arial', 'DejaVu Sans', sans-serif; text-anchor: end" x="37.725313" y="33.181251" transform="rotate(-0 37.725313 33.181251)">1200</text>
     </g>
    </g>
    <g id="text_14">
     <text style="font-size: 9px; font-family: 'Helvetica', 'Arial', 'DejaVu Sans', sans-serif; text-anchor: middle" x="14.038594" y="113.646719" transform="rotate(-90 14.038594 113.646719)">Power (W)</text>
    </g>
   </g>
   <g id="line2d_13">
    <path d="M 44.225313 198.85476 
L 55.767465 198.85476 
L 56.023957 191.694071 
L 56.28045 198.85476 
L 57.306419 198.85476 
L 57.819403 187.413622 
L 58.332388 186.771484 
L 58.58888 188.897238 
L 58.845372 189.500562 
L 59.358357 186.648995 
L 59.614849 186.08982 
L 59.871342 186.090649 
L 60.127834 186.881678 
L 60.384326 190.117138 
L 60.640818 191.623474 
L 60.897311 198.85476 
L 61.153803 191.008174 
L 61.410295 190.97372 
L 61.666788 191.78 
L 61.92328 198.85476 
L 66.283649 198.85476 
L 66.540141 189.800973 
L 67.053125 191.571968 
L 67.309618 191.319658 
L 67.56611 191.310373 
L 67.822602 190.863045 
L 68.335587 190.724137 
L 68.592079 190.6732 
L 68.848571 191.149209 
L 69.361556 190.793004 
L 69.618048 190.603306 
L 69.87454 191.266508 
L 70.644017 190.967262 
L 70.90051 191.199067 
L 71.413494 191.075354 
L 71.669986 191.267353 
L 71.926479 191.030708 
L 72.695956 191.47778 
L 73.20894 191.36666 
L 73.978417 191.058818 
L 74.234909 191.465283 
L 74.491402 191.579131 
L 75.260878 191.293278 
L 75.517371 191.567902 
L 75.773863 191.112954 
L 76.030355 198.85476 
L 78.082293 198.85476 
L 78.338786 191.818823 
L 78.595278 198.85476 
L 78.85177 198.85476 
L 79.108263 190.842324 
L 79.364755 186.367526 
L 79.621247 185.762511 
L 79.877739 185.971561 
L 80.134232 185.63008 
L 80.390724 185.033724 
L 80.647216 185.112871 
L 81.416693 184.71896 
L 81.673185 185.013012 
L 81.929678 184.95819 
L 82.18617 185.263544 
L 82.955647 184.991417 
L 83.468631 185.064002 
L 83.981616 185.152746 
L 84.4946 185.101105 
L 85.007585 185.116034 
L 86.546539 185.153873 
L 86.803031 185.122233 
L 87.316016 185.299661 
L 87.829 185.183335 
L 88.341985 185.301764 
L 88.854969 185.22063 
L 89.367954 185.153187 
L 89.624446 185.133353 
L 89.880938 185.303469 
L 90.393923 185.378222 
L 90.650415 185.704215 
L 91.1634 185.998373 
L 91.419892 185.744602 
L 91.676384 185.300865 
L 91.932877 185.244183 
L 92.189369 185.474664 
L 92.702353 188.91506 
L 93.215338 190.544211 
L 93.47183 190.105189 
L 93.728323 187.559827 
L 93.984815 186.656767 
L 94.241307 188.690457 
L 94.497799 189.054476 
L 95.010784 188.58664 
L 95.780261 187.065824 
L 96.036753 187.443388 
L 96.293245 187.602888 
L 96.549738 187.48479 
L 97.062722 187.839529 
L 97.319214 187.550119 
L 97.575707 187.598044 
L 97.832199 187.807306 
L 98.088691 188.229702 
L 98.345184 190.407493 
L 98.601676 198.85476 
L 100.397122 198.85476 
L 100.653614 191.745826 
L 100.910106 191.308215 
L 101.166599 191.837143 
L 101.423091 198.85476 
L 102.962045 198.85476 
L 103.218537 191.691635 
L 103.475029 198.85476 
L 105.013983 198.85476 
L 105.270475 191.64226 
L 105.78346 190.58101 
L 106.039952 190.321881 
L 106.552937 190.434889 
L 107.065921 190.728564 
L 107.322413 190.329326 
L 107.578906 190.26824 
L 107.835398 190.396121 
L 108.09189 190.287116 
L 108.348382 190.451254 
L 108.604875 190.430827 
L 108.861367 190.297945 
L 109.117859 190.345022 
L 109.630844 190.125536 
L 109.887336 190.416029 
L 110.143828 190.21532 
L 110.400321 190.28474 
L 110.656813 190.069622 
L 110.913305 190.570914 
L 111.42629 190.217939 
L 111.939274 190.827517 
L 112.452259 191.840206 
L 112.708751 191.130629 
L 112.965244 191.094347 
L 113.221736 191.348646 
L 113.478228 190.149515 
L 113.73472 186.698484 
L 113.991213 185.632844 
L 114.247705 185.499777 
L 114.504197 187.236804 
L 114.760689 190.891813 
L 115.017182 198.85476 
L 135.02358 198.85476 
L 135.280072 191.508597 
L 135.536564 189.694811 
L 135.793056 189.330381 
L 136.049549 188.731431 
L 136.306041 189.034154 
L 136.562533 189.040946 
L 137.075518 188.841633 
L 137.33201 188.781827 
L 137.844995 189.044009 
L 138.101487 189.270804 
L 138.614472 189.189888 
L 139.127456 189.26913 
L 140.153425 189.324479 
L 141.435887 189.400665 
L 142.205363 189.631875 
L 142.718348 189.694883 
L 143.231333 189.637052 
L 143.487825 189.778557 
L 143.744317 189.685749 
L 144.257302 189.789901 
L 144.513794 189.648577 
L 144.770286 189.964622 
L 145.283271 189.721824 
L 145.539763 189.921922 
L 145.796255 189.720439 
L 146.052748 189.745125 
L 146.30924 189.950071 
L 146.565732 189.798846 
L 146.822224 189.973044 
L 147.335209 189.83694 
L 147.591701 189.900763 
L 148.104686 189.781874 
L 148.361178 189.901576 
L 148.61767 189.69549 
L 149.130655 189.822707 
L 149.387147 189.722624 
L 149.64364 189.94319 
L 150.156624 189.726616 
L 150.413116 189.910031 
L 150.669609 189.762304 
L 151.182593 189.902948 
L 152.465055 189.782196 
L 152.721547 189.963125 
L 153.234531 190.81981 
L 153.491024 190.438242 
L 154.004008 191.468641 
L 154.260501 191.479807 
L 154.516993 191.766448 
L 154.773485 191.687637 
L 155.542962 191.780014 
L 155.799454 198.85476 
L 156.055947 198.85476 
L 156.312439 191.273544 
L 156.568931 191.475156 
L 156.825423 191.375512 
L 157.081916 190.813969 
L 157.338408 191.160865 
L 157.5949 191.238414 
L 157.851393 191.169042 
L 158.107885 191.45416 
L 158.364377 191.004599 
L 158.620869 191.291502 
L 158.877362 198.85476 
L 159.133854 191.631246 
L 159.646838 191.809747 
L 160.159823 191.599329 
L 160.416315 191.728434 
L 160.672808 198.85476 
L 160.9293 198.85476 
L 161.185792 191.830963 
L 161.442284 198.85476 
L 161.698777 191.785045 
L 162.211761 191.501817 
L 162.468254 191.588507 
L 162.724746 198.85476 
L 183.50062 198.85476 
L 183.757113 191.535405 
L 184.013605 191.783331 
L 184.270097 198.85476 
L 184.783082 198.85476 
L 185.039574 191.525682 
L 185.296066 190.956843 
L 185.552559 191.145109 
L 185.809051 191.059421 
L 186.065543 198.85476 
L 187.091512 198.85476 
L 187.348005 191.823819 
L 187.604497 190.897573 
L 187.860989 191.620374 
L 188.117482 190.290487 
L 188.373974 190.38783 
L 188.886958 191.164562 
L 189.143451 198.85476 
L 202.737541 198.85476 
L 202.994034 189.614035 
L 203.250526 188.445999 
L 203.507018 188.776202 
L 203.763511 188.536715 
L 204.020003 189.214327 
L 204.276495 188.337867 
L 204.532987 187.950647 
L 204.78948 188.826136 
L 205.045972 187.439952 
L 205.302464 187.667927 
L 205.558957 187.411098 
L 205.815449 188.280182 
L 206.071941 188.201554 
L 206.328433 189.263052 
L 206.584926 189.213858 
L 206.841418 191.101307 
L 207.09791 188.785837 
L 207.354403 188.033107 
L 207.610895 187.819469 
L 208.123879 186.308875 
L 208.380372 186.568119 
L 208.636864 186.61771 
L 208.893356 187.515443 
L 209.149848 186.760603 
L 209.406341 186.656274 
L 209.919325 187.079871 
L 210.688802 187.877851 
L 210.945294 189.170356 
L 211.201787 189.153482 
L 211.458279 189.544744 
L 211.714771 189.077528 
L 211.971264 188.874556 
L 212.227756 188.064396 
L 212.74074 189.032239 
L 212.997233 189.131669 
L 213.253725 189.652109 
L 213.510217 189.679456 
L 213.76671 189.402197 
L 214.279694 187.450812 
L 214.536186 187.436283 
L 215.049171 187.148135 
L 215.305663 187.671655 
L 215.562155 187.290223 
L 215.818648 187.218445 
L 216.331632 187.521494 
L 216.588125 188.137635 
L 216.844617 188.36566 
L 217.101109 188.025917 
L 217.614094 190.100578 
L 217.870586 189.676804 
L 218.127078 188.262894 
L 218.640063 189.208067 
L 219.153047 191.332299 
L 219.40954 191.265699 
L 219.666032 190.759488 
L 219.922524 189.917039 
L 220.179017 189.889301 
L 220.435509 189.614614 
L 220.692001 189.514402 
L 220.948493 190.000888 
L 221.204986 190.167299 
L 221.461478 189.450496 
L 221.71797 189.643271 
L 221.974462 189.996285 
L 223.000432 189.900578 
L 223.256924 190.042577 
L 223.513416 189.883526 
L 224.026401 190.995485 
L 224.282893 198.85476 
L 229.412739 198.85476 
L 229.669231 191.352692 
L 229.925723 190.013929 
L 230.182215 189.914 
L 230.438708 189.123479 
L 230.6952 198.85476 
L 269.169042 198.85476 
L 269.425534 190.805089 
L 269.938519 190.476203 
L 270.195011 190.56857 
L 270.451503 190.493449 
L 271.22098 190.768243 
L 271.477473 191.216844 
L 271.733965 190.988097 
L 272.246949 190.143747 
L 272.503442 190.216759 
L 273.016426 190.771413 
L 273.272918 190.856208 
L 273.529411 191.185762 
L 273.785903 190.959813 
L 274.042395 190.237931 
L 274.298888 190.037084 
L 274.55538 190.283071 
L 275.068364 191.255683 
L 275.324857 191.344258 
L 276.094334 189.76574 
L 276.607318 190.859082 
L 277.120303 191.45621 
L 277.633287 191.170902 
L 277.889779 190.511015 
L 278.402764 190.370454 
L 278.659256 198.85476 
L 280.711195 198.85476 
L 280.967687 191.8331 
L 281.224179 191.787366 
L 281.737164 191.075664 
L 281.993656 190.954283 
L 282.506641 190.045642 
L 282.763133 190.158777 
L 283.019625 190.698238 
L 283.276117 191.801741 
L 283.53261 190.980955 
L 283.789102 190.610152 
L 284.302086 191.435439 
L 284.558579 198.85476 
L 284.815071 198.85476 
L 285.071563 190.767182 
L 285.328056 191.378075 
L 285.584548 198.85476 
L 289.944917 198.85476 
L 290.201409 190.588375 
L 290.714393 191.513628 
L 290.970886 191.381836 
L 291.227378 190.819804 
L 291.48387 198.85476 
L 291.740363 191.74973 
L 291.996855 198.85476 
L 292.253347 191.257796 
L 292.509839 190.666796 
L 292.766332 191.283712 
L 293.022824 191.400669 
L 293.279316 190.724095 
L 293.535809 191.361095 
L 294.048793 191.036176 
L 294.305285 191.428816 
L 294.81827 190.952784 
L 295.074762 191.197099 
L 295.331255 190.754151 
L 295.587747 190.045871 
L 295.844239 190.885209 
L 296.100731 198.85476 
L 306.616915 198.85476 
L 306.873407 190.252105 
L 307.129899 190.019226 
L 307.386392 189.58299 
L 307.642884 189.651559 
L 307.899376 189.470408 
L 308.155869 190.293817 
L 308.412361 189.819648 
L 308.668853 190.261063 
L 308.925345 189.710295 
L 309.181838 189.96513 
L 309.43833 189.759568 
L 309.694822 189.314209 
L 309.951314 189.390416 
L 310.207807 189.602407 
L 310.464299 189.062346 
L 310.977284 190.079461 
L 311.233776 190.087927 
L 311.490268 190.413917 
L 312.259745 189.729907 
L 312.516237 189.63428 
L 313.029222 190.208881 
L 313.285714 189.769373 
L 313.542206 190.023545 
L 313.798699 189.998225 
L 314.055191 189.727954 
L 314.568176 188.936919 
L 314.824668 189.801618 
L 315.08116 190.148987 
L 315.594145 190.274718 
L 315.850637 190.458837 
L 316.107129 189.697054 
L 316.620114 190.135249 
L 316.876606 190.035498 
L 317.133098 190.272269 
L 317.389591 189.669157 
L 317.646083 189.909908 
L 317.902575 189.52973 
L 318.159067 189.58096 
L 318.41556 189.843545 
L 318.672052 189.5105 
L 318.928544 188.397277 
L 319.185037 187.898571 
L 319.441529 187.870655 
L 319.698021 188.922247 
L 320.211006 190.127719 
L 320.467498 190.178239 
L 320.72399 190.42925 
L 320.980483 189.858276 
L 321.236975 189.911142 
L 321.749959 189.445177 
L 322.006452 189.842149 
L 322.262944 189.665805 
L 322.519436 189.901805 
L 322.775928 189.4881 
L 323.288913 190.213828 
L 324.05839 189.6012 
L 324.314882 189.917297 
L 324.571374 189.899173 
L 324.827867 189.589937 
L 325.084359 188.911624 
L 325.597344 190.281897 
L 325.853836 190.082451 
L 326.110328 189.109292 
L 326.623313 189.852331 
L 326.879805 189.673228 
L 327.136297 190.168398 
L 327.39279 190.065145 
L 327.649282 189.443345 
L 327.905774 189.916397 
L 328.418759 189.560375 
L 328.675251 188.470458 
L 328.931743 189.512213 
L 329.188235 189.335399 
L 329.444728 190.834722 
L 329.70122 190.205652 
L 329.957712 190.42256 
L 330.214205 191.102966 
L 330.470697 190.827597 
L 330.727189 191.085262 
L 330.983681 189.73418 
L 331.240174 190.945893 
L 331.496666 190.795061 
L 331.753158 190.114355 
L 332.009651 190.290155 
L 332.266143 189.942132 
L 332.522635 190.026706 
L 332.779127 190.703708 
L 333.03562 190.63683 
L 333.548604 191.000694 
L 333.805097 190.713196 
L 334.061589 190.11355 
L 334.318081 188.122482 
L 334.574573 184.892457 
L 334.831066 184.527297 
L 335.087558 184.570133 
L 335.857035 183.701853 
L 336.113527 183.909909 
L 336.370019 183.635256 
L 336.883004 184.07689 
L 337.139496 183.922864 
L 337.395988 184.439178 
L 337.652481 184.288432 
L 337.908973 184.428191 
L 338.165465 184.280775 
L 338.934942 184.520136 
L 339.191434 184.481156 
L 339.704419 184.72461 
L 340.217404 184.432487 
L 340.98688 184.889663 
L 341.243373 184.540456 
L 342.012849 184.488411 
L 342.269342 184.304535 
L 342.525834 184.337141 
L 342.782326 184.603666 
L 343.038819 184.423228 
L 343.295311 184.529153 
L 343.551803 184.340456 
L 343.808295 184.572347 
L 344.064788 184.289931 
L 344.577772 184.284127 
L 345.090757 184.111932 
L 345.347249 184.32787 
L 345.603741 184.380194 
L 345.860234 184.261982 
L 346.373218 184.460823 
L 346.629711 184.500589 
L 347.142695 184.098732 
L 347.912172 184.233781 
L 348.168664 184.091516 
L 348.425156 184.115337 
L 348.938141 184.339994 
L 349.194633 184.006496 
L 349.707618 184.170254 
L 349.96411 184.171348 
L 350.220602 184.387064 
L 350.477095 184.453353 
L 350.733587 184.679269 
L 350.990079 184.604645 
L 351.246572 184.807794 
L 351.759556 183.912037 
L 352.016048 184.148864 
L 352.529033 185.035997 
L 352.785525 184.792395 
L 353.042018 184.736973 
L 353.29851 184.838489 
L 354.067987 184.636956 
L 354.324479 184.910783 
L 354.580971 185.016007 
L 354.837463 184.456145 
L 355.093956 184.75868 
L 355.350448 184.704308 
L 355.60694 184.817338 
L 355.863433 184.699282 
L 356.119925 185.21389 
L 356.376417 185.229552 
L 357.145894 184.519624 
L 357.402386 184.357801 
L 357.658879 184.06057 
L 358.171863 184.860281 
L 358.684848 184.922378 
L 358.94134 185.136783 
L 359.197832 185.022948 
L 359.454325 185.842498 
L 359.710817 185.407924 
L 359.967309 186.533732 
L 360.223801 186.945704 
L 360.480294 189.973314 
L 360.736786 191.216204 
L 360.993278 190.840293 
L 361.24977 191.09141 
L 361.506263 190.660437 
L 361.762755 191.15725 
L 362.019247 190.583107 
L 362.27574 191.323034 
L 362.532232 191.362163 
L 362.788724 191.032807 
L 363.045216 191.550669 
L 363.301709 191.242958 
L 363.558201 191.684275 
L 363.814693 190.811713 
L 364.071186 191.173189 
L 364.327678 191.251 
L 364.58417 190.799137 
L 364.840662 188.900148 
L 365.097155 190.516845 
L 365.353647 190.286197 
L 365.610139 190.832192 
L 365.866632 190.715372 
L 366.123124 190.141651 
L 366.379616 190.006379 
L 366.636108 189.537248 
L 366.892601 189.729637 
L 367.149093 190.730894 
L 367.405585 190.595899 
L 367.662077 189.981034 
L 367.91857 190.70395 
L 368.175062 190.716503 
L 368.688047 190.411056 
L 368.944539 188.578338 
L 369.201031 189.757973 
L 369.457523 190.290281 
L 369.714016 189.903531 
L 369.970508 190.361877 
L 370.227 190.368732 
L 370.483493 189.16824 
L 370.739985 190.240016 
L 370.996477 190.454667 
L 371.252969 189.87741 
L 371.765954 190.038136 
L 372.022446 189.622635 
L 372.278939 190.047301 
L 372.535431 190.003219 
L 372.791923 189.291175 
L 373.048415 190.008749 
L 373.304908 189.423052 
L 373.5614 189.74588 
L 373.817892 188.564455 
L 374.074384 189.68088 
L 374.330877 189.589854 
L 374.587369 189.112032 
L 374.843861 188.34328 
L 375.356846 190.12881 
L 375.613338 189.853454 
L 375.86983 190.264948 
L 376.126323 190.014943 
L 376.382815 190.270386 
L 376.639307 190.107529 
L 376.8958 189.436984 
L 377.665276 189.345351 
L 377.921769 189.48693 
L 378.691246 191.241473 
L 378.947738 190.652752 
L 379.20423 191.393656 
L 379.460722 198.85476 
L 463.077206 198.85476 
L 463.333698 189.929058 
L 463.59019 186.397775 
L 463.846682 185.279409 
L 464.103175 185.316059 
L 464.359667 186.225282 
L 464.616159 186.518941 
L 464.872652 186.079581 
L 465.129144 183.202966 
L 465.385636 183.481318 
L 465.642128 185.324029 
L 466.155113 184.378488 
L 466.411605 183.27443 
L 466.668098 182.960743 
L 466.92459 182.2976 
L 467.181082 182.031802 
L 467.437574 182.604773 
L 467.694067 182.59003 
L 467.950559 182.290799 
L 468.207051 182.517627 
L 468.463543 182.408926 
L 470.258989 182.795696 
L 470.771974 182.89139 
L 471.284959 182.629214 
L 471.797943 183.06896 
L 472.054435 183.196877 
L 473.593389 183.195566 
L 473.849881 183.351846 
L 474.362866 182.986987 
L 475.132343 183.205788 
L 475.388835 183.082935 
L 475.90182 183.181178 
L 476.414804 183.054936 
L 477.184281 183.323788 
L 477.953758 183.067345 
L 478.723235 183.3923 
L 478.979727 183.375798 
L 479.749204 183.111053 
L 480.005696 183.097788 
L 480.518681 183.259746 
L 482.570619 183.151087 
L 483.083603 182.963484 
L 484.109573 183.187098 
L 485.135542 183.404591 
L 485.648526 183.112597 
L 486.161511 183.793669 
L 486.418003 183.656051 
L 486.674495 183.780904 
L 486.930988 184.200715 
L 487.18748 183.805251 
L 487.443972 184.54382 
L 487.700464 183.75296 
L 488.213449 187.119642 
L 488.469941 198.85476 
L 527.969752 198.85476 
L 528.226245 187.651875 
L 528.482737 184.484269 
L 528.739229 184.03064 
L 529.765198 183.426275 
L 530.278183 182.590293 
L 530.534675 182.908677 
L 530.791167 183.047341 
L 531.304152 182.550135 
L 531.560644 182.50908 
L 532.073629 182.642853 
L 532.330121 182.566567 
L 532.843106 182.965907 
L 533.612583 182.606072 
L 534.125567 182.972514 
L 534.895044 182.972031 
L 535.408029 182.845623 
L 535.664521 182.816118 
L 536.69049 183.121372 
L 536.946982 182.966609 
L 538.485936 183.237242 
L 539.511905 183.120294 
L 539.768397 183.271209 
L 540.537874 183.334169 
L 540.794366 183.502269 
L 542.33332 183.388315 
L 542.846305 183.57572 
L 543.102797 183.632606 
L 544.128766 183.421632 
L 544.898243 183.766315 
L 545.154735 183.71689 
L 545.66772 183.832893 
L 547.206673 183.393473 
L 548.232643 183.453272 
L 548.745627 183.284917 
L 549.258612 183.55456 
L 549.771596 183.922058 
L 550.028088 184.027554 
L 550.797565 183.813783 
L 551.054058 184.063464 
L 551.31055 183.882015 
L 551.567042 184.117137 
L 551.823534 184.5696 
L 552.080027 184.215464 
L 552.336519 184.900634 
L 552.593011 183.890321 
L 552.849504 185.210542 
L 553.105996 187.34213 
L 553.362488 198.85476 
L 591.83633 198.85476 
L 592.092822 191.641747 
L 592.349315 198.85476 
L 593.118792 198.85476 
L 593.375284 190.253488 
L 593.631776 187.536381 
L 593.888268 187.387237 
L 594.144761 188.852848 
L 594.401253 189.414854 
L 594.657745 190.924832 
L 594.914237 190.011028 
L 595.17073 186.737046 
L 595.427222 187.700318 
L 595.683714 189.639398 
L 595.940207 188.902581 
L 596.196699 187.505663 
L 596.709683 185.760308 
L 596.966176 183.597995 
L 597.222668 183.173007 
L 597.47916 184.173631 
L 597.735653 184.363507 
L 597.992145 183.330068 
L 598.248637 183.46908 
L 598.761622 183.373826 
L 599.018114 183.231147 
L 600.044083 183.696539 
L 600.557068 183.738362 
L 602.352514 184.17355 
L 602.609006 184.273451 
L 603.634975 184.087779 
L 604.14796 184.12759 
L 604.404452 184.294035 
L 604.917436 184.251268 
L 605.173929 184.172772 
L 605.430421 184.315685 
L 606.45639 184.162904 
L 607.225867 184.432955 
L 607.738851 184.539512 
L 608.251836 184.410225 
L 608.508328 184.477437 
L 608.764821 184.669846 
L 609.021313 184.644343 
L 609.534297 184.815987 
L 609.79079 184.684777 
L 610.047282 184.329604 
L 610.303774 184.388967 
L 610.816759 185.039578 
L 611.073251 185.096414 
L 611.586236 184.797996 
L 612.09922 184.423583 
L 612.355713 184.368653 
L 612.868697 184.627917 
L 613.125189 184.693005 
L 613.381682 184.643437 
L 614.151158 184.894407 
L 614.664143 184.907282 
L 614.920635 185.164247 
L 615.177128 185.044445 
L 615.43362 184.785241 
L 615.690112 184.352465 
L 615.946604 184.789448 
L 616.203097 184.512943 
L 616.459589 184.694817 
L 616.716081 185.219408 
L 616.972574 184.886888 
L 617.229066 185.228298 
L 617.485558 184.80632 
L 617.74205 185.992986 
L 617.998543 187.891423 
L 618.255035 198.85476 
L 658.780815 198.85476 
L 659.037307 185.180157 
L 659.2938 185.118943 
L 660.063277 183.80173 
L 660.319769 184.113716 
L 660.576261 184.079605 
L 660.832753 183.326145 
L 661.089246 183.714241 
L 661.345738 184.438535 
L 661.60223 184.191409 
L 661.858723 183.58601 
L 662.115215 183.371838 
L 662.371707 183.640292 
L 662.628199 183.628669 
L 662.884692 183.35919 
L 663.141184 183.570256 
L 663.654168 183.545899 
L 663.910661 183.339264 
L 664.680138 183.919916 
L 665.449614 183.687719 
L 665.706107 183.471712 
L 665.962599 183.654304 
L 666.475584 183.799343 
L 666.732076 183.594924 
L 667.24506 183.786978 
L 667.758045 184.062357 
L 668.27103 183.982817 
L 668.784014 183.662979 
L 669.040506 183.720694 
L 669.296999 184.01161 
L 670.57946 184.467554 
L 671.348937 184.12569 
L 672.631398 184.420701 
L 672.887891 184.174411 
L 673.144383 184.163297 
L 673.657367 184.629926 
L 674.683337 184.037907 
L 674.939829 184.224391 
L 675.452813 184.87133 
L 675.965798 184.706901 
L 676.735275 184.310603 
L 677.504752 184.367797 
L 678.017736 184.556827 
L 678.530721 184.835129 
L 678.787213 184.569057 
L 679.043705 184.501658 
L 680.069674 185.145315 
L 680.326167 184.827557 
L 680.582659 184.11824 
L 680.839151 184.025278 
L 681.352136 184.740153 
L 681.608628 185.396887 
L 681.86512 185.620401 
L 682.121613 185.146971 
L 682.378105 184.295797 
L 682.634597 184.350645 
L 682.891089 185.816884 
L 683.147582 189.72016 
L 683.404074 198.85476 
L 685.19952 198.85476 
L 685.19952 198.85476 
" clip-path="url(#p0ac698e378)" style="fill: none; stroke: #ff7f0e; stroke-width: 0.9; stroke-linecap: square"/>
   </g>
   <g id="patch_4">
    <path d="M 44.225313 198.85476 
L 44.225313 28.438677 
" style="fill: none; stroke: #000000; stroke-width: 0.6; stroke-linejoin: miter; stroke-linecap: square"/>
   </g>
   <g id="patch_5">
    <path d="M 44.225313 198.85476 
L 685.19952 198.85476 
" style="fill: none; stroke: #000000; stroke-width: 0.6; stroke-linejoin: miter; stroke-linecap: square"/>
   </g>
   <g id="line2d_14">
    <path d="M 44.225313 197.311708 
L 53.202542 197.311708 
L 53.459035 197.451985 
L 53.715527 197.311708 
L 57.819403 197.311708 
L 58.075896 197.451985 
L 58.332388 197.311708 
L 66.027156 197.311708 
L 66.283649 197.451985 
L 66.540141 197.381847 
L 66.796633 183.985348 
L 67.053125 185.738817 
L 67.309618 185.177707 
L 67.822602 185.247846 
L 68.079095 185.177707 
L 68.335587 184.967291 
L 68.592079 185.037429 
L 68.848571 184.967291 
L 69.87454 185.317984 
L 70.387525 185.668678 
L 70.644017 185.528401 
L 70.90051 185.528401 
L 71.413494 185.738817 
L 72.182971 185.879094 
L 72.439463 185.808955 
L 72.695956 185.949233 
L 73.465432 186.019372 
L 73.721925 186.08951 
L 74.234909 186.019372 
L 74.491402 186.229788 
L 74.747894 186.08951 
L 75.004386 186.229788 
L 75.260878 186.159649 
L 75.773863 186.229788 
L 76.799832 186.299927 
L 77.312817 186.370065 
L 77.825801 186.370065 
L 78.082293 186.510343 
L 78.595278 186.370065 
L 79.364755 186.510343 
L 79.621247 186.440204 
L 80.390724 186.580482 
L 80.647216 186.510343 
L 80.903709 186.65062 
L 82.442662 186.65062 
L 82.699154 186.510343 
L 83.212139 186.790898 
L 83.725124 186.720759 
L 84.4946 186.861036 
L 84.751093 186.790898 
L 85.007585 186.931175 
L 85.264077 186.790898 
L 85.52057 186.790898 
L 85.777062 186.931175 
L 86.290046 186.861036 
L 86.546539 187.071453 
L 86.803031 186.931175 
L 88.854969 186.931175 
L 89.111461 187.071453 
L 91.932877 187.071453 
L 92.189369 187.21173 
L 92.445861 187.001314 
L 92.958846 187.071453 
L 93.47183 187.071453 
L 93.728323 187.21173 
L 94.241307 187.071453 
L 94.497799 187.141591 
L 94.754292 187.071453 
L 95.523768 187.21173 
L 97.319214 187.141591 
L 97.575707 187.071453 
L 97.832199 187.21173 
L 98.088691 187.141591 
L 98.345184 197.311708 
L 99.11466 197.451985 
L 99.371153 197.381847 
L 99.884137 197.451985 
L 101.166599 197.381847 
L 101.423091 197.311708 
L 101.679583 197.451985 
L 101.936075 197.451985 
L 102.192568 197.311708 
L 102.44906 197.451985 
L 102.705552 197.451985 
L 102.962045 197.311708 
L 103.218537 197.451985 
L 103.475029 197.381847 
L 103.731521 197.451985 
L 103.988014 197.311708 
L 105.526967 197.381847 
L 106.039952 197.451985 
L 106.552937 197.381847 
L 106.809429 197.311708 
L 107.065921 197.451985 
L 107.322413 197.381847 
L 107.835398 197.451985 
L 108.604875 197.311708 
L 108.861367 197.381847 
L 109.117859 197.311708 
L 109.374352 197.451985 
L 110.143828 197.381847 
L 110.400321 197.311708 
L 110.656813 197.451985 
L 111.42629 197.311708 
L 111.682782 197.451985 
L 111.939274 197.451985 
L 112.195767 197.311708 
L 112.452259 197.311708 
L 112.708751 197.451985 
L 112.965244 197.311708 
L 113.478228 197.311708 
L 113.73472 197.451985 
L 113.991213 197.311708 
L 120.40352 197.311708 
L 120.660012 197.451985 
L 120.916504 197.311708 
L 132.202165 197.311708 
L 132.458657 197.451985 
L 132.715149 197.311708 
L 134.767087 197.381847 
L 135.02358 197.451985 
L 135.280072 177.25203 
L 135.536564 185.738817 
L 135.793056 185.668678 
L 136.049549 185.037429 
L 136.306041 185.247846 
L 136.562533 185.107568 
L 136.819026 185.247846 
L 137.33201 185.037429 
L 138.870964 185.528401 
L 139.127456 185.808955 
L 139.383948 185.668678 
L 140.153425 185.879094 
L 140.409917 185.808955 
L 140.922902 186.08951 
L 141.179394 185.949233 
L 142.461856 186.229788 
L 142.97484 186.299927 
L 143.487825 186.370065 
L 144.257302 186.370065 
L 144.513794 186.510343 
L 146.30924 186.510343 
L 146.565732 186.65062 
L 146.822224 186.580482 
L 147.335209 186.65062 
L 147.848194 186.65062 
L 148.104686 186.790898 
L 148.361178 186.65062 
L 149.130655 186.65062 
L 149.387147 186.790898 
L 149.64364 186.720759 
L 150.156624 186.790898 
L 150.413116 186.720759 
L 150.926101 186.790898 
L 152.208562 186.790898 
L 152.465055 186.931175 
L 156.568931 187.001314 
L 156.825423 187.071453 
L 157.5949 186.931175 
L 158.107885 187.141591 
L 158.364377 187.071453 
L 158.620869 187.141591 
L 159.133854 187.071453 
L 159.390346 187.141591 
L 159.646838 187.071453 
L 159.903331 187.141591 
L 160.416315 187.071453 
L 160.672808 187.21173 
L 160.9293 187.071453 
L 161.185792 187.21173 
L 161.442284 187.141591 
L 161.955269 187.21173 
L 164.520192 187.21173 
L 165.033176 197.451985 
L 166.828622 197.451985 
L 167.085115 197.311708 
L 167.341607 197.381847 
L 167.854591 197.311708 
L 168.367576 197.451985 
L 168.624068 197.311708 
L 168.880561 197.451985 
L 169.137053 197.311708 
L 169.393545 197.381847 
L 169.650037 197.311708 
L 169.90653 197.451985 
L 170.163022 197.381847 
L 170.419514 197.451985 
L 170.676006 197.311708 
L 170.932499 197.451985 
L 171.188991 197.311708 
L 171.445483 197.381847 
L 171.701976 197.311708 
L 171.958468 197.451985 
L 172.21496 197.381847 
L 172.727945 197.451985 
L 173.240929 197.311708 
L 174.010406 197.451985 
L 174.266898 197.311708 
L 174.523391 197.451985 
L 174.779883 197.381847 
L 175.292868 197.451985 
L 176.062344 197.311708 
L 176.318837 197.381847 
L 176.831821 197.311708 
L 177.088313 197.381847 
L 177.344806 197.311708 
L 177.85779 197.451985 
L 178.114283 197.311708 
L 178.627267 197.451985 
L 179.140252 197.381847 
L 179.653236 197.451985 
L 179.909729 197.311708 
L 180.166221 197.381847 
L 180.679205 197.311708 
L 180.935698 197.381847 
L 181.448682 197.311708 
L 181.961667 197.311708 
L 182.218159 197.451985 
L 182.474651 197.311708 
L 182.731144 197.451985 
L 183.244128 197.381847 
L 183.50062 197.451985 
L 183.757113 197.311708 
L 184.52659 197.381847 
L 184.783082 197.451985 
L 185.039574 197.311708 
L 185.296066 197.381847 
L 185.552559 197.311708 
L 185.809051 197.381847 
L 186.322036 197.311708 
L 187.348005 197.311708 
L 187.604497 197.451985 
L 187.860989 197.311708 
L 188.117482 197.311708 
L 188.373974 197.451985 
L 188.630466 197.381847 
L 188.886958 197.451985 
L 189.143451 197.311708 
L 189.399943 197.451985 
L 189.656435 197.311708 
L 190.682404 197.381847 
L 190.938897 197.451985 
L 191.195389 197.311708 
L 191.451881 197.451985 
L 191.708373 197.311708 
L 191.964866 197.381847 
L 192.221358 197.311708 
L 192.990835 197.451985 
L 193.247327 197.381847 
L 193.503819 197.451985 
L 193.760312 197.311708 
L 194.016804 197.381847 
L 194.273296 197.311708 
L 194.786281 197.381847 
L 195.042773 197.311708 
L 195.299265 197.381847 
L 195.81225 197.311708 
L 196.325234 197.451985 
L 196.838219 197.381847 
L 197.094711 197.451985 
L 197.351204 197.311708 
L 197.607696 197.381847 
L 197.864188 197.311708 
L 198.12068 197.381847 
L 198.633665 197.311708 
L 198.890157 197.451985 
L 199.14665 197.311708 
L 199.916126 197.451985 
L 200.172619 197.451985 
L 200.429111 197.311708 
L 201.711572 197.381847 
L 201.968065 197.451985 
L 202.224557 197.311708 
L 202.737541 197.381847 
L 202.994034 189.035337 
L 203.250526 185.388123 
L 203.507018 185.808955 
L 203.763511 185.317984 
L 204.020003 185.528401 
L 204.276495 185.107568 
L 204.532987 185.107568 
L 204.78948 185.247846 
L 205.045972 185.107568 
L 205.558957 185.107568 
L 206.328433 185.458262 
L 206.584926 185.388123 
L 206.841418 185.738817 
L 207.610895 185.808955 
L 207.867387 185.879094 
L 208.123879 185.808955 
L 209.662833 186.159649 
L 209.919325 186.08951 
L 210.175818 186.229788 
L 210.43231 186.159649 
L 211.458279 186.370065 
L 211.714771 186.299927 
L 212.74074 186.510343 
L 213.510217 186.510343 
L 213.76671 186.65062 
L 214.023202 186.580482 
L 214.536186 186.65062 
L 216.07514 186.720759 
L 216.588125 186.790898 
L 217.357601 186.861036 
L 217.870586 186.931175 
L 218.127078 186.861036 
L 218.383571 186.931175 
L 218.896555 186.790898 
L 219.153047 186.931175 
L 222.743939 187.001314 
L 223.256924 187.071453 
L 223.513416 187.071453 
L 223.769908 186.931175 
L 224.026401 187.071453 
L 226.334831 187.071453 
L 226.591324 187.21173 
L 226.847816 187.071453 
L 227.104308 187.21173 
L 230.6952 187.21173 
L 230.951692 197.451985 
L 231.208185 197.311708 
L 231.464677 197.311708 
L 231.721169 197.451985 
L 232.234154 197.451985 
L 232.490646 197.311708 
L 233.003631 197.381847 
L 233.516615 197.311708 
L 233.773107 197.381847 
L 234.0296 197.311708 
L 234.286092 197.451985 
L 234.542584 197.451985 
L 234.799076 197.311708 
L 235.055569 197.381847 
L 235.312061 197.311708 
L 235.568553 197.451985 
L 236.594522 197.451985 
L 236.851015 197.311708 
L 237.107507 197.451985 
L 237.876984 197.451985 
L 238.133476 197.311708 
L 238.389968 197.451985 
L 238.902953 197.451985 
L 239.159445 197.311708 
L 239.928922 197.381847 
L 240.185414 197.451985 
L 240.698399 197.311708 
L 240.954891 197.381847 
L 241.467876 197.311708 
L 242.237353 197.311708 
L 242.493845 197.451985 
L 242.750337 197.451985 
L 243.006829 197.311708 
L 243.263322 197.311708 
L 243.519814 197.451985 
L 243.776306 197.381847 
L 244.289291 197.451985 
L 244.545783 197.311708 
L 244.802275 197.451985 
L 245.058768 197.311708 
L 245.31526 197.311708 
L 245.571752 197.451985 
L 245.828245 197.311708 
L 246.084737 197.381847 
L 246.341229 197.311708 
L 246.597721 197.381847 
L 246.854214 197.311708 
L 247.367198 197.381847 
L 247.62369 197.311708 
L 248.393167 197.451985 
L 248.64966 197.311708 
L 250.188613 197.311708 
L 250.445106 197.451985 
L 250.95809 197.311708 
L 251.471075 197.451985 
L 251.727567 197.311708 
L 252.753536 197.381847 
L 253.266521 197.451985 
L 253.779505 197.311708 
L 254.035997 197.381847 
L 254.29249 197.311708 
L 254.548982 197.381847 
L 255.061967 197.311708 
L 255.318459 197.311708 
L 255.574951 197.451985 
L 255.831443 197.311708 
L 256.344428 197.311708 
L 256.60092 197.451985 
L 256.857413 197.311708 
L 257.626889 197.381847 
L 257.883382 197.451985 
L 258.139874 197.311708 
L 258.396366 197.451985 
L 258.909351 197.381847 
L 259.422335 197.451985 
L 261.217781 197.451985 
L 261.474274 197.311708 
L 263.013227 197.381847 
L 263.26972 197.451985 
L 263.526212 197.311708 
L 264.039196 197.451985 
L 264.295689 197.311708 
L 264.552181 197.451985 
L 264.808673 197.311708 
L 265.321658 197.451985 
L 265.57815 197.311708 
L 266.347627 197.451985 
L 266.604119 197.311708 
L 266.860611 197.381847 
L 267.373596 197.311708 
L 267.630088 197.381847 
L 268.143073 197.311708 
L 268.399565 197.451985 
L 268.656057 197.311708 
L 268.91255 197.381847 
L 269.425534 185.388123 
L 269.682027 185.738817 
L 269.938519 184.967291 
L 270.451503 185.458262 
L 270.964488 185.177707 
L 272.246949 185.247846 
L 273.272918 185.738817 
L 273.529411 185.668678 
L 273.785903 185.808955 
L 274.55538 185.879094 
L 275.581349 186.08951 
L 276.094334 186.159649 
L 276.86381 186.370065 
L 277.120303 186.229788 
L 278.146272 186.510343 
L 278.402764 186.370065 
L 279.172241 186.510343 
L 279.685225 186.510343 
L 279.941718 186.65062 
L 280.19821 186.65062 
L 280.454702 186.510343 
L 280.967687 186.790898 
L 281.224179 186.65062 
L 281.480671 186.720759 
L 281.993656 186.65062 
L 282.250148 186.790898 
L 283.53261 186.861036 
L 283.789102 181.460354 
L 284.045594 186.790898 
L 284.302086 186.931175 
L 284.558579 186.790898 
L 284.815071 186.931175 
L 286.867009 186.931175 
L 287.123502 187.071453 
L 287.379994 186.931175 
L 288.149471 187.071453 
L 290.970886 187.071453 
L 291.227378 187.21173 
L 291.48387 187.071453 
L 292.509839 187.071453 
L 292.766332 187.21173 
L 293.022824 187.141591 
L 293.535809 187.21173 
L 295.331255 187.21173 
L 295.587747 187.352008 
L 296.100731 197.451985 
L 299.948116 197.381847 
L 300.204608 197.311708 
L 300.4611 197.381847 
L 300.717592 197.311708 
L 300.974085 197.381847 
L 301.487069 197.311708 
L 302.256546 197.451985 
L 303.026023 197.451985 
L 303.282515 197.311708 
L 303.7955 197.311708 
L 304.051992 197.451985 
L 305.077961 197.381847 
L 305.590946 197.311708 
L 305.847438 197.381847 
L 306.10393 197.311708 
L 306.360423 197.451985 
L 306.616915 197.311708 
L 309.951314 197.381847 
L 310.207807 197.451985 
L 310.464299 197.381847 
L 310.720791 197.451985 
L 310.977284 197.311708 
L 311.233776 197.381847 
L 311.74676 197.311708 
L 312.003253 197.381847 
L 312.259745 197.311708 
L 312.516237 197.451985 
L 312.77273 197.381847 
L 313.285714 197.451985 
L 313.542206 197.451985 
L 313.798699 197.311708 
L 314.568176 197.311708 
L 314.824668 197.451985 
L 315.594145 197.381847 
L 315.850637 197.311708 
L 316.107129 197.451985 
L 316.363621 197.311708 
L 317.133098 197.451985 
L 317.389591 197.381847 
L 317.902575 197.451985 
L 318.672052 197.311708 
L 318.928544 197.311708 
L 319.185037 197.451985 
L 319.441529 197.311708 
L 319.698021 197.381847 
L 319.954513 197.311708 
L 320.211006 197.381847 
L 320.467498 197.311708 
L 320.72399 197.451985 
L 320.980483 197.381847 
L 321.236975 197.451985 
L 321.493467 197.311708 
L 323.032421 197.311708 
L 323.288913 197.451985 
L 323.545405 197.311708 
L 323.801898 197.381847 
L 324.314882 197.311708 
L 324.571374 197.381847 
L 324.827867 197.311708 
L 325.340851 197.451985 
L 325.597344 197.311708 
L 327.136297 197.311708 
L 327.39279 197.451985 
L 327.649282 197.311708 
L 329.188235 197.311708 
L 329.444728 197.451985 
L 329.70122 197.381847 
L 330.214205 197.451985 
L 330.470697 197.311708 
L 331.240174 197.381847 
L 331.496666 197.451985 
L 332.266143 197.311708 
L 332.522635 197.451985 
L 332.779127 197.311708 
L 334.318081 197.311708 
L 334.831066 185.528401 
L 335.087558 185.598539 
L 335.34405 185.317984 
L 335.600542 185.388123 
L 336.883004 185.107568 
L 337.139496 185.247846 
L 337.652481 185.317984 
L 338.421958 185.808955 
L 338.67845 185.668678 
L 340.473896 186.08951 
L 341.499865 186.08951 
L 341.756357 186.229788 
L 342.012849 179.917302 
L 342.269342 186.229788 
L 342.525834 186.229788 
L 343.038819 186.510343 
L 343.295311 186.370065 
L 344.064788 186.370065 
L 344.32128 186.510343 
L 344.834265 186.510343 
L 345.090757 186.65062 
L 345.347249 186.510343 
L 345.860234 186.580482 
L 346.373218 186.65062 
L 347.399187 186.65062 
L 347.65568 186.790898 
L 348.168664 186.720759 
L 348.425156 186.790898 
L 348.938141 186.720759 
L 349.451126 186.861036 
L 349.707618 186.790898 
L 349.96411 186.931175 
L 350.477095 186.790898 
L 351.246572 186.931175 
L 353.042018 186.931175 
L 353.29851 187.071453 
L 353.555002 186.931175 
L 355.60694 187.001314 
L 356.119925 187.071453 
L 359.197832 187.141591 
L 359.710817 187.21173 
L 359.967309 187.071453 
L 360.223801 187.141591 
L 360.480294 197.381847 
L 360.736786 197.311708 
L 361.506263 197.451985 
L 361.762755 197.451985 
L 362.019247 197.311708 
L 362.27574 197.451985 
L 362.532232 197.311708 
L 363.301709 197.311708 
L 363.558201 197.451985 
L 363.814693 197.311708 
L 364.071186 197.451985 
L 364.327678 197.311708 
L 364.58417 197.381847 
L 364.840662 197.311708 
L 365.097155 197.451985 
L 365.353647 197.311708 
L 365.610139 197.451985 
L 365.866632 197.311708 
L 366.636108 197.381847 
L 366.892601 197.451985 
L 367.662077 197.311708 
L 369.457523 197.381847 
L 369.714016 197.451985 
L 370.227 197.311708 
L 370.483493 197.381847 
L 370.996477 197.311708 
L 371.509462 197.381847 
L 372.022446 197.311708 
L 373.5614 197.311708 
L 373.817892 197.451985 
L 374.587369 197.311708 
L 375.613338 197.381847 
L 375.86983 197.451985 
L 376.126323 197.311708 
L 376.382815 197.311708 
L 376.639307 197.451985 
L 377.408784 197.311708 
L 383.051614 197.311708 
L 383.308107 197.451985 
L 383.564599 197.311708 
L 384.334076 197.381847 
L 384.590568 197.451985 
L 384.84706 197.311708 
L 389.720414 197.381847 
L 389.976906 197.451985 
L 390.48989 197.311708 
L 390.746383 197.451985 
L 391.002875 197.311708 
L 391.259367 197.451985 
L 391.51586 197.311708 
L 395.363244 197.311708 
L 395.619736 197.451985 
L 396.389213 197.311708 
L 397.415182 197.381847 
L 397.671674 197.451985 
L 397.928166 197.311708 
L 398.184659 197.311708 
L 398.441151 197.451985 
L 398.954136 197.311708 
L 399.46712 185.668678 
L 399.723612 185.528401 
L 399.980105 185.177707 
L 400.493089 185.458262 
L 400.749582 185.247846 
L 401.006074 185.247846 
L 401.262566 185.037429 
L 402.545028 185.458262 
L 402.80152 185.668678 
L 403.058012 185.668678 
L 403.314504 185.808955 
L 403.827489 185.808955 
L 404.083981 185.949233 
L 404.596966 186.019372 
L 405.366443 186.159649 
L 405.879427 186.08951 
L 406.135919 186.299927 
L 406.392412 186.229788 
L 407.161889 186.370065 
L 407.418381 186.370065 
L 407.674873 186.510343 
L 407.931365 186.440204 
L 408.44435 186.510343 
L 408.957335 186.510343 
L 409.213827 186.65062 
L 409.470319 186.510343 
L 409.983304 186.720759 
L 410.239796 186.580482 
L 410.75278 186.65062 
L 411.009273 186.580482 
L 411.522257 186.65062 
L 412.035242 186.720759 
L 412.291734 186.790898 
L 412.548226 186.65062 
L 412.804719 186.790898 
L 413.061211 186.790898 
L 413.317703 186.931175 
L 413.574196 186.861036 
L 414.08718 186.931175 
L 414.343672 186.931175 
L 414.600165 187.071453 
L 414.856657 186.931175 
L 415.113149 187.001314 
L 415.626134 186.861036 
L 415.882626 186.931175 
L 416.139118 186.790898 
L 416.395611 186.931175 
L 417.934564 186.931175 
L 418.191057 187.071453 
L 418.447549 187.001314 
L 418.960533 187.141591 
L 419.473518 186.931175 
L 419.73001 187.071453 
L 420.499487 187.141591 
L 420.755979 187.21173 
L 421.268964 187.141591 
L 421.781949 187.21173 
L 422.038441 187.071453 
L 422.294933 187.21173 
L 424.090379 187.21173 
L 424.603364 197.311708 
L 424.859856 197.451985 
L 425.37284 197.381847 
L 425.885825 197.451985 
L 426.655302 197.381847 
L 427.168286 197.311708 
L 428.70724 197.381847 
L 428.963732 197.451985 
L 429.220225 197.311708 
L 429.733209 197.451985 
L 429.989701 197.311708 
L 430.246194 197.451985 
L 430.502686 197.451985 
L 430.759178 197.311708 
L 433.067609 197.311708 
L 433.324101 197.451985 
L 433.580593 197.311708 
L 433.837086 197.381847 
L 434.35007 197.311708 
L 434.606563 197.381847 
L 435.119547 197.311708 
L 435.632532 197.311708 
L 435.889024 197.451985 
L 436.145516 197.311708 
L 436.914993 197.311708 
L 437.171485 197.451985 
L 437.427978 197.311708 
L 437.940962 197.451985 
L 438.197454 197.381847 
L 438.453947 197.451985 
L 439.223424 197.311708 
L 441.01887 197.311708 
L 441.275362 197.451985 
L 441.531854 197.311708 
L 441.788346 197.381847 
L 442.301331 197.311708 
L 442.557823 197.451985 
L 443.070808 197.311708 
L 443.3273 197.451985 
L 443.583792 197.311708 
L 443.840285 197.381847 
L 444.353269 197.311708 
L 447.174684 197.311708 
L 447.431177 197.451985 
L 447.687669 197.311708 
L 447.944161 197.451985 
L 448.200653 197.311708 
L 451.278561 197.311708 
L 451.535053 197.451985 
L 451.791545 197.311708 
L 454.61296 197.381847 
L 454.869453 197.451985 
L 455.125945 197.311708 
L 457.177883 197.381847 
L 457.434375 197.451985 
L 457.690868 197.311708 
L 457.94736 196.540182 
L 458.203852 197.311708 
L 461.538252 197.381847 
L 461.794744 197.451985 
L 462.051236 197.311708 
L 462.820713 197.381847 
L 463.077206 197.451985 
L 463.333698 197.311708 
L 463.846682 185.388123 
L 464.103175 185.598539 
L 464.359667 185.528401 
L 464.872652 185.247846 
L 465.129144 185.247846 
L 465.385636 185.107568 
L 465.642128 185.177707 
L 466.155113 185.107568 
L 466.92459 185.528401 
L 467.181082 185.528401 
L 467.437574 185.738817 
L 467.694067 185.668678 
L 468.976528 185.949233 
L 469.489513 186.019372 
L 470.002497 186.08951 
L 470.258989 186.08951 
L 470.515482 186.229788 
L 470.771974 186.159649 
L 471.541451 186.299927 
L 471.797943 186.229788 
L 472.054435 186.370065 
L 472.310928 186.370065 
L 472.56742 186.510343 
L 473.080405 186.370065 
L 473.336897 186.510343 
L 474.362866 186.580482 
L 474.87585 186.65062 
L 475.645327 186.720759 
L 475.90182 186.510343 
L 476.671296 186.65062 
L 477.697266 186.720759 
L 478.21025 186.931175 
L 478.466742 186.790898 
L 478.979727 186.861036 
L 479.492712 186.931175 
L 479.749204 186.790898 
L 480.005696 186.861036 
L 480.262188 186.790898 
L 481.031665 186.931175 
L 481.288157 186.861036 
L 481.54465 186.931175 
L 481.801142 186.861036 
L 482.314127 187.071453 
L 482.570619 186.931175 
L 483.083603 187.001314 
L 483.340096 187.071453 
L 483.596588 186.931175 
L 483.85308 187.071453 
L 484.109573 187.001314 
L 484.366065 187.071453 
L 484.622557 187.001314 
L 485.135542 187.071453 
L 485.905019 187.071453 
L 486.161511 187.21173 
L 486.418003 187.071453 
L 486.674495 187.141591 
L 487.18748 187.071453 
L 487.956957 187.141591 
L 488.213449 187.21173 
L 488.726434 197.381847 
L 488.982926 197.311708 
L 489.239418 197.451985 
L 489.752403 197.451985 
L 490.008895 197.311708 
L 490.265387 197.451985 
L 491.034864 197.311708 
L 495.651725 197.381847 
L 495.908217 197.451985 
L 496.16471 197.311708 
L 496.421202 197.451985 
L 497.190679 197.311708 
L 497.960156 197.311708 
L 498.216648 197.451985 
L 498.47314 197.311708 
L 498.986125 197.381847 
L 499.242617 197.451985 
L 500.012094 197.311708 
L 500.525078 197.311708 
L 500.781571 197.451985 
L 501.551048 197.311708 
L 501.80754 197.381847 
L 502.320524 197.311708 
L 503.346494 197.311708 
L 503.602986 197.451985 
L 504.11597 197.381847 
L 504.372463 197.311708 
L 504.628955 197.451985 
L 504.885447 197.311708 
L 505.398432 197.451985 
L 505.654924 197.311708 
L 505.911416 197.381847 
L 506.424401 197.311708 
L 506.680893 197.451985 
L 507.193878 197.381847 
L 507.706862 197.311708 
L 509.245816 197.311708 
L 509.502308 197.451985 
L 510.271785 197.311708 
L 512.323723 197.381847 
L 512.580216 197.451985 
L 512.836708 197.311708 
L 513.0932 197.451985 
L 513.606185 197.311708 
L 513.862677 197.451985 
L 514.119169 197.311708 
L 514.375662 197.451985 
L 514.632154 197.311708 
L 522.326922 197.311708 
L 522.583415 197.451985 
L 522.839907 197.311708 
L 523.096399 197.451985 
L 523.352891 197.311708 
L 523.609384 197.381847 
L 524.122368 197.311708 
L 524.37886 197.381847 
L 524.635353 197.311708 
L 524.891845 197.451985 
L 525.148337 197.311708 
L 525.40483 197.381847 
L 525.917814 197.311708 
L 526.174306 197.381847 
L 526.687291 197.311708 
L 527.969752 197.311708 
L 528.482737 185.528401 
L 528.739229 185.738817 
L 528.995722 185.317984 
L 529.252214 185.528401 
L 529.508706 185.177707 
L 531.04766 185.247846 
L 531.817137 185.668678 
L 532.330121 185.668678 
L 532.586613 185.808955 
L 532.843106 185.738817 
L 534.382059 186.08951 
L 535.408029 186.08951 
L 535.664521 186.229788 
L 536.433998 186.299927 
L 536.946982 186.440204 
L 537.203474 186.370065 
L 537.459967 186.510343 
L 537.972951 186.440204 
L 538.229444 186.510343 
L 538.485936 186.440204 
L 538.99892 186.510343 
L 539.768397 186.580482 
L 540.281382 186.65062 
L 540.537874 186.580482 
L 541.050859 186.65062 
L 541.307351 186.580482 
L 542.076828 186.790898 
L 542.33332 186.720759 
L 542.589812 186.790898 
L 542.846305 186.65062 
L 543.102797 186.790898 
L 543.359289 186.720759 
L 543.872274 186.790898 
L 545.411227 186.861036 
L 545.924212 186.931175 
L 547.97615 186.931175 
L 548.232643 187.071453 
L 551.31055 187.141591 
L 551.567042 187.21173 
L 551.823534 187.071453 
L 552.593011 187.21173 
L 552.849504 187.21173 
L 553.105996 187.071453 
L 553.362488 197.031153 
L 553.61898 197.381847 
L 553.875473 197.311708 
L 554.388457 197.451985 
L 555.157934 197.311708 
L 555.670919 197.311708 
L 555.927411 197.451985 
L 556.183903 197.311708 
L 557.466365 197.311708 
L 557.722857 197.451985 
L 557.979349 197.311708 
L 558.235841 197.311708 
L 558.492334 195.768656 
L 558.748826 197.451985 
L 559.005318 197.311708 
L 561.057257 197.311708 
L 561.313749 197.451985 
L 562.083226 197.311708 
L 562.339718 197.381847 
L 562.59621 197.311708 
L 562.852702 197.381847 
L 563.109195 197.311708 
L 563.365687 197.451985 
L 564.135164 197.311708 
L 566.443594 197.311708 
L 566.700087 197.451985 
L 566.956579 197.311708 
L 574.394855 197.311708 
L 574.651347 197.451985 
L 574.90784 197.311708 
L 575.164332 197.381847 
L 575.677316 197.311708 
L 576.446793 197.451985 
L 576.703286 197.311708 
L 576.959778 197.311708 
L 577.21627 197.451985 
L 577.472762 197.311708 
L 579.524701 197.311708 
L 579.781193 197.451985 
L 580.037685 197.311708 
L 580.294178 197.451985 
L 580.55067 197.311708 
L 580.807162 197.451985 
L 581.063654 197.311708 
L 582.089623 197.311708 
L 582.346116 197.451985 
L 582.602608 197.311708 
L 584.911039 197.311708 
L 585.167531 197.451985 
L 585.937008 197.311708 
L 586.1935 197.381847 
L 586.706485 197.311708 
L 586.962977 197.311708 
L 587.219469 197.451985 
L 587.475961 197.311708 
L 589.271407 197.311708 
L 589.5279 197.451985 
L 590.297376 197.311708 
L 591.83633 197.311708 
L 592.092822 197.451985 
L 592.349315 197.311708 
L 593.631776 197.311708 
L 593.888268 185.317984 
L 594.144761 185.808955 
L 594.401253 185.177707 
L 594.914237 185.317984 
L 595.940207 185.037429 
L 597.47916 185.528401 
L 597.735653 185.808955 
L 598.761622 185.808955 
L 599.018114 185.949233 
L 599.274606 185.949233 
L 599.787591 186.159649 
L 600.044083 186.08951 
L 600.300575 186.229788 
L 600.557068 186.159649 
L 601.583037 186.370065 
L 602.609006 186.370065 
L 602.865498 186.510343 
L 604.660944 186.580482 
L 604.917436 186.65062 
L 605.173929 186.580482 
L 605.943406 186.720759 
L 606.45639 186.65062 
L 606.712882 186.790898 
L 606.969375 186.65062 
L 607.225867 186.790898 
L 607.482359 186.720759 
L 607.995344 186.790898 
L 608.764821 186.790898 
L 609.021313 186.931175 
L 609.277805 186.790898 
L 610.047282 186.931175 
L 611.586236 187.001314 
L 611.842728 187.071453 
L 612.09922 186.931175 
L 612.868697 186.931175 
L 613.125189 187.071453 
L 616.716081 187.141591 
L 617.229066 187.21173 
L 617.74205 187.141591 
L 617.998543 187.21173 
L 618.255035 197.381847 
L 618.511527 197.311708 
L 618.76802 197.451985 
L 619.024512 197.381847 
L 619.537496 197.451985 
L 619.793989 197.311708 
L 620.306973 197.311708 
L 620.563465 197.451985 
L 620.819958 197.311708 
L 623.897865 197.381847 
L 624.154357 197.451985 
L 624.41085 197.311708 
L 627.232265 197.311708 
L 627.488757 197.451985 
L 627.745249 197.311708 
L 628.001742 197.311708 
L 628.258234 197.451985 
L 628.514726 197.311708 
L 628.771218 197.451985 
L 629.027711 197.311708 
L 631.849126 197.311708 
L 632.105618 197.451985 
L 632.875095 197.311708 
L 635.953002 197.311708 
L 636.209495 197.451985 
L 636.465987 197.311708 
L 636.722479 197.381847 
L 636.978971 197.311708 
L 637.235464 197.381847 
L 637.748448 197.311708 
L 639.287402 197.311708 
L 639.543894 197.451985 
L 639.800386 197.311708 
L 640.313371 197.311708 
L 640.569863 197.451985 
L 640.826356 197.311708 
L 641.595832 197.311708 
L 641.852325 197.451985 
L 642.621802 197.311708 
L 642.878294 197.381847 
L 643.134786 197.311708 
L 643.647771 197.451985 
L 643.904263 197.311708 
L 646.98217 197.381847 
L 647.495155 197.451985 
L 647.751647 197.311708 
L 648.008139 197.451985 
L 648.777616 197.451985 
L 649.034109 197.311708 
L 649.290601 197.311708 
L 649.547093 197.451985 
L 650.060078 197.311708 
L 650.31657 197.451985 
L 650.573062 197.311708 
L 650.829554 197.451985 
L 651.086047 197.311708 
L 651.342539 197.451985 
L 652.112016 197.311708 
L 653.907462 197.381847 
L 654.163954 197.451985 
L 654.676939 197.311708 
L 655.189923 197.451985 
L 655.446416 197.311708 
L 655.702908 197.451985 
L 656.215892 197.311708 
L 656.728877 197.451985 
L 657.241861 197.381847 
L 657.754846 197.451985 
L 658.267831 197.451985 
L 658.524323 197.311708 
L 658.780815 197.311708 
L 659.037307 111.461897 
L 659.2938 185.528401 
L 659.550292 185.668678 
L 659.806784 185.177707 
L 660.063277 185.528401 
L 660.319769 185.247846 
L 660.576261 185.388123 
L 660.832753 185.107568 
L 661.089246 185.247846 
L 661.60223 185.107568 
L 661.858723 185.177707 
L 662.371707 185.528401 
L 662.884692 185.668678 
L 663.141184 185.879094 
L 663.654168 185.808955 
L 663.910661 185.949233 
L 664.423645 185.949233 
L 664.680138 186.08951 
L 665.449614 186.159649 
L 665.962599 186.229788 
L 666.475584 186.229788 
L 666.732076 186.370065 
L 667.758045 186.370065 
L 668.014537 186.510343 
L 669.040506 186.510343 
L 669.296999 186.65062 
L 669.553491 186.65062 
L 669.809983 186.510343 
L 670.066475 186.65062 
L 671.861921 186.65062 
L 672.118414 186.790898 
L 674.683337 186.861036 
L 674.939829 186.931175 
L 675.196321 186.790898 
L 675.452813 186.931175 
L 676.991767 187.001314 
L 677.248259 187.071453 
L 678.017736 186.931175 
L 678.274228 187.141591 
L 678.787213 187.071453 
L 679.043705 187.21173 
L 679.300198 187.071453 
L 680.069674 187.21173 
L 680.326167 187.21173 
L 680.582659 187.071453 
L 680.839151 187.21173 
L 682.378105 187.281869 
L 682.634597 187.352008 
L 682.891089 187.281869 
L 683.404074 197.451985 
L 685.19952 197.381847 
L 685.19952 197.381847 
" clip-path="url(#p0ac698e378)" style="fill: none; stroke: #2ca02c; stroke-width: 0.9; stroke-linecap: square"/>
   </g>
   <g id="text_15">
    <text style="font-size: 10px; font-family: 'Helvetica', 'Arial', 'DejaVu Sans', sans-serif; text-anchor: start" x="44.225313" y="22.438677" transform="rotate(-0 44.225313 22.438677)">NILMFormer — fridge</text>
   </g>
   <g id="axes_2">
    <g id="patch_6">
     <path d="M 57.044797 100.013432 
L 210.940165 100.013432 
L 210.940165 35.255321 
L 57.044797 35.255321 
z
" style="fill: #ffffff"/>
    </g>
    <g id="matplotlib.axis_3"/>
    <g id="matplotlib.axis_4"/>
    <g id="line2d_15">
     <path d="M 57.044797 77.764926 
L 57.455184 80.166619 
L 57.865572 79.479035 
L 58.27596 79.453729 
L 58.686347 78.234688 
L 59.096735 78.191034 
L 59.507123 77.85614 
L 59.91751 77.717329 
L 60.327898 79.014533 
L 60.738285 78.379686 
L 61.148673 78.043813 
L 61.559061 77.526856 
L 61.969448 79.334191 
L 62.379836 79.157779 
L 63.200611 78.518698 
L 63.610999 79.150404 
L 64.021387 79.072213 
L 64.431774 78.813264 
L 64.842162 79.336494 
L 65.25255 78.691597 
L 65.662937 79.147342 
L 66.073325 79.86124 
L 66.8941 79.876556 
L 68.535651 78.768201 
L 68.946038 79.875885 
L 69.356426 80.18614 
L 69.766814 79.984964 
L 70.177201 80.035678 
L 70.587589 79.407144 
L 70.997977 80.155541 
L 71.408364 78.915732 
L 71.818752 100.013432 
L 75.101853 100.013432 
L 75.512241 80.83934 
L 75.922628 100.013432 
L 76.333016 100.013432 
L 76.743404 78.17822 
L 77.153791 65.983655 
L 77.564179 64.334888 
L 77.974567 64.904586 
L 78.384954 63.973993 
L 78.795342 62.348825 
L 79.20573 62.564513 
L 80.026505 61.626568 
L 80.436893 61.491042 
L 80.84728 62.292381 
L 81.257668 62.142983 
L 81.668056 62.975121 
L 82.488831 62.302805 
L 82.899218 62.233531 
L 83.309606 62.455834 
L 84.130381 62.42635 
L 84.540769 62.673179 
L 84.951157 62.742421 
L 85.771932 62.42306 
L 86.592707 62.627085 
L 87.413483 62.716956 
L 88.234258 62.709916 
L 89.055033 62.590028 
L 89.875808 63.073546 
L 90.696584 62.75654 
L 91.517359 63.079278 
L 91.927747 62.867083 
L 92.748522 62.909639 
L 93.15891 62.67438 
L 93.569297 62.620331 
L 93.979685 63.083924 
L 94.390073 63.110598 
L 94.80046 63.287639 
L 95.210848 64.176023 
L 96.031623 64.977652 
L 96.442011 64.286086 
L 96.852398 63.076828 
L 97.262786 62.922361 
L 97.673174 63.550459 
L 98.493949 72.926107 
L 98.904337 75.709602 
L 99.314724 77.365812 
L 99.725112 76.169405 
L 100.1355 69.232874 
L 100.545887 66.771884 
L 100.956275 72.314027 
L 101.366663 73.306039 
L 101.77705 72.816162 
L 102.187438 72.031109 
L 103.008213 68.668741 
L 103.418601 67.886634 
L 103.828989 68.915558 
L 104.239376 69.350222 
L 104.649764 69.028385 
L 105.060151 69.717469 
L 105.470539 69.995108 
L 105.880927 69.206418 
L 106.291314 69.337021 
L 106.701702 69.907293 
L 107.11209 71.058392 
L 107.522477 76.993234 
L 107.932865 100.013432 
L 110.805579 100.013432 
L 111.215966 80.640413 
L 111.626354 79.447851 
L 112.036741 80.889267 
L 112.447129 100.013432 
L 114.909455 100.013432 
L 115.319843 80.492733 
L 115.73023 100.013432 
L 118.192556 100.013432 
L 118.602944 80.358176 
L 119.013331 78.508329 
L 119.423719 77.466095 
L 119.834107 76.759926 
L 120.244494 76.853947 
L 121.06527 77.379138 
L 121.475657 77.868206 
L 121.886045 76.780215 
L 122.296433 76.613745 
L 122.70682 76.962242 
L 123.117208 76.665185 
L 123.527596 77.11249 
L 123.937983 77.056822 
L 124.348371 76.694697 
L 124.758759 76.82299 
L 125.169146 76.630437 
L 125.579534 76.224854 
L 125.989921 77.016496 
L 126.400309 76.46953 
L 126.810697 76.658711 
L 127.221084 76.072479 
L 127.631472 77.438582 
L 128.04186 76.854755 
L 128.452247 76.476669 
L 128.862635 77.125823 
L 129.273023 78.137868 
L 129.68341 79.751223 
L 130.093798 80.897614 
L 130.504186 78.963897 
L 130.914573 78.865023 
L 131.324961 79.55803 
L 131.735349 76.2902 
L 132.145736 66.885571 
L 132.556124 63.981527 
L 132.966512 63.618896 
L 133.376899 68.35258 
L 133.787287 78.313085 
L 134.197674 100.013432 
L 166.207911 100.013432 
L 166.618299 79.993924 
L 167.028686 75.051057 
L 167.439074 74.057925 
L 167.849462 72.425687 
L 168.259849 73.250656 
L 168.670237 73.269168 
L 169.080625 72.860199 
L 169.9014 72.563025 
L 170.311787 72.771288 
L 171.132563 73.895569 
L 171.54295 73.692433 
L 171.953338 73.675059 
L 172.363726 73.888686 
L 174.005276 73.922247 
L 174.826052 74.060013 
L 175.646827 74.249756 
L 176.057215 74.114923 
L 176.467602 74.249461 
L 176.87799 74.562519 
L 177.288377 74.543844 
L 177.698765 74.879546 
L 178.109153 75.065771 
L 178.929928 74.953463 
L 179.340316 74.893653 
L 179.750703 75.279278 
L 180.161091 75.026363 
L 180.981866 75.310194 
L 181.392254 74.925062 
L 181.802642 75.786336 
L 182.213029 75.369289 
L 182.623417 75.124671 
L 183.033805 75.669973 
L 183.444192 75.120897 
L 183.85458 75.188171 
L 184.264967 75.746681 
L 184.675355 75.33457 
L 185.085743 75.809288 
L 185.906518 75.438382 
L 186.316906 75.61231 
L 186.727293 75.299723 
L 187.137681 75.288319 
L 187.548069 75.614526 
L 187.958456 75.052906 
L 188.368844 75.368738 
L 188.779232 75.399595 
L 189.189619 75.126853 
L 189.600007 75.727931 
L 190.420782 75.137732 
L 190.83117 75.637567 
L 191.241557 75.234987 
L 191.651945 75.504886 
L 192.062333 75.618265 
L 192.47272 75.52739 
L 192.883108 75.581617 
L 193.293496 75.350935 
L 194.114271 75.289194 
L 194.524659 75.782258 
L 195.345434 78.116866 
L 195.755822 77.077031 
L 196.576597 79.885036 
L 196.986985 79.915467 
L 197.397372 80.696611 
L 197.80776 80.481838 
L 198.218148 80.601761 
L 198.628535 80.515167 
L 199.038923 80.73358 
L 199.44931 100.013432 
L 199.859698 100.013432 
L 200.270086 79.353365 
L 200.680473 79.902792 
L 201.090861 79.631244 
L 201.501249 78.100947 
L 201.911636 79.046298 
L 202.322024 79.257631 
L 202.732412 79.068581 
L 203.142799 79.845573 
L 203.553187 78.620446 
L 203.963575 79.402304 
L 204.373962 100.013432 
L 204.78435 80.328163 
L 205.605125 80.814608 
L 206.4259 80.241184 
L 206.836288 80.593016 
L 207.246676 100.013432 
L 207.657063 100.013432 
L 208.067451 80.872425 
L 208.477839 100.013432 
L 208.888226 80.747289 
L 209.709002 79.975446 
L 210.119389 80.211692 
L 210.529777 100.013432 
L 210.940165 100.013432 
L 210.940165 100.013432 
" clip-path="url(#p01b8ed40a8)" style="fill: none; stroke: #ff7f0e; stroke-width: 0.9; stroke-linecap: square"/>
    </g>
    <g id="patch_7">
     <path d="M 57.044797 100.013432 
L 57.044797 35.255321 
" style="fill: none; stroke: #000000; stroke-width: 0.6; stroke-linejoin: miter; stroke-linecap: square"/>
    </g>
    <g id="patch_8">
     <path d="M 57.044797 100.013432 
L 210.940165 100.013432 
" style="fill: none; stroke: #000000; stroke-width: 0.6; stroke-linejoin: miter; stroke-linecap: square"/>
    </g>
    <g id="line2d_16">
     <path d="M 57.044797 59.491828 
L 57.455184 64.270319 
L 57.865572 62.741202 
L 58.27596 62.932341 
L 58.686347 62.932341 
L 59.096735 62.741202 
L 59.507123 62.167783 
L 59.91751 62.358922 
L 60.327898 62.167783 
L 60.738285 62.358922 
L 61.148673 62.358922 
L 61.559061 62.550062 
L 62.379836 63.6969 
L 62.790224 64.079179 
L 63.200611 63.6969 
L 63.610999 63.6969 
L 64.021387 64.079179 
L 64.842162 64.461458 
L 65.25255 64.461458 
L 65.662937 64.652598 
L 66.073325 64.461458 
L 66.483713 64.843738 
L 67.304488 64.843738 
L 68.125263 65.226017 
L 68.535651 65.034877 
L 68.946038 65.034877 
L 69.356426 65.608296 
L 69.766814 65.226017 
L 70.177201 65.608296 
L 70.587589 65.417157 
L 70.997977 65.608296 
L 71.818752 65.608296 
L 72.22914 65.799436 
L 72.639527 65.608296 
L 73.460303 65.990576 
L 74.691466 65.990576 
L 75.101853 66.372855 
L 75.922628 65.990576 
L 76.743404 66.372855 
L 77.153791 66.372855 
L 77.564179 66.181715 
L 77.974567 66.372855 
L 78.384954 66.372855 
L 78.795342 66.563994 
L 79.20573 66.372855 
L 79.616117 66.755134 
L 80.026505 66.755134 
L 80.436893 66.946274 
L 80.84728 66.946274 
L 81.257668 66.755134 
L 81.668056 66.946274 
L 82.078443 66.755134 
L 82.488831 66.372855 
L 82.899218 66.946274 
L 83.309606 67.137413 
L 83.719994 66.946274 
L 84.130381 66.946274 
L 84.951157 67.328553 
L 85.361544 67.328553 
L 85.771932 67.137413 
L 86.18232 67.519693 
L 86.592707 67.137413 
L 87.003095 67.137413 
L 87.413483 67.519693 
L 87.82387 67.519693 
L 88.234258 67.328553 
L 88.644646 67.901972 
L 89.055033 67.519693 
L 89.875808 67.519693 
L 90.286196 67.710832 
L 90.696584 67.519693 
L 92.338134 67.519693 
L 92.748522 67.901972 
L 93.15891 67.901972 
L 93.569297 67.710832 
L 93.979685 67.901972 
L 94.390073 67.901972 
L 94.80046 67.710832 
L 95.210848 67.901972 
L 95.621236 67.710832 
L 96.031623 68.093112 
L 96.442011 67.901972 
L 97.262786 67.901972 
L 97.673174 68.284251 
L 98.083561 67.710832 
L 98.493949 67.901972 
L 99.725112 67.901972 
L 100.1355 68.284251 
L 100.956275 67.901972 
L 101.366663 68.093112 
L 101.77705 67.901972 
L 102.187438 68.093112 
L 102.597826 68.093112 
L 103.008213 68.284251 
L 104.239376 68.284251 
L 104.649764 68.093112 
L 105.060151 68.284251 
L 105.470539 68.284251 
L 106.291314 67.901972 
L 106.701702 68.284251 
L 107.11209 68.093112 
L 107.522477 95.80836 
L 108.343253 96.190639 
L 108.75364 96.190639 
L 109.164028 95.9995 
L 109.574416 96.190639 
L 110.395191 96.190639 
L 110.805579 95.9995 
L 111.215966 95.9995 
L 111.626354 96.190639 
L 112.447129 95.80836 
L 112.857517 96.190639 
L 113.267904 96.190639 
L 113.678292 95.80836 
L 114.08868 96.190639 
L 114.499067 96.190639 
L 114.909455 95.80836 
L 115.319843 96.190639 
L 115.73023 95.9995 
L 116.140618 96.190639 
L 116.551006 95.80836 
L 116.961393 95.80836 
L 117.371781 95.9995 
L 117.782169 95.9995 
L 118.192556 95.80836 
L 118.602944 95.9995 
L 119.013331 95.9995 
L 119.423719 96.190639 
L 120.244494 96.190639 
L 121.06527 95.80836 
L 121.475657 96.190639 
L 121.886045 95.9995 
L 122.296433 96.190639 
L 122.70682 96.190639 
L 123.527596 95.80836 
L 123.937983 95.80836 
L 124.348371 95.9995 
L 124.758759 95.80836 
L 125.169146 96.190639 
L 125.989921 96.190639 
L 126.810697 95.80836 
L 127.221084 96.190639 
L 128.04186 95.80836 
L 128.452247 95.80836 
L 128.862635 96.190639 
L 129.273023 96.190639 
L 129.68341 95.80836 
L 130.093798 95.80836 
L 130.504186 96.190639 
L 130.914573 95.80836 
L 131.735349 95.80836 
L 132.145736 96.190639 
L 132.556124 95.80836 
L 133.376899 95.80836 
L 133.787287 95.9995 
L 134.197674 95.80836 
L 140.353489 95.80836 
L 140.763877 95.9995 
L 141.174264 95.80836 
L 142.815815 95.80836 
L 143.226203 96.190639 
L 143.63659 95.80836 
L 145.688529 95.80836 
L 146.098916 95.9995 
L 146.509304 95.80836 
L 149.792405 95.80836 
L 150.202793 95.9995 
L 150.61318 95.80836 
L 151.023568 95.80836 
L 151.433956 95.9995 
L 151.844343 95.80836 
L 161.693647 95.80836 
L 162.104035 96.190639 
L 162.514422 95.80836 
L 165.387136 95.80836 
L 166.207911 96.190639 
L 166.618299 41.142422 
L 167.028686 64.270319 
L 167.439074 64.079179 
L 167.849462 62.358922 
L 168.259849 62.932341 
L 168.670237 62.550062 
L 169.080625 62.932341 
L 169.491012 62.550062 
L 169.9014 62.358922 
L 170.311787 62.550062 
L 170.722175 62.550062 
L 171.54295 62.932341 
L 172.363726 63.6969 
L 172.774113 64.461458 
L 173.184501 64.079179 
L 174.415664 64.652598 
L 174.826052 64.461458 
L 175.646827 65.226017 
L 176.057215 64.843738 
L 176.87799 65.226017 
L 177.288377 65.226017 
L 177.698765 65.608296 
L 178.51954 65.608296 
L 179.340316 65.990576 
L 180.981866 65.990576 
L 181.392254 66.372855 
L 181.802642 66.372855 
L 182.213029 66.181715 
L 182.623417 66.372855 
L 184.264967 66.372855 
L 184.675355 66.755134 
L 185.085743 66.563994 
L 185.49613 66.755134 
L 186.727293 66.755134 
L 187.137681 67.137413 
L 187.548069 66.755134 
L 187.958456 66.755134 
L 188.368844 66.563994 
L 188.779232 66.755134 
L 189.189619 67.137413 
L 189.600007 66.946274 
L 190.010395 67.137413 
L 190.420782 67.137413 
L 190.83117 66.946274 
L 191.241557 67.137413 
L 192.47272 67.137413 
L 192.883108 66.946274 
L 193.293496 67.137413 
L 193.703883 67.137413 
L 194.114271 67.519693 
L 200.270086 67.519693 
L 201.090861 67.901972 
L 201.501249 67.710832 
L 201.911636 67.710832 
L 202.322024 67.519693 
L 202.732412 67.901972 
L 203.142799 68.093112 
L 203.553187 67.901972 
L 203.963575 68.093112 
L 204.373962 67.901972 
L 204.78435 67.901972 
L 205.194738 68.093112 
L 205.605125 67.901972 
L 206.015513 68.093112 
L 206.4259 67.901972 
L 206.836288 67.901972 
L 207.246676 68.284251 
L 207.657063 67.901972 
L 208.067451 68.284251 
L 208.477839 68.093112 
L 208.888226 68.284251 
L 210.940165 68.284251 
L 210.940165 68.284251 
" clip-path="url(#p01b8ed40a8)" style="fill: none; stroke: #2ca02c; stroke-width: 0.9; stroke-linecap: square"/>
    </g>
   </g>
  </g>
  <g id="patch_9">
   <path d="M 66.796633 174.01162 
Q 61.920715 137.012526 57.044797 100.013432 
" style="fill: none; opacity: 0.9; stroke: #595959; stroke-width: 0.5; stroke-linecap: round"/>
  </g>
  <g id="patch_10">
   <path d="M 162.981238 174.01162 
Q 186.960701 137.012526 210.940165 100.013432 
" style="fill: none; opacity: 0.9; stroke: #595959; stroke-width: 0.5; stroke-linecap: round"/>
  </g>
  <g id="legend_1">
   <g id="line2d_17">
    <path d="M 270.00601 13.67875 
L 278.00601 13.67875 
L 286.00601 13.67875 
" style="fill: none; stroke: #ff7f0e; stroke-width: 0.9; stroke-linecap: square"/>
   </g>
   <g id="text_16">
    <text style="font-size: 8px; font-family: 'Helvetica', 'Arial', 'DejaVu Sans', sans-serif; text-anchor: start" x="292.40601" y="16.47875" transform="rotate(-0 292.40601 16.47875)">Prediction</text>
   </g>
   <g id="line2d_18">
    <path d="M 348.14476 13.67875 
L 356.14476 13.67875 
L 364.14476 13.67875 
" style="fill: none; stroke: #2ca02c; stroke-width: 0.9; stroke-linecap: square"/>
   </g>
   <g id="text_17">
    <text style="font-size: 8px; font-family: 'Helvetica', 'Arial', 'DejaVu Sans', sans-serif; text-anchor: start" x="370.54476" y="16.47875" transform="rotate(-0 370.54476 16.47875)">Ground-Truth</text>
   </g>
  </g>
 </g>
 <defs>
  <clipPath id="p0ac698e378">
   <rect x="44.225313" y="28.438677" width="640.974207" height="170.416083"/>
  </clipPath>
  <clipPath id="p01b8ed40a8">
   <rect x="57.044797" y="35.255321" width="153.895368" height="64.758111"/>
  </clipPath>
 </defs>
</svg>
